<svg width="12" height="21" viewBox="0 0 12 21" fill="none" xmlns="http://www.w3.org/2000/svg">
<path d="M5.096 20.632V10.144L5.672 9.304V-0.00800133H7.208V9.688L6.632 10.792V20.632H5.096ZM10.52 4.912C9.912 4.592 9.256 4.32 8.552 4.096C7.848 3.872 7.168 3.76 6.512 3.76C5.616 3.76 4.904 3.968 4.376 4.384C3.848 4.784 3.584 5.336 3.584 6.04C3.584 6.536 3.76 6.968 4.112 7.336C4.464 7.704 4.92 8.024 5.48 8.296C6.04 8.568 6.632 8.824 7.256 9.064C7.784 9.256 8.304 9.488 8.816 9.76C9.344 10.016 9.816 10.336 10.232 10.72C10.664 11.104 11 11.584 11.24 12.16C11.496 12.72 11.624 13.408 11.624 14.224C11.624 15.152 11.392 15.992 10.928 16.744C10.48 17.496 9.824 18.096 8.96 18.544C8.112 18.976 7.08 19.192 5.864 19.192C5.128 19.192 4.408 19.112 3.704 18.952C3.016 18.776 2.36 18.552 1.736 18.28C1.128 17.992 0.576 17.68 0.08 17.344L1.232 15.352C1.616 15.624 2.056 15.888 2.552 16.144C3.048 16.384 3.56 16.576 4.088 16.72C4.632 16.864 5.144 16.936 5.624 16.936C6.152 16.936 6.672 16.848 7.184 16.672C7.696 16.48 8.12 16.192 8.456 15.808C8.792 15.408 8.96 14.888 8.96 14.248C8.96 13.704 8.808 13.248 8.504 12.88C8.216 12.496 7.824 12.168 7.328 11.896C6.848 11.624 6.328 11.384 5.768 11.176C5.224 10.968 4.672 10.736 4.112 10.48C3.552 10.224 3.032 9.92 2.552 9.568C2.072 9.2 1.68 8.752 1.376 8.224C1.088 7.68 0.944 7.016 0.944 6.232C0.944 5.304 1.16 4.496 1.592 3.808C2.04 3.104 2.656 2.552 3.44 2.152C4.224 1.752 5.128 1.528 6.152 1.48C7.32 1.48 8.336 1.624 9.2 1.912C10.064 2.2 10.832 2.544 11.504 2.944L10.52 4.912Z" fill="#2AD300"/>
</svg>
