<svg width="40" height="40" viewBox="0 0 40 40" fill="none" xmlns="http://www.w3.org/2000/svg">
<rect width="40" height="40" rx="8" fill="#EBF9F5"/>
<path d="M29.9998 18.0001C29.9998 17.2044 29.6838 16.4413 29.1211 15.8787C28.5585 15.3161 27.7955 15.0001 26.9998 15.0001H24.7928C24.4536 13.8064 23.7208 12.7625 22.7134 12.0378C21.706 11.3131 20.4832 10.9503 19.2436 11.0082C18.004 11.0661 16.8204 11.5414 15.885 12.3568C14.9496 13.1722 14.3173 14.28 14.0908 15.5001M25.5002 29H17.0002C15.702 28.9997 14.4296 28.6384 13.3249 27.9565C12.2203 27.2746 11.3271 26.2989 10.745 25.1386C10.163 23.9783 9.91505 22.679 10.029 21.3858C10.1429 20.0927 10.6141 18.8567 11.39 17.816C12.1659 16.7753 13.216 15.9708 14.4228 15.4925C15.6296 15.0142 16.9456 14.8809 18.2238 15.1075C19.502 15.3341 20.692 15.9116 21.6609 16.7756C22.6297 17.6396 23.3393 18.756 23.7102 20H25.5002C26.0911 20 26.6763 20.1164 27.2222 20.3425C27.7682 20.5687 28.2643 20.9002 28.6821 21.318C29.1 21.7359 29.4315 22.232 29.6576 22.7779C29.8838 23.3239 30.0002 23.9091 30.0002 24.5C30.0002 25.091 29.8838 25.6761 29.6576 26.2221C29.4315 26.768 29.1 27.2641 28.6821 27.682C28.2643 28.0998 27.7682 28.4313 27.2222 28.6575C26.6763 28.8836 26.0911 29 25.5002 29Z" stroke="black" stroke-width="2" stroke-linecap="round" stroke-linejoin="round"/>
</svg>
