<svg width="374" height="149" viewBox="0 0 374 149" fill="none" xmlns="http://www.w3.org/2000/svg">
<rect x="3.64662" y="3.01347" width="366.856" height="140.692" rx="18" transform="rotate(0.257904 3.64662 3.01347)" fill="#FFF500"/>
<rect x="3.64662" y="3.01347" width="366.856" height="140.692" rx="18" transform="rotate(0.257904 3.64662 3.01347)" stroke="#FFD600" stroke-width="6"/>
<path d="M58.5316 50.7072C58.5013 51.5082 58.4717 52.149 58.4428 52.6295C58.4141 53.0834 58.3723 53.4571 58.3176 53.7506C58.2896 54.0442 58.2216 54.3109 58.1137 54.5508C58.0326 54.764 57.9112 55.0439 57.7494 55.3903C57.1831 56.6162 56.311 57.5603 55.133 58.2226C53.955 58.8849 52.4581 59.212 50.6422 59.2038C49.4672 59.1985 48.5331 59.0741 47.8399 58.8307C47.1465 58.6139 46.4134 58.3436 45.6404 58.0196L43.9617 57.2109C43.3488 56.9144 42.8561 56.6051 42.4837 56.283C42.1381 55.9343 41.9661 55.5863 41.9677 55.2392C41.9715 54.3846 42.3876 53.9058 43.2159 53.8027C43.8559 54.0193 44.3891 54.2086 44.8156 54.3707C45.2423 54.5062 45.5888 54.6546 45.8551 54.8161C46.1483 54.9509 46.3879 55.0988 46.5741 55.2599C46.7871 55.4211 46.9866 55.5956 47.1726 55.7833C48.4254 56.2964 49.7729 56.5561 51.2149 56.5626C51.4285 56.5636 51.6957 56.5247 52.0165 56.4461C52.3641 56.3675 52.7116 56.2756 53.0593 56.1704C53.407 56.0384 53.7281 55.893 54.0226 55.7341C54.3172 55.5485 54.5449 55.3759 54.7059 55.2164C54.8945 54.8434 55.0436 54.35 55.1532 53.7363C55.2895 53.1227 55.3594 52.4154 55.363 51.6142C55.3663 50.8932 55.1554 50.2781 54.7304 49.7688C54.3054 49.2595 53.7733 48.8298 53.1339 48.4798C52.4946 48.1297 51.815 47.8329 51.095 47.5893C50.4019 47.3192 49.7755 47.076 49.2156 46.8599C48.336 46.5087 47.4037 45.9838 46.4188 45.285C45.3052 43.4908 44.7504 42.1665 44.7543 41.3119C44.7628 39.4159 45.946 37.592 48.3039 35.8401C50.6574 35.0496 52.1814 34.6559 52.8757 34.659C53.116 34.6601 53.4494 34.755 53.8758 34.9439C54.329 35.1329 54.7685 35.3752 55.1944 35.6708C55.6472 35.9399 56.033 36.2488 56.3519 36.5974C56.6708 36.946 56.8295 37.2805 56.8281 37.6009C56.8247 38.3486 56.3691 38.7205 55.4611 38.7164C55.4077 38.7161 55.2345 38.6352 54.9415 38.4737C54.6753 38.2856 54.369 38.0972 54.0227 37.9088C53.6765 37.6936 53.3169 37.505 52.9437 37.3431C52.5973 37.1813 52.3039 37.0999 52.0636 37.0988C51.5028 37.0963 50.9547 37.2273 50.4195 37.492C49.9109 37.7567 49.4554 38.0885 49.0531 38.4872C48.6507 38.886 48.3283 39.3252 48.0858 39.8048C47.8434 40.2576 47.7213 40.6844 47.7195 41.0849C47.7164 41.7792 47.9138 42.421 48.3117 43.0103C48.7096 43.5996 49.1749 44.0423 49.7077 44.3385C49.8143 44.3924 50.0808 44.5004 50.5074 44.6625C50.934 44.798 51.4406 44.9872 52.027 45.2302C52.6401 45.4733 53.2797 45.7699 53.9457 46.1201C54.6384 46.4703 55.2909 46.8739 55.903 47.3306C56.542 47.7607 57.0872 48.2706 57.5385 48.8601C58.0166 49.4231 58.3477 50.0388 58.5316 50.7072ZM74.5324 43.9695C74.5578 44.2634 74.5699 44.5439 74.5687 44.8109C74.5942 45.0781 74.6063 45.3585 74.6049 45.6523C74.6021 46.2932 74.5729 46.8405 74.5174 47.2942C74.4621 47.7212 74.3931 48.215 74.3105 48.7754C74.228 49.3091 74.1181 49.9762 73.981 50.7767C73.8707 51.5507 73.7592 52.5917 73.6465 53.8997C73.6461 53.9798 73.6324 54.0598 73.6054 54.1398C73.6051 54.1932 73.6048 54.26 73.6045 54.3401C73.6025 54.7674 73.6405 55.2349 73.7183 55.7426L73.8719 57.2254C73.8688 57.9197 73.4266 58.2649 72.5453 58.2609C72.1715 58.2592 71.8915 58.1645 71.7054 57.9767C71.5195 57.7623 71.387 57.5213 71.3081 57.2539C71.2293 56.9598 71.1906 56.6659 71.1919 56.3721C71.1934 56.0517 71.1946 55.7847 71.1955 55.571C71.1967 55.304 71.211 55.1038 71.2383 54.9704C70.5945 55.6084 70.0181 56.1132 69.509 56.4847C69.0268 56.8297 68.5717 57.0814 68.1437 57.2397C67.7424 57.3981 67.3414 57.4898 66.9407 57.5147C66.5668 57.5397 66.1661 57.5512 65.7389 57.5493C64.2969 57.5428 63.1904 57.1373 62.4196 56.3327C61.6755 55.5282 61.307 54.3382 61.3141 52.7626C61.3149 52.5757 61.3159 52.3621 61.317 52.1217C61.3181 51.8814 61.3327 51.6011 61.3608 51.2807C61.3346 51.1738 61.322 51.0002 61.3231 50.7598C61.3247 50.4127 61.3395 50.0923 61.3675 49.7987C61.3957 49.4783 61.4507 49.1047 61.5328 48.6778C61.6416 48.2243 61.7776 47.6775 61.9407 47.0373C62.1307 46.3705 62.3748 45.5171 62.6733 44.477C62.9683 44.1845 63.3028 44.0392 63.6767 44.0409C64.0238 44.0424 64.3171 44.1372 64.5566 44.3252C64.7961 44.5132 64.915 44.7942 64.9134 45.168C64.9128 45.3015 64.8581 45.5817 64.7493 46.0085C64.6673 46.4354 64.5717 46.9023 64.4626 47.4092C64.3535 47.9161 64.2444 48.423 64.1353 48.9299C64.0531 49.4102 64.0113 49.7838 64.0101 50.0509L64.0092 50.2512C63.9541 50.6248 63.8992 50.9717 63.8443 51.2919C63.8162 51.6122 63.8016 51.8792 63.8006 52.0928C63.7969 52.9207 63.9539 53.6424 64.2716 54.258C64.6161 54.8471 65.2557 55.1437 66.1903 55.1479C66.8045 55.1507 67.3792 55.0198 67.9145 54.7551C68.4498 54.4905 68.9319 54.1722 69.3609 53.8003C69.7899 53.4016 70.1657 52.976 70.4882 52.5235C70.8108 52.0443 71.0531 51.6048 71.2152 51.2049C71.2709 50.6978 71.367 50.0974 71.5037 49.4037C71.6404 48.6832 71.8177 47.8562 72.0356 46.9225C72.0096 46.7622 71.997 46.6019 71.9977 46.4417C71.9984 46.2814 71.9991 46.1346 71.9997 46.001C72.0011 45.6806 72.0159 45.3602 72.0441 45.0399C72.099 44.693 72.1671 44.3995 72.2483 44.1596C72.3563 43.893 72.5042 43.68 72.6918 43.5206C72.8796 43.3346 73.1337 43.2422 73.4541 43.2437C74.0416 43.2463 74.401 43.4883 74.5324 43.9695ZM87.4746 54.3224C87.391 55.0965 87.1073 55.8296 86.6235 56.5217L85.1722 58.5581C84.931 58.7706 84.5563 58.9425 84.0483 59.0738C83.5402 59.2317 83.019 59.3495 82.4845 59.4272C81.9767 59.5318 81.509 59.6098 81.0815 59.6613C80.6807 59.7129 80.4669 59.7386 80.4402 59.7385C80.1732 59.7373 79.8263 59.6823 79.3995 59.5736C78.9993 59.4917 78.5991 59.3964 78.1991 59.2878C77.799 59.1792 77.4523 59.0708 77.1591 58.9626C76.8657 58.8812 76.7056 58.8404 76.6789 58.8403L76.6389 58.8401C76.3452 58.8121 76.0251 58.7439 75.6784 58.6355C75.3585 58.5273 75.0386 58.3923 74.7189 58.2306C74.4259 58.0691 74.1863 57.8944 74.0002 57.7067C73.7875 57.4921 73.6817 57.2646 73.6828 57.0243C73.6842 56.7305 73.8323 56.4374 74.1274 56.145C74.4226 55.8259 74.7171 55.667 75.0108 55.6683C77.7031 56.7486 79.8504 57.2924 81.4526 57.2996C82.0401 57.3022 82.5347 57.1843 82.9363 56.9458C83.3647 56.7073 83.6863 56.4551 83.9011 56.189L84.7491 54.6707C84.7507 54.3235 84.6454 53.9759 84.4334 53.6278C84.248 53.2798 83.9823 52.9715 83.6364 52.7029C83.3173 52.4077 82.9445 52.1523 82.5182 51.9368C82.0919 51.7212 81.652 51.5723 81.1984 51.4902C80.6914 51.4078 80.1713 51.2586 79.6382 51.0425C79.1318 50.8266 78.6522 50.5708 78.1996 50.275C77.7736 49.9793 77.4146 49.6572 77.1224 49.3088C76.857 48.9337 76.712 48.5325 76.6872 48.1051C76.6605 48.105 76.6361 47.5975 76.6139 46.5826C76.6691 46.1823 76.724 45.8621 76.7785 45.622C76.833 45.3819 76.9541 45.1688 77.1419 44.9827C77.3298 44.7699 77.6112 44.5442 77.9861 44.3056C78.3878 44.067 78.9501 43.7224 79.6732 43.2717C79.8869 43.2459 80.2742 43.221 80.8351 43.1968C81.4229 43.146 82.211 43.0695 83.1995 42.9671C83.6268 42.969 84.7202 43.2944 86.4798 43.9432C86.7458 44.1848 86.8777 44.5459 86.8755 45.0265C86.8718 45.8544 86.5895 46.267 86.0287 46.2645C86.002 46.2644 85.9753 46.2642 85.9486 46.2641C85.922 46.2373 85.882 46.2238 85.8286 46.2235L84.3888 45.7364C83.6687 45.5195 83.055 45.4099 82.5476 45.4076C81.7999 45.4043 81.1989 45.4416 80.7446 45.5197C80.3169 45.5979 79.996 45.7032 79.7818 45.8358C79.5677 45.9417 79.4203 46.0612 79.3395 46.1943C79.2588 46.3275 79.2049 46.4474 79.1777 46.5541C79.1773 46.6342 79.1636 46.7143 79.1366 46.7943C79.1363 46.8477 79.136 46.9144 79.1357 46.9945C79.131 48.036 79.5553 48.6788 80.4088 48.923C84.6242 49.7965 86.9794 51.5963 87.4746 54.3224ZM99.0798 43.9599C99.2927 44.1211 99.3982 44.4286 99.3961 44.8826C99.3925 45.6837 99.0569 46.0828 98.3893 46.0798L98.2291 46.0791C98.2291 46.0791 98.0287 46.1049 97.6279 46.1565C97.2539 46.1815 96.8264 46.2196 96.3455 46.2709C95.8646 46.3221 95.397 46.3868 94.9427 46.4648C94.5152 46.5163 94.2612 46.5686 94.1809 46.6216L94.1791 47.0222C94.1778 47.3159 94.1493 47.7164 94.0936 48.2235C94.038 48.7039 94.0093 49.1444 94.0075 49.545C94.0069 49.6785 94.0063 49.812 94.0057 49.9456C94.0318 50.0792 94.0579 50.2128 94.084 50.3465C93.9757 50.6665 93.9199 51.2003 93.9166 51.948C93.9387 52.9629 93.962 53.7241 93.9864 54.2316C94.0109 54.7124 94.0894 55.0732 94.2219 55.3142C94.3543 55.5551 94.5805 55.7431 94.9003 55.878C95.2201 56.013 95.6866 56.2154 96.2996 56.4852C96.9395 56.7017 97.2583 57.077 97.2559 57.6111C97.2543 57.9582 97.1194 58.2514 96.8513 58.4905C96.6099 58.7297 96.2889 58.8485 95.8884 58.8467C95.7014 58.8458 95.4212 58.8045 95.0477 58.7227C94.6742 58.6409 94.2875 58.5324 93.8875 58.397C93.5144 58.2351 93.168 58.06 92.8484 57.8716C92.5289 57.6565 92.3163 57.4286 92.2106 57.1878C91.8933 56.492 91.6426 55.8233 91.4585 55.1816C91.2746 54.5131 91.1843 53.8184 91.1875 53.0974C91.1909 52.3497 91.2068 51.7889 91.2352 51.4152C91.2635 51.0415 91.2916 50.7478 91.3192 50.5343C91.3469 50.3208 91.3744 50.134 91.4019 49.9739C91.4294 49.7871 91.4439 49.5335 91.4454 49.213C91.4463 48.9994 91.4339 48.7857 91.4082 48.5719C91.4093 48.3316 91.4103 48.1046 91.4112 47.891C91.4126 47.5972 91.4136 47.3569 91.4145 47.17C91.4422 46.9565 91.4696 46.783 91.4969 46.6496C90.7757 46.6998 89.7066 46.9086 88.2896 47.2761C87.8623 47.2742 87.4889 47.1657 87.1694 46.9506C86.85 46.7355 86.6911 46.4277 86.6929 46.0271C86.6934 45.9203 86.7341 45.7736 86.8151 45.5871C86.896 45.4005 87.0303 45.2275 87.218 45.0681C87.4325 44.8822 87.7135 44.7366 88.0611 44.6313C88.4356 44.4995 88.8899 44.4347 89.4239 44.4372L89.6643 44.4382C90.2518 44.4409 90.9333 44.3238 91.7088 44.0869C91.7089 44.0602 91.7094 43.9534 91.7102 43.7665C91.7379 43.553 91.7522 43.326 91.7533 43.0857C91.7812 42.8188 91.7957 42.5652 91.7968 42.3248C91.8246 42.0846 91.8387 41.9111 91.8392 41.8043L91.8401 41.604C91.8681 41.3104 91.9234 40.8967 92.0059 40.363C92.0886 39.8025 92.2112 39.2557 92.3738 38.7223C92.5366 38.1622 92.739 37.6825 92.9812 37.283C93.25 36.8836 93.5714 36.6848 93.9452 36.6865C94.6662 36.6897 95.1054 37.0121 95.2627 37.6538C95.2625 37.7072 95.2216 37.8939 95.14 38.214C95.0852 38.5342 95.0168 38.8944 94.9349 39.2946C94.853 39.6948 94.7711 40.0817 94.6893 40.4552C94.6075 40.8287 94.5664 41.0688 94.5659 41.1756C94.5657 41.229 94.5517 41.3759 94.5239 41.6161C94.4961 41.8563 94.4682 42.1232 94.4402 42.4168C94.4388 42.7106 94.4242 43.0043 94.3961 43.2979C94.3681 43.5915 94.3538 43.8051 94.3532 43.9386C94.2998 43.9384 94.6605 43.8999 95.4352 43.8233C95.5688 43.8239 95.6889 43.8244 95.7957 43.8249C95.9294 43.7988 96.0496 43.786 96.1564 43.7865C96.2365 43.7868 96.3032 43.8005 96.3565 43.8274C96.4099 43.8277 96.4634 43.8279 96.5168 43.8282C96.7572 43.8025 96.9843 43.7902 97.1979 43.7912C97.4116 43.7654 97.612 43.753 97.7989 43.7538C98.3864 43.7565 98.8134 43.8252 99.0798 43.9599ZM113.839 54.8016C114.212 55.0436 114.398 55.3382 114.396 55.6854C114.394 56.0592 114.206 56.4189 113.83 56.7644C113.455 57.1098 113.094 57.2818 112.747 57.2802C111.92 56.9828 111.201 56.4321 110.591 55.6282C110.007 54.8244 109.61 53.9547 109.401 53.0191C109.212 53.4189 108.983 53.9252 108.713 54.5382C108.47 55.1246 108.147 55.6839 107.744 56.2162C107.341 56.7485 106.845 57.2136 106.256 57.6115C105.667 57.9827 104.931 58.1664 104.05 58.1624C103.596 58.1603 102.996 58.0775 102.249 57.9139C101.424 57.3227 100.771 56.8525 100.292 56.5031C99.84 56.1272 99.4945 55.7785 99.2556 55.457C99.0167 55.1355 98.8714 54.7743 98.8198 54.3735C98.7682 53.9727 98.7439 53.4385 98.7469 52.7709C98.7494 52.2101 98.8323 51.5963 98.9955 50.9294C99.1856 50.2359 99.4424 49.5428 99.766 48.8499C100.09 48.157 100.493 47.4779 100.977 46.8125C101.461 46.147 102.024 45.5353 102.668 44.9774C103.844 44.5822 104.767 44.2926 105.435 44.1087C106.104 43.9247 106.558 43.8333 106.799 43.8344C107.335 43.2226 107.898 42.918 108.485 42.9207C108.805 42.9221 109.085 43.1103 109.324 43.4852C109.562 43.8602 109.774 44.3552 109.958 44.9702C110.169 45.5587 110.326 46.2136 110.43 46.9351C110.56 47.6567 110.664 48.3515 110.741 49.0195C110.82 49.1534 110.886 49.3139 110.939 49.501C110.992 49.6615 111.044 49.8754 111.096 50.1427L111.332 51.2653C111.488 52.0405 111.792 52.7094 112.244 53.2723C112.695 53.8351 113.227 54.3449 113.839 54.8016ZM108.215 49.4888C108.163 49.2482 108.071 48.8472 107.94 48.2858C107.809 47.7245 107.639 47.0027 107.429 46.1205C107.108 46.1991 106.761 46.2376 106.387 46.236C106.013 46.2076 105.613 46.2725 105.185 46.4308C104.757 46.5891 104.288 46.8808 103.779 47.3057C103.296 47.7308 102.799 48.3962 102.288 49.3019C101.641 50.474 101.315 51.7143 101.309 53.0228C101.468 53.3706 101.614 53.6784 101.746 53.946C101.878 54.187 102.038 54.4147 102.224 54.6292C102.436 54.817 102.689 55.0051 102.982 55.1934C103.275 55.3816 103.648 55.5836 104.101 55.7993C104.502 55.7209 104.836 55.629 105.104 55.5234C105.398 55.4179 105.652 55.2588 105.867 55.0461C106.082 54.8068 106.283 54.5139 106.472 54.1676C106.66 53.8213 106.889 53.3683 107.159 52.8088C107.86 51.263 108.212 50.1564 108.215 49.4888ZM119.624 40.5674C119.622 41.0214 119.54 41.3949 119.379 41.6879C119.244 41.9543 119.056 42.1538 118.815 42.2862C118.574 42.4186 118.307 42.5109 118.013 42.563C117.746 42.5885 117.479 42.6006 117.212 42.5994C116.839 42.3307 116.52 42.0355 116.254 41.7139C116.016 41.3656 115.897 41.0313 115.898 40.7109C115.899 40.4705 116.007 40.204 116.222 39.9112C116.437 39.5917 116.626 39.2854 116.787 38.9924L118.629 39.1609C119.296 39.3242 119.628 39.793 119.624 40.5674ZM118.236 46.3694L118.235 46.5296C118.234 46.77 118.193 47.1703 118.11 47.7308C118.054 48.2646 117.957 48.9718 117.82 49.8525C117.846 49.9861 117.859 50.1731 117.857 50.4134C117.857 50.5737 117.802 50.9339 117.692 51.4942C117.583 52.0545 117.527 52.535 117.526 52.9355C117.525 53.0156 117.525 53.0958 117.525 53.1759C117.551 53.2561 117.564 53.3229 117.564 53.3763C117.482 53.7498 117.439 54.2837 117.436 54.978C117.435 55.2718 117.434 55.5922 117.432 55.9394C117.457 56.2599 117.482 56.6072 117.507 56.9812C117.29 57.7547 116.875 58.14 116.26 58.1372C115.726 58.1348 115.354 57.8528 115.143 57.291C114.958 56.7027 114.868 55.9412 114.873 55.0065C114.877 54.0719 114.907 53.2175 114.964 52.4433C115.048 51.6693 115.145 50.9487 115.254 50.2816C115.364 49.5877 115.474 48.934 115.584 48.3202C115.72 47.68 115.843 47.0529 115.953 46.4392C116.221 46.0399 116.596 45.8413 117.077 45.8434C117.584 45.8457 117.971 46.021 118.236 46.3694ZM134.955 54.6563L134.953 54.9768C134.953 55.1103 134.951 55.3773 134.949 55.7779C134.975 56.1519 134.946 56.539 134.864 56.9392C134.782 57.3394 134.634 57.6992 134.419 58.0187C134.23 58.3383 133.922 58.4971 133.495 58.4952C132.721 58.4917 132.255 58.1825 132.097 57.5676C132.125 57.3541 132.139 57.1272 132.141 56.8868C132.168 56.6199 132.183 56.3396 132.184 56.0458C132.187 55.5385 132.163 54.9642 132.112 54.3231C132.088 53.6821 132.051 52.9742 132.001 52.1996L131.69 50.2754C131.586 49.634 131.414 49.1392 131.176 48.791C130.937 48.4161 130.671 48.1478 130.378 47.9863C130.085 47.798 129.779 47.6898 129.458 47.6617C129.165 47.6069 128.911 47.5791 128.697 47.5781C127.896 47.5745 127.214 47.8118 126.651 48.29C126.089 48.7414 125.617 49.6472 125.237 51.0075C125.208 51.4613 125.166 51.9552 125.11 52.489C125.081 53.023 125.012 53.6101 124.902 54.2506C124.951 55.2121 125.026 56.4409 125.126 57.9368C125.122 58.7646 124.653 59.1764 123.718 59.1722C123.344 59.1705 123.051 59.0624 122.839 58.8478C122.653 58.6333 122.507 58.3656 122.401 58.0447C122.323 57.6972 122.271 57.3364 122.246 56.9625C122.221 56.5885 122.209 56.2413 122.211 55.9208C122.212 55.6271 122.227 55.3334 122.255 55.0398C122.283 54.7462 122.324 54.4392 122.379 54.119L122.758 49.9949C122.786 49.7013 122.828 49.381 122.883 49.0341C122.964 48.6873 123.06 48.3005 123.168 47.8737C123.091 47.2859 122.854 46.5905 122.457 45.7875L122.457 45.6273C122.459 45.3336 122.593 45.0538 122.862 44.7879C123.157 44.5222 123.491 44.3902 123.865 44.3919C124.239 44.3936 124.545 44.5285 124.784 44.7966C125.024 45.038 125.329 45.4533 125.7 46.0425C125.915 45.8565 126.263 45.6845 126.744 45.5264C127.252 45.3418 127.827 45.2509 128.468 45.2538C129.91 45.2603 131.15 45.573 132.189 46.1919C133.227 46.8107 133.89 47.9086 134.177 49.4855C134.254 50.1 134.319 50.6077 134.37 51.0085C134.422 51.3826 134.474 51.7434 134.525 52.0907C134.604 52.4116 134.669 52.7724 134.721 53.1732C134.799 53.5474 134.877 54.0418 134.955 54.6563ZM151.842 54.9727C152.215 55.2147 152.401 55.5093 152.399 55.8564C152.398 56.2303 152.209 56.59 151.834 56.9354C151.458 57.2809 151.097 57.4528 150.75 57.4513C149.923 57.1538 149.205 56.6031 148.594 55.7992C148.01 54.9955 147.614 54.1258 147.404 53.1902C147.215 53.5899 146.986 54.0963 146.716 54.7093C146.473 55.2957 146.15 55.855 145.747 56.3873C145.344 56.9196 144.848 57.3847 144.259 57.7826C143.67 58.1538 142.935 58.3374 142.053 58.3334C141.599 58.3314 140.999 58.2486 140.252 58.085C139.427 57.4938 138.775 57.0235 138.296 56.6742C137.843 56.2983 137.498 55.9496 137.259 55.6281C137.02 55.3065 136.875 54.9454 136.823 54.5446C136.771 54.1438 136.747 53.6096 136.75 52.942C136.753 52.3812 136.836 51.7673 136.999 51.1005C137.189 50.407 137.446 49.7138 137.769 49.021C138.093 48.3281 138.496 47.649 138.98 46.9835C139.464 46.3181 140.027 45.7064 140.671 45.1485C141.847 44.7532 142.77 44.4636 143.439 44.2797C144.107 44.0958 144.561 44.0044 144.802 44.0055C145.339 43.3937 145.901 43.0891 146.488 43.0917C146.809 43.0932 147.088 43.2814 147.327 43.6563C147.566 44.0312 147.777 44.5262 147.961 45.1413C148.172 45.7297 148.329 46.3847 148.433 47.1062C148.563 47.8278 148.667 48.5226 148.744 49.1905C148.824 49.3244 148.89 49.4849 148.942 49.6721C148.995 49.8326 149.047 50.0465 149.099 50.3137L149.335 51.4364C149.491 52.2115 149.796 52.8805 150.247 53.4433C150.698 54.0062 151.23 54.5159 151.842 54.9727ZM146.218 49.6599C146.166 49.4193 146.074 49.0183 145.943 48.4569C145.812 47.8955 145.642 47.1737 145.432 46.2915C145.112 46.3702 144.764 46.4087 144.39 46.407C144.017 46.3786 143.616 46.4436 143.188 46.6019C142.76 46.7602 142.291 47.0518 141.782 47.4768C141.299 47.9019 140.802 48.5673 140.291 49.4729C139.645 50.645 139.319 51.8853 139.313 53.1938C139.471 53.5417 139.617 53.8495 139.749 54.1171C139.882 54.358 140.041 54.5857 140.227 54.8002C140.439 54.9881 140.692 55.1762 140.985 55.3644C141.278 55.5527 141.651 55.7546 142.104 55.9703C142.505 55.892 142.839 55.8 143.107 55.6944C143.401 55.5889 143.655 55.4299 143.87 55.2172C144.085 54.9778 144.286 54.685 144.475 54.3387C144.663 53.9923 144.892 53.5394 145.162 52.9798C145.863 51.4341 146.215 50.3275 146.218 49.6599ZM165.006 47.7416C165.642 48.9996 165.957 50.1359 165.952 51.1507C165.924 51.5244 165.882 51.9114 165.827 52.3118C165.772 52.6854 165.65 53.0587 165.461 53.4317L164.572 55.3104L163.324 56.6266C162.412 57.4771 161.555 58.0474 160.753 58.3375C159.95 58.6009 159.282 58.7315 158.748 58.7291C158.054 58.7259 157.294 58.4688 156.468 57.9577C156.226 58.3839 155.838 58.5958 155.304 58.5934C154.903 58.5916 154.49 58.4695 154.064 58.2273C154.092 57.8535 154.107 57.4397 154.109 56.9857C154.138 56.5052 154.154 55.9845 154.156 55.4237C154.13 55.3702 154.104 55.1698 154.079 54.8225C154.054 54.4485 154.016 54.0077 153.965 53.5001C153.94 52.9926 153.903 52.4584 153.852 51.8973C153.801 51.3096 153.75 50.7753 153.699 50.2944C153.648 49.7868 153.596 49.3593 153.544 49.0119C153.493 48.6378 153.454 48.424 153.427 48.3704L152.888 43.6012C152.759 42.4524 152.59 41.4635 152.38 40.6347C152.171 39.8059 152.066 39.2046 152.068 38.8308C152.073 37.8427 152.502 37.3506 153.357 37.3545C153.891 37.3569 154.304 37.559 154.596 37.9609C154.914 38.3629 155.138 39.165 155.266 40.3673C155.316 40.9818 155.381 41.5028 155.459 41.9304C155.537 42.3313 155.603 42.6521 155.655 42.8927L155.654 43.0128C155.654 43.0929 155.666 43.3734 155.691 43.8542C155.742 44.3351 155.78 44.8427 155.804 45.3769C155.855 45.8845 155.893 46.352 155.918 46.7794C155.969 47.1802 155.995 47.3539 155.996 47.3004C156.585 46.8758 157.094 46.5443 157.522 46.3059C157.977 46.0409 158.406 45.8559 158.807 45.7509C159.234 45.6193 159.662 45.5411 160.089 45.5163C160.517 45.4648 161.024 45.4404 161.612 45.4431L163.212 45.971C164.011 46.3752 164.609 46.9654 165.006 47.7416ZM163.062 52.5397C163.226 51.7393 163.309 51.1521 163.31 50.7783C163.311 50.5913 163.259 50.3374 163.154 50.0165C163.048 49.6688 162.89 49.3477 162.677 49.053C162.465 48.7316 162.199 48.4633 161.88 48.2482C161.56 48.0065 161.187 47.8846 160.76 47.8827C160.279 47.8805 159.637 48.0913 158.834 48.5149C158.058 48.912 157.282 49.3358 156.505 49.7863C156.633 50.9618 156.746 52.618 156.843 54.7548C157.159 55.771 157.691 56.2808 158.439 56.2842C158.893 56.2862 159.561 56.1023 160.444 55.7324L162.053 54.3377C162.616 53.7527 162.953 53.1534 163.062 52.5397ZM172.564 40.8057C172.562 41.2597 172.48 41.6332 172.319 41.9262C172.184 42.1926 171.996 42.3921 171.755 42.5245C171.514 42.6569 171.247 42.7492 170.953 42.8013C170.686 42.8268 170.418 42.8389 170.151 42.8377C169.779 42.569 169.46 42.2738 169.194 41.9522C168.955 41.6039 168.837 41.2696 168.838 40.9492C168.839 40.7088 168.947 40.4423 169.162 40.1495C169.377 39.83 169.565 39.5237 169.727 39.2307L171.569 39.3992C172.236 39.5625 172.567 40.0313 172.564 40.8057ZM171.176 46.6077L171.175 46.7679C171.174 47.0083 171.132 47.4086 171.05 47.9691C170.994 48.5029 170.897 49.2101 170.76 50.0908C170.786 50.2244 170.798 50.4114 170.797 50.6517C170.796 50.812 170.741 51.1722 170.632 51.7325C170.523 52.2928 170.467 52.7733 170.465 53.1738C170.465 53.2539 170.465 53.3341 170.464 53.4142C170.491 53.4944 170.504 53.5612 170.503 53.6146C170.422 53.9881 170.379 54.522 170.376 55.2163C170.375 55.5101 170.373 55.8305 170.372 56.1777C170.397 56.4982 170.422 56.8455 170.447 57.2195C170.23 57.9929 169.814 58.3783 169.2 58.3755C168.666 58.3731 168.294 58.0911 168.082 57.5293C167.898 56.941 167.808 56.1795 167.812 55.2448C167.817 54.3102 167.847 53.4558 167.904 52.6816C167.988 51.9076 168.084 51.187 168.194 50.5199C168.304 49.826 168.414 49.1723 168.523 48.5585C168.66 47.9183 168.783 47.2912 168.892 46.6775C169.161 46.2782 169.536 46.0796 170.017 46.0817C170.524 46.084 170.91 46.2593 171.176 46.6077ZM179.88 37.7543C179.852 38.0479 179.797 38.4081 179.715 38.835C179.633 39.2619 179.537 39.7021 179.429 40.1556C179.32 40.5824 179.211 40.9958 179.102 41.3959C179.021 41.7961 178.952 42.1163 178.898 42.3564C178.924 42.49 178.937 42.6102 178.936 42.7171C178.936 42.8239 178.935 42.944 178.935 43.0776C178.934 43.2912 178.906 43.5715 178.851 43.9184C178.796 44.2653 178.727 44.6255 178.646 44.999C178.564 45.3725 178.495 45.7327 178.44 46.0796C178.386 46.3998 178.358 46.6534 178.357 46.8403C178.356 47.1073 178.354 47.4946 178.352 48.0019C178.376 48.5094 178.387 49.0703 178.384 49.6845C178.382 50.272 178.352 50.886 178.296 51.5267C178.239 52.1673 178.143 52.7411 178.008 53.2478C178.033 53.5684 178.045 53.8889 178.043 54.2094C178.042 54.5298 178.067 54.8771 178.119 55.2512C178.197 55.5987 178.316 55.9864 178.474 56.4144C178.659 56.8425 178.951 57.2978 179.349 57.7803C179.268 58.0737 179.013 58.3529 178.584 58.6181C178.183 58.8566 177.768 58.9749 177.341 58.973C176.78 58.9704 176.314 58.6612 175.943 58.0454C175.599 57.4029 175.431 56.2405 175.438 54.5581C175.439 54.2644 175.454 54.0108 175.482 53.7973C175.536 53.5572 175.564 53.2769 175.565 52.9564C175.568 52.2888 175.492 51.4874 175.336 50.552C175.444 50.2854 175.526 49.9119 175.581 49.4315C175.664 48.9512 175.719 48.4841 175.748 48.0303C175.777 47.5497 175.792 47.1492 175.793 46.8288C175.822 46.4817 175.836 46.3216 175.836 46.3483C175.836 46.3216 175.863 46.1081 175.919 45.7077C176 45.3075 176.083 44.8272 176.165 44.2668C176.248 43.7064 176.317 43.1459 176.373 42.5853C176.456 41.9982 176.498 41.5311 176.5 41.1839L176.501 40.8635C176.583 40.3832 176.679 39.8495 176.789 39.2625C176.898 38.6755 177.021 38.0351 177.158 37.3414C177.4 36.942 177.802 36.7435 178.362 36.746C179.057 36.7491 179.562 37.0852 179.88 37.7543ZM187.455 40.8727C187.453 41.3267 187.371 41.7002 187.21 41.9932C187.075 42.2597 186.887 42.4591 186.646 42.5915C186.405 42.724 186.138 42.8162 185.844 42.8683C185.577 42.8938 185.31 42.906 185.043 42.9048C184.67 42.636 184.351 42.3409 184.085 42.0192C183.846 41.671 183.728 41.3366 183.729 41.0162C183.73 40.7758 183.838 40.5093 184.053 40.2165C184.268 39.897 184.457 39.5908 184.618 39.2977L186.46 39.4663C187.127 39.6295 187.459 40.0983 187.455 40.8727ZM186.067 46.6747L186.066 46.835C186.065 47.0753 186.023 47.4757 185.941 48.0361C185.885 48.5699 185.788 49.2772 185.651 50.1578C185.677 50.2914 185.689 50.4784 185.688 50.7188C185.688 50.879 185.633 51.2393 185.523 51.7996C185.414 52.3599 185.358 52.8403 185.357 53.2409C185.356 53.321 185.356 53.4011 185.355 53.4812C185.382 53.5614 185.395 53.6282 185.395 53.6817C185.313 54.0552 185.27 54.5891 185.267 55.2834C185.266 55.5771 185.264 55.8976 185.263 56.2447C185.288 56.5653 185.313 56.9125 185.338 57.2865C185.121 58.06 184.706 58.4453 184.091 58.4426C183.557 58.4402 183.185 58.1581 182.974 57.5963C182.789 57.008 182.699 56.2465 182.703 55.3119C182.708 54.3772 182.738 53.5228 182.795 52.7486C182.879 51.9746 182.975 51.254 183.085 50.5869C183.195 49.8931 183.305 49.2393 183.415 48.6256C183.551 47.9853 183.674 47.3583 183.784 46.7446C184.052 46.3452 184.427 46.1466 184.908 46.1488C185.415 46.1511 185.802 46.3264 186.067 46.6747ZM199.829 44.4134C200.042 44.5746 200.147 44.8821 200.145 45.3361C200.141 46.1372 199.806 46.5363 199.138 46.5333L198.978 46.5326C198.978 46.5326 198.778 46.5584 198.377 46.61C198.003 46.635 197.575 46.6731 197.094 46.7244C196.613 46.7756 196.146 46.8403 195.692 46.9183C195.264 46.9698 195.01 47.0221 194.93 47.0751L194.928 47.4757C194.927 47.7694 194.898 48.1699 194.842 48.677C194.787 49.1574 194.758 49.5979 194.756 49.9985C194.756 50.132 194.755 50.2655 194.755 50.3991C194.781 50.5327 194.807 50.6663 194.833 50.8C194.725 51.12 194.669 51.6538 194.665 52.4015C194.688 53.4164 194.711 54.1776 194.735 54.6851C194.76 55.1659 194.838 55.5267 194.971 55.7677C195.103 56.0086 195.329 56.1966 195.649 56.3315C195.969 56.4665 196.435 56.6689 197.048 56.9387C197.688 57.1552 198.007 57.5305 198.005 58.0646C198.003 58.4117 197.868 58.7049 197.6 58.944C197.359 59.1832 197.038 59.302 196.637 59.3002C196.45 59.2993 196.17 59.258 195.797 59.1762C195.423 59.0944 195.036 58.9859 194.636 58.8505C194.263 58.6886 193.917 58.5135 193.597 58.3251C193.278 58.11 193.065 57.8821 192.959 57.6413C192.642 56.9455 192.391 56.2768 192.207 55.6351C192.023 54.9666 191.933 54.2719 191.936 53.5509C191.94 52.8032 191.956 52.2424 191.984 51.8687C192.012 51.495 192.04 51.2013 192.068 50.9878C192.096 50.7743 192.123 50.5875 192.151 50.4274C192.178 50.2406 192.193 49.987 192.194 49.6665C192.195 49.4529 192.183 49.2392 192.157 49.0254C192.158 48.7851 192.159 48.5581 192.16 48.3445C192.161 48.0507 192.162 47.8104 192.163 47.6235C192.191 47.41 192.218 47.2365 192.246 47.1031C191.525 47.1533 190.455 47.3621 189.038 47.7296C188.611 47.7277 188.238 47.6192 187.918 47.4041C187.599 47.189 187.44 46.8812 187.442 46.4806C187.442 46.3738 187.483 46.2271 187.564 46.0406C187.645 45.854 187.779 45.681 187.967 45.5216C188.181 45.3357 188.462 45.1901 188.81 45.0848C189.184 44.953 189.639 44.8882 190.173 44.8907L190.413 44.8917C191.001 44.8944 191.682 44.7773 192.458 44.5404C192.458 44.5137 192.458 44.4069 192.459 44.22C192.487 44.0065 192.501 43.7795 192.502 43.5392C192.53 43.2723 192.545 43.0187 192.546 42.7783C192.573 42.5381 192.588 42.3646 192.588 42.2578L192.589 42.0575C192.617 41.7639 192.672 41.3502 192.755 40.8165C192.837 40.256 192.96 39.7092 193.123 39.1758C193.285 38.6157 193.488 38.136 193.73 37.7365C193.999 37.3371 194.32 37.1383 194.694 37.14C195.415 37.1432 195.854 37.4656 196.012 38.1073C196.011 38.1607 195.97 38.3474 195.889 38.6675C195.834 38.9877 195.766 39.3479 195.684 39.7481C195.602 40.1483 195.52 40.5352 195.438 40.9087C195.356 41.2822 195.315 41.5223 195.315 41.6291C195.315 41.6825 195.3 41.8294 195.273 42.0696C195.245 42.3098 195.217 42.5767 195.189 42.8703C195.188 43.1641 195.173 43.4578 195.145 43.7514C195.117 44.045 195.103 44.2586 195.102 44.3921C195.049 44.3919 195.409 44.3534 196.184 44.2768C196.318 44.2774 196.438 44.2779 196.545 44.2784C196.678 44.2523 196.798 44.2395 196.905 44.24C196.985 44.2403 197.052 44.254 197.105 44.2809C197.159 44.2812 197.212 44.2814 197.266 44.2817C197.506 44.256 197.733 44.2437 197.947 44.2447C198.16 44.2189 198.361 44.2065 198.548 44.2073C199.135 44.21 199.562 44.2787 199.829 44.4134ZM214.265 47.042C214.235 47.576 214.166 48.0563 214.058 48.4831C213.949 48.8832 213.787 49.2964 213.571 49.7227C213.383 50.1491 213.154 50.6154 212.884 51.1216C212.642 51.6012 212.372 52.2008 212.075 52.9205C211.91 53.9612 211.599 54.9212 211.141 55.8004C210.709 56.6797 210.225 57.5187 209.687 58.3174C209.176 59.1163 208.665 59.8884 208.155 60.6338C207.644 61.406 207.253 62.192 206.982 62.9919C206.553 63.5775 206.216 64.0834 205.974 64.5095C205.732 64.9624 205.503 65.3887 205.288 65.7883C205.072 66.1879 204.817 66.5873 204.521 66.9865C204.225 67.4125 203.796 67.9046 203.233 68.4628C203.072 68.5155 202.912 68.5415 202.752 68.5408C202.404 68.5392 202.071 68.4309 201.752 68.2158C201.459 68.0276 201.313 67.7866 201.314 67.4928C201.315 67.3326 201.369 67.186 201.476 67.0529L204.098 63.1792C204.179 62.9392 204.341 62.5928 204.583 62.1399C204.825 61.687 205.095 61.1942 205.391 60.6614C205.687 60.1287 205.97 59.6092 206.239 59.103C206.508 58.5702 206.684 58.1437 206.765 57.8236C206.579 57.7159 206.353 57.5413 206.087 57.2998C205.821 57.0316 205.542 56.7633 205.249 56.4949C204.957 56.1998 204.664 55.9315 204.372 55.6898C204.106 55.4216 203.853 55.2335 203.613 55.1256C203.135 54.4558 202.75 54.0001 202.458 53.7585C202.192 53.4902 201.913 53.2219 201.62 52.9536C201.327 52.6852 200.982 52.2964 200.584 51.7872C200.212 51.2515 199.669 50.3811 198.953 49.1762C198.927 49.1227 198.914 49.0425 198.914 48.9357C198.916 48.5885 199.037 48.2553 199.279 47.9359C199.548 47.6167 199.869 47.4579 200.243 47.4596C200.51 47.4608 200.843 47.6625 201.241 48.0649C201.64 48.4673 202.025 48.923 202.397 49.432C202.795 49.9145 203.154 50.3835 203.472 50.8389C203.791 51.2676 203.99 51.5355 204.069 51.6427C204.229 51.8036 204.468 52.0718 204.787 52.4471C205.132 52.8225 205.504 53.2114 205.903 53.6137C206.302 54.0161 206.687 54.3917 207.06 54.7405C207.459 55.0895 207.778 55.3179 208.018 55.4258C208.233 55.1597 208.516 54.5735 208.867 53.6671C209.245 52.7342 209.637 51.7746 210.042 50.7883C210.339 50.0419 210.663 49.2957 211.013 48.5495C211.39 47.7768 211.607 47.0834 211.663 46.4695C212.119 46.1778 212.56 46.0329 212.987 46.0348C213.735 46.0382 214.161 46.3739 214.265 47.042ZM238.085 46.268L235.881 46.4183C235.694 46.4174 235.36 46.4693 234.879 46.574C234.425 46.6521 234.024 46.6903 233.677 46.6888C233.701 47.1695 233.739 47.7706 233.789 48.4918C233.866 49.2132 233.929 49.9478 233.979 50.6958C234.056 51.4439 234.133 52.1385 234.21 52.7798C234.287 53.4211 234.352 53.9154 234.404 54.2628C234.376 54.3962 234.349 54.5696 234.321 54.7831C234.32 54.9968 234.319 55.2505 234.318 55.5442C234.314 56.3186 234.35 57.3469 234.424 58.6291C234.048 59.1882 233.526 59.4662 232.858 59.4632C232.244 59.4604 231.818 59.1781 231.58 58.6163C231.581 58.3759 231.582 58.1089 231.584 57.8151C231.612 57.4948 231.627 57.1477 231.629 56.7739C231.63 56.4 231.619 55.986 231.594 55.5319C231.596 55.0513 231.599 54.5439 231.601 54.0098L231.602 53.7695C231.604 53.3956 231.566 52.9415 231.488 52.407C231.41 51.8726 231.306 51.2579 231.176 50.563L230.912 46.9166C230.698 46.9157 230.404 46.9411 230.03 46.9928C229.683 47.0446 229.242 47.1228 228.707 47.2272C228.627 47.2268 228.547 47.2265 228.467 47.2261C228.414 47.1992 228.347 47.1855 228.267 47.1851C228.027 47.1841 227.813 47.2098 227.626 47.2624C227.439 47.2882 227.358 47.2879 227.385 47.2613C226.772 47.125 226.467 46.6964 226.47 45.9753C226.473 45.3344 226.768 44.9619 227.356 44.8577C227.383 44.8579 227.409 44.8713 227.436 44.8982C227.489 44.8984 227.543 44.8986 227.596 44.8989C227.73 44.8995 227.89 44.8868 228.077 44.861C228.291 44.8352 228.491 44.8094 228.678 44.7836C228.865 44.731 229.012 44.6916 229.119 44.6654C229.253 44.6393 229.307 44.6262 229.28 44.6261C229.467 44.5735 229.681 44.5344 229.921 44.5088C230.162 44.4832 230.456 44.4578 230.803 44.4326L230.5 40.4256L230.502 40.1852C230.506 39.1438 230.966 37.8774 231.881 36.386C232.148 36.227 232.403 36.0813 232.644 35.9489C232.911 35.8165 233.219 35.6978 233.567 35.5925C233.914 35.4605 234.342 35.3423 234.85 35.2378C235.358 35.1332 236.013 35.0294 236.814 34.9261L237.014 34.9271C237.709 34.9302 238.054 35.3457 238.05 36.1735C238.047 36.8144 237.738 37.2403 237.123 37.4511L236.883 37.45C236.482 37.4482 236.068 37.5265 235.64 37.6848L234.516 38.1604C234.061 38.372 233.766 38.6644 233.631 39.0377C233.496 39.3842 233.388 39.7576 233.306 40.1578C233.305 40.1845 233.305 40.3047 233.304 40.5183C233.33 40.7054 233.342 40.9324 233.341 41.1994C233.34 41.4398 233.339 41.6801 233.338 41.9205C233.363 42.1609 233.376 42.3345 233.375 42.4414L233.374 42.7618C233.373 42.9754 233.385 43.2025 233.411 43.4429C233.437 43.6834 233.489 43.9507 233.568 44.2448C234.502 44.249 235.21 44.1854 235.691 44.0541C236.173 43.9227 236.6 43.8579 236.974 43.8596C237.375 43.8614 237.762 43.9432 238.135 44.1051C238.535 44.2404 238.733 44.5751 238.731 45.1092C238.728 45.7234 238.513 46.1097 238.085 46.268ZM249.308 58.4958C248.799 58.8406 247.449 59.2351 245.257 59.6793L243.576 59.3512C243.363 59.2702 242.977 59.0681 242.418 58.7452C241.885 58.4223 241.326 57.9525 240.741 57.3356C240.183 56.7189 239.68 55.9422 239.23 55.0055C238.807 54.069 238.598 52.9598 238.604 51.678C238.609 50.6365 238.906 49.7166 239.498 48.9181C240.089 48.0929 240.987 47.2157 242.193 46.2865C242.835 46.1291 243.463 46.0518 244.077 46.0546C245.866 46.0627 247.506 46.6709 248.996 47.8793C250.27 49.6475 250.902 51.5865 250.892 53.6961C250.885 55.3517 250.357 56.9516 249.308 58.4958ZM245.707 48.7057C245.308 48.517 244.881 48.4216 244.427 48.4195C244.106 48.4181 243.759 48.4966 243.384 48.6552C243.036 48.8138 242.701 49.0527 242.38 49.3717C242.084 49.6908 241.842 50.1036 241.653 50.6102C241.464 51.09 241.368 51.6637 241.365 52.3313C241.362 52.8654 241.427 53.3998 241.558 53.9345C241.716 54.4693 241.94 54.9643 242.232 55.4196C242.551 55.875 242.949 56.2507 243.429 56.5466C243.908 56.8158 244.482 56.9519 245.149 56.9549C245.764 56.9577 246.459 56.8006 247.235 56.4836C247.906 55.6588 248.244 54.6722 248.249 53.524C248.261 50.9871 247.413 49.381 245.707 48.7057ZM263.38 45.8611C263.7 46.0762 263.858 46.4507 263.856 46.9848C263.851 48.0263 263.422 48.5451 262.567 48.5412C262.166 48.5394 261.766 48.4442 261.367 48.2554C260.967 48.0667 260.58 47.9715 260.206 47.9698C259.779 47.9679 259.365 48.0461 258.963 48.2046C258.589 48.3631 258.16 48.6816 257.677 49.1601L256.189 50.5955L256.185 51.4367C256.183 51.8372 256.168 52.2911 256.139 52.7984C256.137 53.2791 256.121 53.7997 256.092 54.3604C256.114 55.3486 256.228 56.6843 256.434 58.3676C256.35 59.3286 255.867 59.8071 254.986 59.8032C254.505 59.801 254.158 59.6793 253.946 59.438C253.76 59.1701 253.628 58.8223 253.55 58.3947C253.472 57.9671 253.434 57.4862 253.436 56.9521C253.439 56.4181 253.414 55.8705 253.364 55.3095C253.391 55.1761 253.405 55.0159 253.406 54.829C253.407 54.6421 253.407 54.4418 253.408 54.2281L253.411 53.5873L253.184 50.6621C253.158 50.5284 253.145 50.4082 253.146 50.3014C253.146 50.1946 253.147 50.0878 253.147 49.9809C253.148 49.7673 253.176 49.5271 253.231 49.2603C252.968 48.2977 252.837 47.5895 252.84 47.1355C252.841 46.7617 252.949 46.4951 253.164 46.3358C253.378 46.1499 253.766 46.0582 254.326 46.0607C254.7 46.0624 254.993 46.1972 255.206 46.4652C255.418 46.7065 255.684 47.0148 256.003 47.3901L257.771 46.1162C258.227 45.7711 258.642 45.546 259.016 45.4409C259.417 45.3359 259.804 45.2842 260.178 45.2859C260.739 45.2884 261.326 45.3578 261.94 45.4941L263.38 45.8611ZM287.329 44.8072C287.542 44.9684 287.648 45.276 287.646 45.73C287.642 46.5311 287.306 46.9302 286.639 46.9271L286.479 46.9264C286.479 46.9264 286.278 46.9522 285.877 47.0038C285.503 47.0289 285.076 47.067 284.595 47.1182C284.114 47.1695 283.646 47.2341 283.192 47.3122C282.765 47.3637 282.511 47.416 282.43 47.469L282.429 47.8696C282.427 48.1633 282.399 48.5637 282.343 49.0709C282.287 49.5513 282.259 49.9918 282.257 50.3924C282.256 50.5259 282.256 50.6594 282.255 50.7929C282.281 50.9266 282.307 51.0602 282.333 51.1939C282.225 51.5138 282.169 52.0477 282.166 52.7954C282.188 53.8103 282.211 54.5714 282.236 55.0789C282.26 55.5597 282.339 55.9206 282.471 56.1615C282.604 56.4025 282.83 56.5904 283.15 56.7254C283.47 56.8603 283.936 57.0627 284.549 57.3325C285.189 57.549 285.508 57.9243 285.505 58.4584C285.504 58.8056 285.369 59.0987 285.101 59.3379C284.859 59.5771 284.538 59.6958 284.138 59.694C283.951 59.6932 283.671 59.6519 283.297 59.5701C282.924 59.4883 282.537 59.3797 282.137 59.2444C281.764 59.0825 281.417 58.9074 281.098 58.719C280.778 58.5039 280.566 58.276 280.46 58.0352C280.143 57.3394 279.892 56.6707 279.708 56.0289C279.524 55.3605 279.434 54.6658 279.437 53.9447C279.44 53.197 279.456 52.6363 279.485 52.2626C279.513 51.8888 279.541 51.5952 279.569 51.3817C279.596 51.1682 279.624 50.9814 279.651 50.8213C279.679 50.6345 279.693 50.3808 279.695 50.0604C279.696 49.8468 279.683 49.6331 279.658 49.4193C279.659 49.179 279.66 48.952 279.661 48.7384C279.662 48.4446 279.663 48.2043 279.664 48.0173C279.692 47.8038 279.719 47.6304 279.746 47.497C279.025 47.5471 277.956 47.756 276.539 48.1234C276.112 48.1215 275.738 48.013 275.419 47.798C275.099 47.5829 274.941 47.2751 274.942 46.8745C274.943 46.7677 274.984 46.621 275.065 46.4344C275.145 46.2479 275.28 46.0749 275.467 45.9155C275.682 45.7295 275.963 45.5839 276.311 45.4787C276.685 45.3468 277.139 45.2821 277.673 45.2845L277.914 45.2856C278.501 45.2882 279.183 45.1711 279.958 44.9343C279.958 44.9076 279.959 44.8008 279.96 44.6138C279.987 44.4003 280.002 44.1734 280.003 43.9331C280.031 43.6661 280.045 43.4125 280.046 43.1722C280.074 42.932 280.088 42.7585 280.089 42.6516L280.09 42.4514C280.118 42.1577 280.173 41.7441 280.255 41.2103C280.338 40.6499 280.461 40.103 280.623 39.5697C280.786 39.0096 280.988 38.5298 281.231 38.1303C281.499 37.731 281.821 37.5322 282.195 37.5338C282.916 37.5371 283.355 37.8595 283.512 38.5011C283.512 38.5545 283.471 38.7413 283.389 39.0614C283.335 39.3816 283.266 39.7418 283.184 40.142C283.102 40.5422 283.021 40.929 282.939 41.3025C282.857 41.676 282.816 41.9162 282.815 42.023C282.815 42.0764 282.801 42.2232 282.773 42.4634C282.746 42.7037 282.718 42.9706 282.69 43.2642C282.688 43.5579 282.674 43.8516 282.646 44.1452C282.618 44.4389 282.603 44.6524 282.603 44.786C282.549 44.7857 282.91 44.7473 283.685 44.6707C283.818 44.6713 283.938 44.6718 284.045 44.6723C284.179 44.6462 284.299 44.6334 284.406 44.6339C284.486 44.6342 284.553 44.6479 284.606 44.6748C284.659 44.6751 284.713 44.6753 284.766 44.6755C285.007 44.6499 285.234 44.6376 285.447 44.6385C285.661 44.6128 285.861 44.6004 286.048 44.6012C286.636 44.6038 287.063 44.6725 287.329 44.8072ZM301.075 58.3683C300.967 58.6615 300.752 58.941 300.43 59.2066C300.135 59.4723 299.841 59.6045 299.547 59.6032C299.2 59.6016 298.934 59.4669 298.748 59.199C298.562 58.9044 298.43 58.5433 298.352 58.1157C298.274 57.6614 298.223 57.1537 298.199 56.5928C298.175 56.0319 298.164 55.4711 298.166 54.9103C298.061 54.6428 298.009 54.2954 298.011 53.8681C298.012 53.6812 298.013 53.4809 298.014 53.2673C298.041 53.0271 298.056 52.8268 298.056 52.6666C298.061 51.732 297.984 50.9839 297.826 50.4224C297.669 49.8342 297.457 49.3793 297.191 49.0576C296.952 48.7361 296.686 48.5212 296.393 48.4131C296.1 48.305 295.82 48.2503 295.553 48.2491C295.072 48.2469 294.578 48.3382 294.069 48.5228C293.588 48.7076 293.133 48.9192 292.705 49.1576C292.303 49.3961 291.955 49.6482 291.66 49.914C291.392 50.1531 291.217 50.3392 291.136 50.4724C291.055 50.7658 290.986 51.1927 290.93 51.7533C290.901 52.2873 290.872 52.9147 290.842 53.6356C290.812 54.3565 290.782 55.1441 290.751 55.9985C290.721 56.8262 290.69 57.6806 290.659 58.5617C290.577 59.0688 290.162 59.3206 289.414 59.3172C288.8 59.3145 288.4 59.099 288.215 58.6709C288.03 58.2161 287.94 57.4546 287.945 56.3865C287.946 56.1194 287.947 55.9325 287.948 55.8257C287.975 55.719 288.003 55.5322 288.03 55.2652C288.085 54.9984 288.14 54.5848 288.196 54.0242C288.252 53.437 288.323 52.516 288.409 51.2613C288.438 50.6739 288.467 50.1533 288.496 49.6994C288.525 49.2456 288.527 48.845 288.502 48.4978C288.503 48.204 288.504 47.9637 288.505 47.7767C288.506 47.5898 288.493 47.4295 288.467 47.2959C288.494 47.2693 288.521 47.0424 288.55 46.6153C288.579 46.1614 288.621 45.6676 288.677 45.1338C288.733 44.5999 288.788 44.0928 288.844 43.6124C288.9 43.1052 288.968 42.7584 289.049 42.5718C289.05 42.4383 289.037 42.318 289.01 42.2111C289.011 42.1043 289.012 41.9841 289.012 41.8506C289.014 41.4233 289.03 40.9027 289.059 40.2886C289.115 39.6479 289.212 39.0475 289.348 38.4873C289.484 37.9272 289.686 37.4474 289.955 37.048C290.224 36.6487 290.599 36.4501 291.079 36.4522C291.854 36.4557 292.252 36.8714 292.275 37.6994C292.219 38.4736 292.121 39.3677 291.983 40.3819C291.845 41.396 291.665 42.7304 291.444 44.3851C291.309 44.7851 291.239 45.5192 291.234 46.5873L291.231 47.3083C291.284 47.2819 291.405 47.2023 291.592 47.0696C291.78 46.9369 291.994 46.791 292.235 46.6319C292.503 46.4462 292.784 46.2872 293.079 46.155C293.373 45.9961 293.654 45.8905 293.921 45.8383C294.536 45.7343 295.177 45.6838 295.845 45.6868C297.126 45.6925 298.139 46.071 298.884 46.822C299.655 47.5465 300.21 48.7641 300.55 50.4747C300.574 51.1157 300.598 51.6366 300.623 52.0373C300.674 52.4381 300.712 52.8922 300.737 53.3997C300.788 53.8806 300.839 54.4951 300.889 55.243C300.966 55.9911 301.028 57.0328 301.075 58.3683ZM317.391 58.1213C316.533 58.972 315.528 59.7018 314.377 60.3108C313.226 60.9199 312.05 61.2217 310.848 61.2163C310.341 61.214 309.18 61.0218 307.366 60.6398C306.887 60.3172 306.381 59.9143 305.849 59.4313C305.317 58.9482 304.826 58.3985 304.375 57.7823C303.95 57.1395 303.593 56.4702 303.302 55.7746C303.038 55.0524 302.908 54.3041 302.912 53.5297L302.911 53.5697C302.939 53.3295 302.967 53.0492 302.995 52.7289C303.023 52.4353 303.052 52.1016 303.08 51.7279C303.108 51.3274 303.151 50.8603 303.206 50.3264C303.744 49.4743 304.296 48.6356 304.86 47.8103C305.451 46.9851 306.309 46.2546 307.434 45.6188C309.144 45.2259 310.427 45.0314 311.282 45.0352C311.682 45.037 312.029 45.0653 312.323 45.12C312.643 45.1482 312.936 45.243 313.203 45.4044C313.496 45.5392 313.775 45.7274 314.041 45.969C314.334 46.2106 314.68 46.5326 315.078 46.935C315.371 47.2568 315.597 47.4981 315.756 47.6591C315.916 47.7933 316.035 47.9007 316.115 47.9811C316.195 48.0616 316.235 48.1286 316.235 48.182C316.234 48.2354 316.234 48.3155 316.233 48.4223C316.229 49.3836 316.119 50.1576 315.903 50.7441C315.713 51.3308 315.337 51.8097 314.774 52.1811C314.239 52.5525 313.489 52.883 312.527 53.1724C311.564 53.4351 310.321 53.7366 308.797 54.0769L308.557 54.0758C308.076 54.0737 307.221 54.1766 305.992 54.3847C306.941 57.2197 308.47 58.6419 310.579 58.6514C312.075 58.6581 313.774 57.9047 315.677 56.3911C315.864 56.2317 316.105 56.1527 316.399 56.154C317.227 56.1577 317.639 56.5602 317.635 57.3613C317.634 57.6283 317.553 57.8817 317.391 58.1213ZM313.586 49.1314C312.871 47.9265 312.059 47.322 311.151 47.3179C310.751 47.3161 310.323 47.3676 309.869 47.4723C309.414 47.5771 308.973 47.722 308.545 47.907C308.143 48.0921 307.755 48.3174 307.38 48.5827C307.032 48.8482 306.737 49.154 306.495 49.5001C306.387 49.7132 306.279 50.0198 306.17 50.4199C306.088 50.8201 305.979 51.3003 305.843 51.8605C306.565 51.7302 307.353 51.6403 308.208 51.5907C309.089 51.5413 309.918 51.4382 310.693 51.2815C311.495 51.1248 312.163 50.8875 312.699 50.5695C313.234 50.2514 313.53 49.7721 313.586 49.1314ZM65.8273 94.011C65.7999 94.1711 65.7318 94.4645 65.6231 94.8913C65.5144 95.2914 65.379 95.7181 65.2167 96.1713C65.0812 96.6247 64.9457 97.0647 64.8102 97.4914C64.7015 97.9181 64.6332 98.2516 64.6054 98.4919C64.3894 99.025 64.1599 99.5847 63.9169 100.171C63.7006 100.758 63.4574 101.397 63.1872 102.091C63.1869 102.171 63.0921 102.451 62.9031 102.931C62.7141 103.384 62.4848 103.903 62.2151 104.49C61.9721 105.076 61.7158 105.649 61.4462 106.209C61.2035 106.742 61.0149 107.115 60.8804 107.328C60.1557 108.152 59.3656 108.669 58.5101 108.879C57.7376 108.448 56.902 107.203 56.0033 105.143C55.8448 104.768 55.6073 104.139 55.2908 103.257C54.9744 102.347 54.5925 101.171 54.145 99.7266C53.5522 100.899 52.9733 101.965 52.4082 102.923C51.8698 103.882 51.3587 104.708 50.8749 105.4C50.3911 106.092 49.9346 106.637 49.5056 107.036C49.0765 107.435 48.7017 107.647 48.3811 107.672C48.0349 107.457 47.6362 107.041 47.185 106.425L45.9906 104.817C45.8848 104.576 45.7395 104.229 45.5546 103.774C45.3964 103.319 45.225 102.851 45.0402 102.369C44.8556 101.861 44.6707 101.393 44.4857 100.965C44.3274 100.537 44.1954 100.216 44.0895 100.002C44.0102 99.8145 43.9048 99.5069 43.7732 99.0791C43.6417 98.6245 43.5103 98.1566 43.3789 97.6753C43.2744 97.1674 43.1831 96.6997 43.1049 96.2721C43.0268 95.8177 42.9882 95.4838 42.9892 95.2701C42.991 94.8696 43.0992 94.5629 43.3138 94.3503C43.5551 94.1377 43.8493 94.0322 44.1965 94.0338C44.8641 94.0368 45.3437 94.2659 45.6354 94.7212L45.9871 96.6856C46.1435 97.5409 46.354 98.2228 46.6188 98.7313C47.3544 101.432 48.0408 103.184 48.6781 103.988C48.7586 103.908 48.893 103.709 49.0814 103.389C49.2697 103.069 49.4582 102.736 49.6467 102.39C49.862 102.017 50.0505 101.671 50.2121 101.351C50.4005 101.032 50.5215 100.845 50.5752 100.792C50.8968 100.526 51.2598 99.9673 51.6642 99.1146L52.3921 97.5957C53.2526 96.2643 54.1107 95.4938 54.9662 95.284C55.0193 95.3376 55.112 95.5116 55.2442 95.806C55.3764 96.1003 55.5084 96.4347 55.6403 96.8092C55.7722 97.1569 55.9042 97.4913 56.0363 97.8124C56.1952 98.1068 56.3145 98.2943 56.3943 98.3748C56.7114 99.1239 57.0141 100.087 57.3026 101.263C57.5912 102.413 58.1322 103.844 58.9256 105.556C59.3559 104.891 59.6521 104.331 59.8144 103.878C60.0034 103.425 60.1522 102.998 60.2608 102.598C60.3962 102.171 60.5185 101.705 60.6276 101.198C60.7634 100.691 60.98 100.038 61.2773 99.238C61.5747 98.4382 61.7776 97.8649 61.8859 97.5182C62.0211 97.145 62.1295 96.8117 62.2109 96.5183C62.2923 96.2249 62.3874 95.8782 62.496 95.4781C62.6314 95.0514 62.848 94.3981 63.1457 93.5182C63.5489 92.9325 63.9908 92.6408 64.4715 92.6429C65.1124 92.6458 65.5643 93.1018 65.8273 94.011ZM71.3491 90.3506C71.347 90.8046 71.2653 91.1781 71.1037 91.4711C70.969 91.7375 70.7812 91.937 70.5402 92.0694C70.2993 92.2019 70.0318 92.2941 69.7378 92.3462C69.4707 92.3717 69.2036 92.3839 68.9365 92.3826C68.5639 92.1139 68.2447 91.8187 67.9792 91.4971C67.7404 91.1489 67.6217 90.8145 67.6232 90.4941C67.6242 90.2537 67.7323 89.9872 67.9472 89.6944C68.1623 89.3749 68.3506 89.0686 68.5121 88.7756L70.354 88.9441C71.0209 89.1074 71.3526 89.5762 71.3491 90.3506ZM69.961 96.1526L69.9603 96.3128C69.9592 96.5532 69.9174 96.9535 69.8347 97.514C69.7789 98.0478 69.6823 98.7551 69.5448 99.6357C69.5709 99.7693 69.5834 99.9563 69.5823 100.197C69.5816 100.357 69.5266 100.717 69.4172 101.277C69.3079 101.838 69.2523 102.318 69.2505 102.719C69.2502 102.799 69.2498 102.879 69.2494 102.959C69.2758 103.039 69.2888 103.106 69.2886 103.16C69.2068 103.533 69.1643 104.067 69.1612 104.761C69.1599 105.055 69.1584 105.375 69.1569 105.723C69.1821 106.043 69.2073 106.39 69.2323 106.764C69.0152 107.538 68.5995 107.923 67.9853 107.92C67.4513 107.918 67.0787 107.636 66.8676 107.074C66.6833 106.486 66.5932 105.724 66.5974 104.79C66.6016 103.855 66.6322 103.001 66.6891 102.227C66.7727 101.452 66.8694 100.732 66.9792 100.065C67.0892 99.3709 67.1989 98.7172 67.3085 98.1035C67.4449 97.4632 67.5679 96.8362 67.6775 96.2224C67.9463 95.8231 68.3211 95.6245 68.8018 95.6267C69.3091 95.6289 69.6956 95.8043 69.961 96.1526ZM86.6794 104.44L86.678 104.76C86.6774 104.893 86.6762 105.161 86.6744 105.561C86.6994 105.935 86.6709 106.322 86.589 106.722C86.5071 107.123 86.3586 107.482 86.1435 107.802C85.9552 108.121 85.6473 108.28 85.2201 108.278C84.4457 108.275 83.9797 107.966 83.8223 107.351C83.8499 107.137 83.8643 106.91 83.8654 106.67C83.8933 106.403 83.9079 106.123 83.9092 105.829C83.9115 105.322 83.8874 104.747 83.8369 104.106C83.813 103.465 83.7762 102.757 83.7263 101.983L83.4145 100.059C83.3105 99.4172 83.1392 98.9224 82.9004 98.5742C82.6618 98.1993 82.3959 97.931 82.1029 97.7695C81.81 97.5812 81.5034 97.473 81.183 97.4449C80.8895 97.3902 80.636 97.3623 80.4223 97.3613C79.6212 97.3577 78.9392 97.595 78.3762 98.0732C77.8134 98.5246 77.342 99.4304 76.962 100.791C76.9333 101.245 76.891 101.738 76.8352 102.272C76.8061 102.806 76.7367 103.393 76.627 104.034C76.676 104.995 76.7506 106.224 76.8507 107.72C76.847 108.548 76.3778 108.96 75.4432 108.955C75.0693 108.954 74.776 108.846 74.5634 108.631C74.3774 108.417 74.2317 108.149 74.1263 107.828C74.0478 107.48 73.996 107.12 73.971 106.746C73.946 106.372 73.9342 106.024 73.9356 105.704C73.9369 105.41 73.9516 105.117 73.9796 104.823C74.0077 104.529 74.0491 104.222 74.104 103.902L74.483 99.7781C74.5111 99.4845 74.5526 99.1642 74.6075 98.8173C74.6892 98.4705 74.7844 98.0837 74.8932 97.6569C74.8157 97.0691 74.5785 96.3737 74.1815 95.5708L74.1822 95.4105C74.1836 95.1168 74.3183 94.837 74.5866 94.5712C74.8815 94.3054 75.2159 94.1734 75.5898 94.1751C75.9637 94.1768 76.2701 94.3117 76.5093 94.5798C76.7485 94.8212 77.0538 95.2365 77.425 95.8257C77.6395 95.6397 77.9874 95.4677 78.4688 95.3097C78.977 95.125 79.5516 95.0341 80.1925 95.037C81.6345 95.0435 82.8748 95.3562 83.9135 95.9751C84.9522 96.594 85.6149 97.6918 85.9015 99.2687C85.9789 99.8832 86.0434 100.391 86.095 100.792C86.1467 101.166 86.1985 101.527 86.2503 101.874C86.329 102.195 86.3941 102.556 86.4457 102.956C86.5242 103.331 86.6021 103.825 86.6794 104.44ZM110.933 87.2441C110.959 87.3778 110.972 87.498 110.972 87.6048C110.998 87.7117 111.011 87.8186 111.01 87.9254C111.036 88.0591 111.009 88.2325 110.928 88.4458C110.874 88.6592 110.819 88.8993 110.764 89.1661L110.275 91.1667C110.221 91.2199 110.167 91.3665 110.113 91.6066C110.058 91.8467 110.003 92.1135 109.949 92.407C109.894 92.6738 109.853 92.9273 109.825 93.1676C109.797 93.3811 109.784 93.4878 109.784 93.4878C109.81 93.6215 109.823 93.7417 109.822 93.8485C109.822 93.9286 109.821 94.0221 109.821 94.1289C109.82 94.2357 109.82 94.3425 109.819 94.4493C109.819 94.5562 109.805 94.6629 109.778 94.7696L109.614 95.57C109.451 96.2636 109.368 96.9175 109.365 97.5317C109.364 97.8254 109.376 98.0391 109.402 98.1728L109.235 99.7342C109.153 100.134 109.058 100.535 108.949 100.935C108.84 101.308 108.639 101.494 108.346 101.493C107.998 101.491 107.719 101.383 107.506 101.168C107.293 100.954 107.134 100.699 107.029 100.405C106.923 100.084 106.845 99.7502 106.793 99.4028C106.768 99.0555 106.756 98.7617 106.757 98.5214C106.758 98.2543 106.772 98.0541 106.799 97.9207C106.774 97.5467 106.749 97.2128 106.724 96.9189C106.725 96.5985 106.727 96.3047 106.728 96.0377C106.731 95.3434 106.773 94.8496 106.855 94.5562C106.829 94.4225 106.802 94.2889 106.776 94.1553C106.777 94.0217 106.778 93.8882 106.778 93.7547C106.782 92.9002 106.839 92.0859 106.949 91.312C107.06 90.5114 107.197 89.8043 107.36 89.1908C107.523 88.5506 107.685 88.044 107.847 87.6709C108.009 87.271 108.13 87.0446 108.211 86.9915C108.452 86.7523 108.893 86.6341 109.534 86.637C110.255 86.6402 110.721 86.8426 110.933 87.2441ZM110.002 107.188C110 107.616 109.799 107.948 109.397 108.187C109.022 108.426 108.674 108.544 108.354 108.543C107.793 108.54 107.353 108.472 107.033 108.337C106.713 108.202 106.46 108.04 106.274 107.852C106.115 107.638 106.009 107.424 105.957 107.21C105.904 106.97 105.879 106.742 105.879 106.529C105.882 106.048 106.057 105.555 106.407 105.049C106.756 104.543 107.211 104.292 107.772 104.294C107.959 104.295 108.173 104.323 108.413 104.377C108.68 104.405 108.933 104.513 109.172 104.701C109.412 104.889 109.611 105.184 109.769 105.585C109.928 105.96 110.005 106.494 110.002 107.188Z" fill="#947C00"/>
</svg>
