<svg width="374" height="193" viewBox="0 0 374 193" fill="none" xmlns="http://www.w3.org/2000/svg">
<rect x="3.84386" y="3.01347" width="366.856" height="184.481" rx="18" transform="rotate(0.257904 3.84386 3.01347)" fill="#FFF500"/>
<rect x="3.84386" y="3.01347" width="366.856" height="184.481" rx="18" transform="rotate(0.257904 3.84386 3.01347)" stroke="#FFD600" stroke-width="6"/>
<path d="M74.8889 35.0634C74.8608 35.3837 74.7921 35.8106 74.6829 36.3442C74.6004 36.878 74.4777 37.4382 74.3148 38.025C74.1788 38.5852 74.0294 39.1319 73.8668 39.6653C73.7309 40.1988 73.5956 40.5987 73.4608 40.8652C73.2975 41.5588 73.0134 42.372 72.6087 43.3048C72.2306 44.2378 71.7856 45.2105 71.2737 46.223C70.7885 47.2088 70.25 48.1945 69.6581 49.1799C69.093 50.1387 68.555 50.9908 68.0443 51.7363C67.7745 52.3493 67.4252 52.815 66.9965 53.1335C66.5679 53.4254 66.1528 53.6905 65.7512 53.9291C65.6713 53.8753 65.4989 53.6208 65.2339 53.1657C64.9957 52.6839 64.7178 52.1352 64.4001 51.5196C64.1091 50.9041 63.8048 50.2751 63.4873 49.6328C63.1965 48.9639 62.972 48.4154 62.8137 47.9874C62.2552 47.4775 61.6985 46.5671 61.1436 45.256L59.9546 42.4467C59.9275 42.5267 59.8598 42.74 59.7514 43.0867C59.6431 43.4067 59.5078 43.8066 59.3454 44.2866C59.2097 44.7667 59.0471 45.3 58.8575 45.8867C58.6948 46.4467 58.5188 46.98 58.3296 47.4866C58.1671 47.9932 58.0181 48.4599 57.8827 48.8865C57.7473 49.2865 57.6393 49.5664 57.5584 49.7263C57.1003 50.6589 56.723 51.4049 56.4268 51.9644C56.1573 52.4972 55.9151 52.9101 55.7002 53.2029C55.5119 53.4958 55.324 53.7219 55.1363 53.8813C54.9488 54.014 54.7211 54.1598 54.4534 54.3188C54.1604 54.1573 53.8147 53.8219 53.4164 53.3128C53.045 52.777 52.6871 52.1879 52.3428 51.5454C52.0253 50.9031 51.7477 50.2743 51.5101 49.659C51.2726 49.0437 51.1413 48.5491 51.1163 48.1751L48.5025 41.5139C48.4773 41.1666 48.4122 40.8058 48.3071 40.4315C48.2288 40.0306 48.137 39.6429 48.0319 39.2686C47.9269 38.8676 47.8218 38.4799 47.7167 38.1055C47.6384 37.7046 47.6 37.3306 47.6016 36.9834C47.6042 36.3959 47.7397 35.9693 48.0079 35.7034C48.2763 35.4109 48.5974 35.2655 48.9712 35.2671C49.5587 35.2698 50.1048 35.566 50.6096 36.1558L50.6083 36.4362C50.6072 36.6765 50.632 37.1039 50.6826 37.7183C50.76 38.3329 50.8373 38.9474 50.9147 39.562C51.0187 40.1767 51.0964 40.7111 51.1478 41.1653C51.226 41.5929 51.2653 41.7533 51.2658 41.6465C51.5563 42.3689 51.8599 43.1447 52.1766 43.9739C52.4935 44.7765 52.81 45.6458 53.1263 46.5819C53.3096 47.3839 53.745 48.5475 54.4324 50.0727C54.486 50.0463 54.5937 49.8465 54.7556 49.4733C54.9176 49.0735 55.0931 48.647 55.2821 48.1939C55.4712 47.714 55.6467 47.2876 55.8086 46.9144C55.9706 46.5146 56.0784 46.2881 56.1321 46.2349C56.1869 45.9147 56.2822 45.5279 56.4177 45.0745C56.58 44.6213 56.7422 44.1814 56.9043 43.7549C57.0665 43.3283 57.215 42.9551 57.35 42.6353C57.4851 42.2887 57.5662 42.0754 57.5932 41.9955C57.7589 40.7945 58.0169 39.8343 58.3673 39.1148C58.3409 39.0346 58.3282 38.901 58.329 38.7141C58.3321 38.0198 58.8277 37.6749 59.8158 37.6793C60.1362 37.6808 60.3893 37.8154 60.575 38.0833C60.7875 38.3513 60.9596 38.6725 61.0914 39.047C61.2501 39.3949 61.382 39.756 61.4871 40.1303C61.5924 40.4779 61.6979 40.7588 61.8038 40.9729L62.8352 43.2208C63.126 43.863 63.3907 44.3983 63.6291 44.8266C63.8943 45.2284 64.1199 45.5365 64.3059 45.751C64.5172 46.2593 64.795 46.8481 65.1391 47.5172C65.4834 48.1597 65.8808 48.8691 66.3313 49.6456C66.5996 49.3531 66.9085 48.9539 67.258 48.4481C67.6075 47.9155 67.9844 47.2363 68.3887 46.4103C68.7931 45.5575 69.2251 44.518 69.6846 43.2916C70.1441 42.0653 70.6046 40.612 71.0661 38.9317C71.7717 36.4246 72.2994 34.8781 72.6492 34.2922C72.7562 34.266 72.8497 34.253 72.9298 34.2534C73.0367 34.2272 73.157 34.2144 73.2905 34.215C74.0382 34.2183 74.571 34.5011 74.8889 35.0634ZM88.7826 53.5921C87.9242 54.4428 86.9195 55.1727 85.7685 55.7817C84.6174 56.3907 83.4411 56.6925 82.2394 56.6871C81.732 56.6848 80.5712 56.4927 78.757 56.1106C78.2778 55.788 77.7722 55.3852 77.2403 54.9021C76.7084 54.419 76.2168 53.8694 75.7656 53.2531C75.3412 52.6103 74.9837 51.9411 74.6931 51.2455C74.4293 50.5232 74.2992 49.7749 74.3027 49.0005L74.3025 49.0406C74.3303 48.8004 74.3582 48.5201 74.3864 48.1998C74.4144 47.9061 74.4426 47.5724 74.471 47.1987C74.4995 46.7983 74.5417 46.3311 74.5975 45.7973C75.1354 44.9452 75.6866 44.1064 76.2511 43.2811C76.8423 42.456 77.7002 41.7255 78.8246 41.0896C80.5355 40.6967 81.8182 40.5022 82.6727 40.5061C83.0733 40.5079 83.4203 40.5361 83.7138 40.5909C84.0341 40.619 84.3275 40.7138 84.5938 40.8752C84.8869 41.0101 85.1665 41.1983 85.4324 41.4398C85.7251 41.6815 86.0708 42.0035 86.4696 42.4058C86.7619 42.7276 86.9878 42.969 87.1473 43.1299C87.3069 43.2642 87.4266 43.3715 87.5063 43.452C87.5861 43.5325 87.6259 43.5994 87.6256 43.6528C87.6254 43.7062 87.625 43.7863 87.6245 43.8931C87.6202 44.8545 87.5099 45.6284 87.2936 46.2149C87.1041 46.8016 86.728 47.2806 86.1656 47.6519C85.6298 48.0234 84.8806 48.3538 83.9179 48.6432C82.9554 48.9059 81.7122 49.2074 80.1886 49.5477L79.9482 49.5467C79.4675 49.5445 78.6125 49.6475 77.3832 49.8556C78.3318 52.6905 79.8609 54.1128 81.9705 54.1223C83.4659 54.129 85.1651 53.3756 87.0679 51.862C87.2556 51.7026 87.4963 51.6235 87.79 51.6249C88.6178 51.6286 89.0299 52.031 89.0263 52.8321C89.0251 53.0992 88.9439 53.3525 88.7826 53.5921ZM84.9776 44.6022C84.262 43.3973 83.4502 42.7928 82.5423 42.7887C82.1417 42.7869 81.7142 42.8384 81.2598 42.9432C80.8053 43.048 80.364 43.1928 79.9359 43.3778C79.5345 43.563 79.1463 43.7882 78.7712 44.0536C78.4229 44.3191 78.1278 44.6248 77.8859 44.9709C77.7781 45.184 77.6699 45.4907 77.5613 45.8907C77.4793 46.2909 77.3704 46.7711 77.2343 47.3313C77.9559 47.201 78.7441 47.1111 79.5989 47.0616C80.4804 47.0121 81.3087 46.909 82.0838 46.7523C82.8857 46.5957 83.5543 46.3583 84.0899 46.0403C84.6254 45.7223 84.9213 45.2429 84.9776 44.6022ZM117.119 54.0401C117.011 54.3334 116.796 54.6128 116.475 54.8784C116.18 55.1441 115.885 55.2763 115.592 55.275C115.244 55.2734 114.978 55.1387 114.792 54.8708C114.607 54.5763 114.475 54.2152 114.397 53.7875C114.318 53.3332 114.267 52.8256 114.243 52.2647C114.219 51.7038 114.208 51.1429 114.211 50.5821C114.105 50.3146 114.053 49.9672 114.055 49.54C114.056 49.353 114.057 49.1528 114.058 48.9391C114.086 48.6989 114.1 48.4987 114.101 48.3385C114.105 47.4038 114.028 46.6557 113.87 46.0942C113.713 45.506 113.501 45.0511 113.236 44.7294C112.997 44.4079 112.731 44.1931 112.437 44.0849C112.144 43.9768 111.864 43.9221 111.597 43.9209C111.116 43.9188 110.622 44.01 110.114 44.1947C109.632 44.3794 109.177 44.591 108.749 44.8294C108.347 45.068 107.999 45.3201 107.704 45.5858C107.436 45.8249 107.261 46.0111 107.181 46.1442C107.099 46.4376 107.031 46.8646 106.975 47.4251C106.945 47.9591 106.916 48.5865 106.886 49.3074C106.856 50.0283 106.826 50.8159 106.795 51.6704C106.765 52.4981 106.734 53.3525 106.704 54.2336C106.621 54.7406 106.206 54.9924 105.458 54.9891C104.844 54.9863 104.445 54.7709 104.26 54.3428C104.075 53.8879 103.985 53.1265 103.99 52.0583C103.991 51.7913 103.992 51.6043 103.992 51.4975C104.019 51.3908 104.047 51.204 104.075 50.9371C104.129 50.6703 104.185 50.2566 104.24 49.6961C104.297 49.1088 104.367 48.1878 104.453 46.9331C104.483 46.3457 104.512 45.8251 104.54 45.3713C104.569 44.9174 104.571 44.5169 104.546 44.1696C104.547 43.8758 104.548 43.6355 104.549 43.4486C104.55 43.2617 104.537 43.1014 104.511 42.9677C104.538 42.9411 104.566 42.7143 104.594 42.2871C104.623 41.8333 104.665 41.3394 104.721 40.8056C104.777 40.2718 104.833 39.7646 104.888 39.2842C104.944 38.7771 105.012 38.4302 105.093 38.2436C105.094 38.1101 105.081 37.9899 105.055 37.883C105.055 37.7761 105.056 37.656 105.056 37.5224C105.058 37.0952 105.074 36.5745 105.103 35.9604C105.16 35.3198 105.256 34.7194 105.392 34.1592C105.528 33.599 105.73 33.1192 105.999 32.7199C106.268 32.3205 106.643 32.1219 107.124 32.1241C107.898 32.1276 108.297 32.5433 108.32 33.3712C108.263 34.1454 108.165 35.0396 108.027 36.0537C107.889 37.0679 107.71 38.4023 107.488 40.057C107.353 40.4569 107.283 41.191 107.278 42.2592L107.275 42.9802C107.329 42.9537 107.449 42.8741 107.637 42.7415C107.824 42.6088 108.038 42.4629 108.279 42.3037C108.547 42.118 108.828 41.959 109.123 41.8268C109.417 41.6679 109.698 41.5624 109.965 41.5102C110.58 41.4061 111.221 41.3556 111.889 41.3586C113.171 41.3644 114.184 41.7428 114.928 42.4939C115.699 43.2184 116.255 44.4359 116.594 46.1466C116.618 46.7876 116.642 47.3084 116.667 47.7091C116.719 48.1099 116.757 48.5641 116.781 49.0715C116.832 49.5525 116.883 50.1669 116.933 50.9149C117.01 51.6629 117.072 52.7047 117.119 54.0401ZM133.436 53.7931C132.577 54.6438 131.573 55.3737 130.422 55.9827C129.271 56.5917 128.094 56.8935 126.893 56.8881C126.385 56.8858 125.224 56.6937 123.41 56.3116C122.931 55.989 122.425 55.5862 121.893 55.1031C121.362 54.62 120.87 54.0704 120.419 53.4541C119.994 52.8113 119.637 52.1421 119.346 51.4465C119.082 50.7242 118.952 49.9759 118.956 49.2015L118.956 49.2416C118.983 49.0013 119.011 48.7211 119.04 48.4007C119.068 48.1071 119.096 47.7734 119.124 47.3997C119.153 46.9993 119.195 46.5321 119.251 45.9983C119.789 45.1462 120.34 44.3074 120.904 43.4821C121.495 42.657 122.353 41.9264 123.478 41.2906C125.189 40.8977 126.471 40.7032 127.326 40.7071C127.726 40.7089 128.073 40.7371 128.367 40.7919C128.687 40.82 128.981 40.9148 129.247 41.0762C129.54 41.2111 129.82 41.3993 130.086 41.6408C130.378 41.8825 130.724 42.2045 131.123 42.6068C131.415 42.9286 131.641 43.17 131.8 43.3309C131.96 43.4651 132.08 43.5725 132.159 43.653C132.239 43.7335 132.279 43.8004 132.279 43.8538C132.278 43.9072 132.278 43.9873 132.278 44.0941C132.273 45.0555 132.163 45.8294 131.947 46.4159C131.757 47.0026 131.381 47.4816 130.819 47.8529C130.283 48.2244 129.534 48.5548 128.571 48.8442C127.608 49.1069 126.365 49.4084 124.842 49.7487L124.601 49.7477C124.121 49.7455 123.266 49.8485 122.036 50.0566C122.985 52.8915 124.514 54.3138 126.624 54.3232C128.119 54.33 129.818 53.5765 131.721 52.063C131.909 51.9036 132.149 51.8245 132.443 51.8259C133.271 51.8296 133.683 52.232 133.679 53.0331C133.678 53.3002 133.597 53.5535 133.436 53.7931ZM129.631 44.8032C128.915 43.5983 128.103 42.9938 127.195 42.9897C126.795 42.9879 126.367 43.0394 125.913 43.1442C125.458 43.249 125.017 43.3938 124.589 43.5788C124.188 43.764 123.799 43.9892 123.424 44.2546C123.076 44.52 122.781 44.8258 122.539 45.1719C122.431 45.385 122.323 45.6917 122.214 46.0917C122.132 46.4919 122.023 46.9721 121.887 47.5323C122.609 47.402 123.397 47.3121 124.252 47.2626C125.133 47.2131 125.962 47.11 126.737 46.9533C127.539 46.7967 128.207 46.5593 128.743 46.2413C129.279 45.9233 129.574 45.4439 129.631 44.8032ZM140.035 34.0748C140.007 34.3684 139.952 34.7287 139.87 35.1556C139.788 35.5825 139.693 36.0227 139.584 36.4762C139.475 36.9029 139.366 37.3164 139.258 37.7165C139.176 38.1167 139.108 38.4368 139.053 38.6769C139.079 38.8105 139.092 38.9308 139.092 39.0376C139.091 39.1444 139.091 39.2646 139.09 39.3981C139.089 39.6117 139.061 39.892 139.006 40.2389C138.951 40.5858 138.883 40.946 138.801 41.3195C138.719 41.693 138.651 42.0532 138.596 42.4001C138.541 42.7203 138.513 42.9739 138.512 43.1608C138.511 43.4279 138.509 43.8151 138.507 44.3225C138.531 44.83 138.542 45.3908 138.54 46.005C138.537 46.5925 138.507 47.2066 138.451 47.8472C138.395 48.4879 138.299 49.0616 138.163 49.5684C138.188 49.8889 138.2 50.2094 138.199 50.5299C138.197 50.8503 138.222 51.1976 138.274 51.5717C138.353 51.9192 138.471 52.307 138.629 52.735C138.814 53.1631 139.106 53.6184 139.505 54.1008C139.423 54.3942 139.168 54.6735 138.74 54.9386C138.338 55.1771 137.924 55.2954 137.496 55.2935C136.936 55.291 136.47 54.9818 136.098 54.3659C135.754 53.7234 135.586 52.561 135.593 50.8787C135.595 50.5849 135.609 50.3313 135.637 50.1178C135.691 49.8777 135.719 49.5974 135.721 49.277C135.724 48.6094 135.647 47.8079 135.491 46.8725C135.599 46.606 135.681 46.2325 135.737 45.752C135.819 45.2717 135.874 44.8046 135.903 44.3508C135.932 43.8702 135.947 43.4697 135.949 43.1493C135.977 42.8023 135.991 42.6421 135.991 42.6688C135.991 42.6421 136.019 42.4286 136.074 42.0283C136.156 41.6281 136.238 41.1478 136.321 40.5873C136.403 40.0269 136.473 39.4664 136.529 38.9059C136.611 38.3187 136.653 37.8516 136.655 37.5045L136.657 37.184C136.739 36.7037 136.835 36.17 136.944 35.583C137.054 34.996 137.177 34.3557 137.313 33.662C137.555 33.2625 137.957 33.064 138.518 33.0665C139.212 33.0697 139.718 33.4057 140.035 34.0748ZM156.018 46.9649L156.017 47.2053C155.989 47.6057 155.934 48.006 155.852 48.4062C155.797 48.8065 155.675 49.1932 155.486 49.5662L154.637 51.2448C154.422 51.5376 154.087 51.8432 153.632 52.1616C153.176 52.48 152.681 52.7849 152.146 53.0762C151.637 53.341 151.115 53.5656 150.58 53.7501C150.072 53.9348 149.644 54.0263 149.297 54.0247L148.897 54.0229C148.79 54.0225 148.616 54.0484 148.376 54.1007C148.162 54.1264 147.921 54.1788 147.654 54.2577C147.387 54.3099 147.119 54.3621 146.852 54.4143C146.612 54.4399 146.411 54.4524 146.251 54.4517C146.037 54.4507 145.891 54.4367 145.811 54.4096L145.678 57.1329C145.651 57.293 145.65 57.52 145.675 57.8138C145.7 58.1344 145.712 58.5484 145.709 59.0558C145.707 59.5898 145.664 60.2439 145.58 61.018C145.524 61.7921 145.413 62.7263 145.247 63.8204C144.953 64.0328 144.605 64.138 144.205 64.1362C143.804 64.1344 143.497 64.0262 143.285 63.8116C143.099 63.5971 142.966 63.3428 142.888 63.0487C142.835 62.7548 142.81 62.4475 142.812 62.1271C142.813 61.8333 142.814 61.593 142.815 61.4061C142.816 61.139 142.83 60.8988 142.858 60.6853C142.886 60.4717 142.9 60.2448 142.901 60.0045C142.929 59.791 142.957 59.5641 142.984 59.3239C143.012 59.0837 143.027 58.79 143.028 58.4428C143.03 58.1491 143.018 57.8553 142.992 57.5614C142.994 57.2677 142.995 56.9339 142.997 56.56C143 55.8123 143.017 55.1581 143.046 54.5975C143.102 54.0102 143.157 53.5164 143.213 53.1161C143.082 52.5814 143.018 51.8334 143.022 50.8721C143.026 50.0976 143.042 49.4034 143.072 48.7893C143.128 48.1754 143.21 47.6684 143.319 47.2683C143.136 46.3328 143.006 45.5444 142.929 44.9032C142.852 44.2352 142.814 43.7143 142.816 43.3404C142.818 42.8865 142.926 42.5531 143.141 42.3405C143.382 42.1012 143.77 41.9828 144.304 41.9852C144.625 41.9866 144.865 42.0545 145.024 42.1887C145.211 42.2964 145.423 42.6178 145.661 43.153C146.973 42.3577 148.51 41.9641 150.273 41.972C152.009 41.9798 153.382 42.3465 154.394 43.0721C155.405 43.771 155.947 45.0686 156.018 46.9649ZM153.295 46.7924C153.302 45.4305 152.544 44.6393 151.023 44.4189C150.943 44.4185 150.849 44.4314 150.742 44.4577C150.662 44.4573 150.582 44.4569 150.502 44.4566C150.288 44.4556 150.048 44.4545 149.781 44.4533C149.541 44.4255 149.274 44.3976 148.98 44.3696C147.938 44.4984 146.908 45.0012 145.889 45.8779C145.914 46.2251 145.926 46.599 145.924 46.9996C145.949 47.4003 145.96 47.841 145.958 48.3216C145.902 48.8822 145.847 49.376 145.791 49.803C145.763 50.2301 145.748 50.5906 145.746 50.8843C145.744 51.3383 145.77 51.6322 145.822 51.7659C145.875 51.8997 146.022 51.9671 146.262 51.9682C146.342 51.9685 146.489 51.9558 146.703 51.9301C146.944 51.8778 147.197 51.8255 147.465 51.7733C147.732 51.7211 147.986 51.6822 148.226 51.6566C148.494 51.6044 148.667 51.5784 148.747 51.5788C149.682 51.5296 150.444 51.3194 151.033 50.9482C151.623 50.5503 152.079 50.1117 152.401 49.6325C152.751 49.1266 152.98 48.6069 153.089 48.0733C153.225 47.5399 153.294 47.1129 153.295 46.7924ZM184.786 43.4092C184.757 43.9431 184.688 44.4235 184.579 44.8503C184.471 45.2504 184.308 45.6636 184.093 46.0899C183.904 46.5163 183.675 46.9826 183.406 47.4888C183.163 47.9684 182.893 48.568 182.596 49.2877C182.431 50.3284 182.12 51.2884 181.662 52.1676C181.231 53.0469 180.746 53.8859 180.209 54.6846C179.698 55.4835 179.187 56.2556 178.676 57.001C178.165 57.7732 177.775 58.5592 177.504 59.3591C177.074 59.9447 176.738 60.4505 176.496 60.8767C176.253 61.3296 176.024 61.7559 175.809 62.1555C175.593 62.5551 175.338 62.9545 175.042 63.3537C174.747 63.7797 174.317 64.2718 173.754 64.83C173.594 64.8827 173.433 64.9087 173.273 64.908C172.926 64.9064 172.592 64.7981 172.273 64.583C171.98 64.3948 171.834 64.1538 171.836 63.86C171.836 63.6998 171.89 63.5532 171.998 63.4201L174.619 59.5464C174.7 59.3064 174.862 58.96 175.104 58.5071C175.347 58.0542 175.616 57.5614 175.912 57.0286C176.208 56.4959 176.491 55.9764 176.76 55.4702C177.03 54.9374 177.205 54.5109 177.287 54.1908C177.1 54.0831 176.874 53.9085 176.608 53.667C176.342 53.3988 176.063 53.1304 175.771 52.8621C175.478 52.567 175.186 52.2987 174.893 52.057C174.627 51.7888 174.374 51.6007 174.134 51.4928C173.657 50.823 173.272 50.3673 172.979 50.1257C172.713 49.8574 172.434 49.5891 172.141 49.3207C171.849 49.0524 171.503 48.6636 171.105 48.1544C170.734 47.6187 170.19 46.7483 169.475 45.5434C169.448 45.4899 169.435 45.4097 169.436 45.3029C169.437 44.9557 169.559 44.6225 169.801 44.3031C170.069 43.9838 170.39 43.8251 170.764 43.8268C171.031 43.828 171.364 44.0297 171.763 44.4321C172.162 44.8345 172.547 45.2902 172.918 45.7992C173.317 46.2817 173.675 46.7507 173.994 47.2061C174.312 47.6348 174.511 47.9027 174.591 48.0099C174.75 48.1708 174.989 48.439 175.308 48.8143C175.654 49.1897 176.026 49.5786 176.425 49.9809C176.823 50.3833 177.209 50.7589 177.581 51.1077C177.98 51.4567 178.3 51.6851 178.539 51.793C178.754 51.5269 179.037 50.9407 179.388 50.0343C179.767 49.1014 180.158 48.1418 180.563 47.1555C180.86 46.4091 181.184 45.6629 181.535 44.9167C181.912 44.144 182.129 43.4506 182.185 42.8367C182.64 42.545 183.081 42.4001 183.509 42.402C184.256 42.4054 184.682 42.7411 184.786 43.4092ZM196.137 54.7563C195.628 55.1012 194.278 55.4957 192.086 55.9398L190.405 55.6118C190.192 55.5307 189.806 55.3287 189.246 55.0057C188.714 54.6828 188.155 54.213 187.57 53.5962C187.012 52.9794 186.508 52.2027 186.059 51.2661C185.636 50.3295 185.427 49.2203 185.433 47.9385C185.437 46.8971 185.735 45.9771 186.326 45.1786C186.918 44.3534 187.816 43.4762 189.022 42.547C189.664 42.3897 190.292 42.3124 190.906 42.3151C192.695 42.3232 194.335 42.9314 195.825 44.1398C197.098 45.9081 197.731 47.847 197.721 49.9566C197.714 51.6123 197.186 53.2122 196.137 54.7563ZM192.536 44.9662C192.136 44.7775 191.71 44.6821 191.256 44.6801C190.935 44.6786 190.588 44.7572 190.213 44.9157C189.865 45.0744 189.53 45.3132 189.208 45.6322C188.913 45.9513 188.671 46.3642 188.482 46.8707C188.293 47.3505 188.197 47.9243 188.194 48.5919C188.191 49.1259 188.256 49.6603 188.387 50.195C188.545 50.7298 188.769 51.2249 189.061 51.6801C189.379 52.1356 189.778 52.5112 190.258 52.8071C190.737 53.0763 191.311 53.2124 191.978 53.2154C192.593 53.2182 193.288 53.0611 194.063 52.7441C194.735 51.9193 195.073 50.9328 195.078 49.7845C195.09 47.2476 194.242 45.6415 192.536 44.9662ZM212.857 41.0921C212.883 41.3859 212.895 41.6664 212.894 41.9334C212.919 42.2006 212.931 42.481 212.93 42.7748C212.927 43.4157 212.898 43.963 212.842 44.4167C212.787 44.8438 212.718 45.3375 212.636 45.8979C212.553 46.4316 212.443 47.0987 212.306 47.8993C212.196 48.6732 212.084 49.7142 211.972 51.0222C211.971 51.1023 211.957 51.1824 211.93 51.2623C211.93 51.3158 211.93 51.3825 211.93 51.4626C211.928 51.8899 211.966 52.3574 212.043 52.8651L212.197 54.3479C212.194 55.0422 211.752 55.3874 210.87 55.3834C210.497 55.3818 210.217 55.287 210.03 55.0993C209.845 54.8848 209.712 54.6438 209.633 54.3764C209.554 54.0823 209.516 53.7884 209.517 53.4947C209.518 53.1742 209.52 52.9072 209.521 52.6935C209.522 52.4265 209.536 52.2263 209.563 52.0929C208.92 52.7309 208.343 53.2357 207.834 53.6073C207.352 53.9523 206.897 54.2039 206.469 54.3622C206.067 54.5206 205.666 54.6123 205.266 54.6372C204.892 54.6622 204.491 54.6738 204.064 54.6718C202.622 54.6653 201.515 54.2598 200.745 53.4552C200.001 52.6507 199.632 51.4607 199.639 49.8851C199.64 49.6982 199.641 49.4846 199.642 49.2442C199.643 49.0039 199.658 48.7236 199.686 48.4033C199.66 48.2963 199.647 48.1227 199.648 47.8823C199.65 47.5352 199.665 47.2148 199.693 46.9212C199.721 46.6008 199.776 46.2272 199.858 45.8003C199.967 45.3468 200.103 44.8 200.266 44.1598C200.456 43.4931 200.7 42.6396 200.998 41.5995C201.293 41.3071 201.628 41.1617 202.002 41.1634C202.349 41.1649 202.642 41.2597 202.882 41.4477C203.121 41.6357 203.24 41.9167 203.238 42.2905C203.238 42.4241 203.183 42.7042 203.074 43.131C202.992 43.5579 202.897 44.0248 202.788 44.5317C202.679 45.0386 202.569 45.5455 202.46 46.0524C202.378 46.5327 202.336 46.9064 202.335 47.1734L202.334 47.3737C202.279 47.7473 202.224 48.0942 202.169 48.4144C202.141 48.7348 202.127 49.0017 202.126 49.2154C202.122 50.0432 202.279 50.7649 202.597 51.3806C202.941 51.9696 203.581 52.2662 204.515 52.2704C205.13 52.2732 205.704 52.1423 206.24 51.8776C206.775 51.613 207.257 51.2947 207.686 50.9228C208.115 50.5242 208.491 50.0986 208.813 49.646C209.136 49.1668 209.378 48.7273 209.54 48.3274C209.596 47.8203 209.692 47.2199 209.829 46.5262C209.965 45.8058 210.143 44.9787 210.361 44.045C210.335 43.8847 210.322 43.7244 210.323 43.5642C210.323 43.404 210.324 43.2571 210.325 43.1236C210.326 42.8031 210.341 42.4827 210.369 42.1624C210.424 41.8155 210.492 41.5221 210.573 41.2821C210.681 41.0155 210.829 40.8025 211.017 40.6432C211.205 40.4571 211.459 40.3648 211.779 40.3662C212.367 40.3688 212.726 40.6108 212.857 41.0921ZM251.622 53.9245C251.619 54.4853 251.191 54.7638 250.336 54.7599C249.936 54.7581 249.63 54.5832 249.417 54.2351C249.232 53.8871 249.101 53.4459 249.023 52.9114C248.945 52.377 248.894 51.7892 248.871 51.1482C248.874 50.4806 248.863 49.8397 248.839 49.2254C248.708 48.7441 248.551 47.9155 248.37 46.7397C248.025 46.2575 247.586 45.8683 247.053 45.5721C246.547 45.2494 245.974 45.0866 245.333 45.0837C245.092 45.0826 244.825 45.1215 244.531 45.2003C244.237 45.2524 243.93 45.3311 243.609 45.4365C243.288 45.5151 242.98 45.6206 242.686 45.7528C242.392 45.885 242.151 46.0308 241.963 46.1901C241.427 46.615 240.968 47.6411 240.587 49.2683C240.613 49.402 240.626 49.6557 240.624 50.0296C240.622 50.35 240.594 50.7371 240.539 51.1908C240.51 51.618 240.468 52.1118 240.412 52.6724L240.41 52.9528C240.41 53.0329 240.409 53.2599 240.407 53.6337C240.432 54.0077 240.404 54.4081 240.322 54.835C240.24 55.2352 240.091 55.5951 239.876 55.9146C239.661 56.2608 239.34 56.4329 238.913 56.431C238.031 56.427 237.592 56.0912 237.595 55.4236C237.596 55.3435 237.61 55.1299 237.638 54.7829C237.693 54.4093 237.749 53.9956 237.804 53.5419C237.886 53.0883 237.942 52.6345 237.97 52.1807C238.026 51.7003 238.054 51.3132 238.056 51.0194C238.058 50.4586 238.021 49.9511 237.942 49.4968L237.946 48.7357C237.948 48.255 237.91 47.7475 237.833 47.213C237.782 46.6787 237.677 46.1842 237.519 45.7295C237.361 45.2481 237.136 44.8332 236.843 44.4847C236.578 44.1364 236.232 43.8811 235.805 43.719C235.752 43.692 235.312 43.6366 234.484 43.5528C233.789 43.7099 233.2 44.1478 232.716 44.8667L231.746 46.745C231.664 47.252 231.595 47.7057 231.54 48.106C231.511 48.5064 231.483 48.8802 231.454 49.2272L231.326 51.0693C231.482 52.0046 231.559 52.7794 231.556 53.3936C231.553 53.9277 231.485 54.368 231.35 54.7145C231.215 55.0344 230.853 55.193 230.266 55.1903C229.972 55.189 229.732 55.1612 229.545 55.107C229.359 55.026 229.199 54.825 229.067 54.504C228.962 54.1831 228.884 53.702 228.834 53.0609C228.783 52.4197 228.76 51.525 228.765 50.3768C228.77 49.4688 228.827 48.5745 228.938 47.6937C229.075 46.7864 229.254 45.6522 229.474 44.2913C229.397 43.4898 229.201 42.7145 228.883 41.9653C228.885 41.6182 229.007 41.3116 229.248 41.0457C229.516 40.7798 229.864 40.6479 230.291 40.6498C230.639 40.6514 230.918 40.7728 231.131 41.0141C231.37 41.2555 231.689 41.7243 232.086 42.4204C232.622 41.8887 233.078 41.5035 233.453 41.2649C233.855 41.0264 234.269 40.8814 234.697 40.8299C235.124 40.8318 235.458 40.8466 235.698 40.8744C235.965 40.8756 236.205 40.9168 236.419 40.9978C236.659 41.0523 236.912 41.1736 237.178 41.3618C237.444 41.5232 237.817 41.7652 238.296 42.0878C238.775 42.4371 239.265 43.4141 239.765 45.0186C239.9 44.8323 240.101 44.5928 240.369 44.3003C240.664 44.0079 241.026 43.7291 241.455 43.464C241.883 43.1989 242.405 42.9742 243.02 42.7901C243.635 42.6059 244.343 42.5156 245.144 42.5192C245.999 42.5231 246.733 42.6065 247.346 42.7695C247.96 42.9325 248.493 43.1752 248.945 43.4977C249.398 43.8202 249.783 44.2225 250.101 44.7046C250.446 45.1868 250.764 45.7491 251.055 46.3913L251.054 46.7117C251.053 46.9521 251.077 47.3661 251.128 47.9538C251.179 48.5416 251.23 49.1293 251.28 49.717C251.331 50.2781 251.383 50.7723 251.434 51.1998C251.485 51.6273 251.511 51.8144 251.512 51.761C251.511 51.7877 251.511 51.8811 251.51 52.0414C251.536 52.175 251.549 52.3486 251.548 52.5623C251.574 52.7493 251.586 52.9497 251.585 53.1633C251.611 53.377 251.624 53.5507 251.623 53.6842L251.622 53.9245ZM264.215 55.0628C263.706 55.4076 262.356 55.8021 260.164 56.2462L258.483 55.9182C258.27 55.8371 257.884 55.6351 257.324 55.3121C256.792 54.9893 256.233 54.5194 255.648 53.9026C255.09 53.2859 254.587 52.5092 254.137 51.5725C253.714 50.6359 253.505 49.5268 253.511 48.245C253.516 47.2035 253.813 46.2835 254.405 45.4851C254.996 44.6599 255.894 43.7827 257.1 42.8534C257.742 42.6961 258.37 42.6188 258.984 42.6216C260.773 42.6296 262.413 43.2379 263.903 44.4463C265.177 46.2145 265.809 48.1534 265.799 50.2631C265.792 51.9187 265.264 53.5186 264.215 55.0628ZM260.614 45.2727C260.215 45.0839 259.788 44.9886 259.334 44.9865C259.013 44.9851 258.666 45.0636 258.291 45.2222C257.943 45.3808 257.608 45.6197 257.287 45.9387C256.991 46.2578 256.749 46.6706 256.56 47.1772C256.371 47.657 256.275 48.2307 256.272 48.8983C256.269 49.4324 256.334 49.9668 256.465 50.5014C256.623 51.0362 256.847 51.5313 257.139 51.9866C257.458 52.442 257.856 52.8177 258.336 53.1136C258.815 53.3828 259.389 53.5189 260.056 53.5219C260.671 53.5246 261.366 53.3675 262.142 53.0506C262.813 52.2258 263.151 51.2392 263.156 50.0909C263.168 47.5541 262.32 45.948 260.614 45.2727ZM281.053 42.04C281.025 42.2535 280.93 42.5334 280.769 42.8799C280.634 43.1997 280.432 43.6261 280.162 44.159C279.919 44.692 279.596 45.3448 279.192 46.1174C278.815 46.8901 278.383 47.8228 277.897 48.9155C277.114 50.995 276.386 52.4204 275.715 53.1918C275.607 53.4851 275.445 53.8048 275.23 54.151C275.015 54.4705 274.76 54.7764 274.465 55.0688C274.17 55.3613 273.835 55.6001 273.46 55.7853C273.112 55.9707 272.751 56.0625 272.378 56.0609C271.416 56.0565 270.712 55.3858 270.264 54.0485C269.918 53.6731 269.6 53.2177 269.308 52.6823C269.044 52.147 268.806 51.6252 268.594 51.1168C268.383 50.6085 268.198 50.167 268.04 49.7925C267.908 49.418 267.829 49.1907 267.802 49.1104C267.512 48.3614 267.369 47.573 267.372 46.7451L267.374 46.4247C267.084 45.5154 266.874 44.7401 266.743 44.0986C266.613 43.4571 266.548 42.9093 266.55 42.4554C266.82 41.9492 267.328 41.6978 268.076 41.7011C268.343 41.7023 268.556 41.7701 268.716 41.9043C268.876 42.0385 268.995 42.2394 269.074 42.5068C269.179 42.7476 269.258 43.0684 269.31 43.4692C269.388 43.8434 269.48 44.2711 269.584 44.7523C269.793 45.8481 270.016 46.7971 270.253 47.5993C270.516 48.3749 270.78 49.0704 271.044 49.6858C271.309 50.2745 271.573 50.8231 271.838 51.3317C272.13 51.8137 272.434 52.3091 272.753 52.8179C273.128 52.4191 273.437 52.0733 273.679 51.7806C273.92 51.488 274.108 51.2084 274.243 50.942C274.405 50.6757 274.539 50.4092 274.647 50.1427C274.755 49.8761 274.85 49.5561 274.932 49.1826C275.201 48.7565 275.39 48.3702 275.498 48.0235C275.633 47.6502 275.809 47.197 276.025 46.6639C276.241 46.1041 276.551 45.3978 276.956 44.5451C277.387 43.6658 278.006 42.5203 278.814 41.1086C279.002 40.8424 279.27 40.71 279.617 40.7116C280.017 40.7134 280.35 40.8618 280.616 41.1567C280.909 41.4251 281.054 41.7195 281.053 42.04ZM295.703 54.5235C294.845 55.3742 293.84 56.1041 292.689 56.7131C291.538 57.3221 290.362 57.6239 289.16 57.6185C288.653 57.6162 287.492 57.4241 285.678 57.042C285.199 56.7194 284.693 56.3166 284.161 55.8335C283.629 55.3504 283.138 54.8008 282.687 54.1845C282.262 53.5417 281.905 52.8725 281.614 52.1769C281.35 51.4547 281.22 50.7063 281.224 49.9319L281.223 49.972C281.251 49.7318 281.279 49.4515 281.307 49.1312C281.335 48.8375 281.363 48.5039 281.392 48.1301C281.42 47.7297 281.463 47.2625 281.518 46.7287C282.056 45.8766 282.608 45.0379 283.172 44.2126C283.763 43.3874 284.621 42.6569 285.746 42.021C287.456 41.6281 288.739 41.4336 289.594 41.4375C289.994 41.4393 290.341 41.4676 290.635 41.5223C290.955 41.5504 291.248 41.6452 291.515 41.8066C291.808 41.9415 292.087 42.1297 292.353 42.3712C292.646 42.6129 292.992 42.9349 293.39 43.3372C293.683 43.659 293.909 43.9004 294.068 44.0613C294.228 44.1956 294.347 44.3029 294.427 44.3834C294.507 44.4639 294.547 44.5308 294.547 44.5842C294.546 44.6376 294.546 44.7177 294.545 44.8246C294.541 45.7859 294.431 46.5598 294.215 47.1464C294.025 47.733 293.649 48.212 293.086 48.5833C292.551 48.9548 291.801 49.2852 290.839 49.5746C289.876 49.8374 288.633 50.1389 287.109 50.4792L286.869 50.4781C286.388 50.4759 285.533 50.5789 284.304 50.787C285.253 53.6219 286.782 55.0442 288.891 55.0537C290.387 55.0604 292.086 54.307 293.989 52.7934C294.176 52.634 294.417 52.555 294.711 52.5563C295.539 52.56 295.951 52.9624 295.947 53.7635C295.946 54.0306 295.865 54.2839 295.703 54.5235ZM291.898 45.5337C291.183 44.3287 290.371 43.7242 289.463 43.7201C289.063 43.7183 288.635 43.7698 288.181 43.8746C287.726 43.9794 287.285 44.1243 286.857 44.3093C286.455 44.4944 286.067 44.7196 285.692 44.985C285.344 45.2505 285.049 45.5562 284.807 45.9023C284.699 46.1155 284.591 46.4221 284.482 46.8222C284.4 47.2224 284.291 47.7025 284.155 48.2627C284.877 48.1325 285.665 48.0425 286.52 47.993C287.401 47.9435 288.23 47.8404 289.005 47.6837C289.807 47.5271 290.475 47.2898 291.011 46.9717C291.546 46.6537 291.842 46.1743 291.898 45.5337ZM58.137 90.276C58.3499 90.4372 58.4553 90.7447 58.4533 91.1987C58.4497 91.9998 58.1141 92.3989 57.4465 92.3959L57.2862 92.3952C57.2862 92.3952 57.0858 92.421 56.685 92.4726C56.3111 92.4976 55.8836 92.5357 55.4027 92.587C54.9218 92.6382 54.4542 92.7029 53.9998 92.7809C53.5723 92.8324 53.3184 92.8847 53.2381 92.9377L53.2363 93.3383C53.2349 93.632 53.2064 94.0325 53.1507 94.5396C53.0952 95.02 53.0665 95.4605 53.0647 95.8611C53.0641 95.9946 53.0635 96.1281 53.0629 96.2617C53.089 96.3953 53.1151 96.5289 53.1412 96.6626C53.0329 96.9825 52.9771 97.5164 52.9737 98.2641C52.9959 99.279 53.0192 100.04 53.0436 100.548C53.0681 101.028 53.1466 101.389 53.279 101.63C53.4115 101.871 53.6376 102.059 53.9575 102.194C54.2773 102.329 54.7437 102.531 55.3567 102.801C55.9967 103.018 56.3154 103.393 56.313 103.927C56.3115 104.274 56.1766 104.567 55.9085 104.807C55.6671 105.046 55.3461 105.165 54.9455 105.163C54.7586 105.162 54.4784 105.121 54.1049 105.039C53.7314 104.957 53.3447 104.848 52.9447 104.713C52.5716 104.551 52.2252 104.376 51.9056 104.188C51.5861 103.973 51.3735 103.745 51.2678 103.504C50.9504 102.808 50.6998 102.139 50.5157 101.498C50.3318 100.829 50.2415 100.134 50.2447 99.4135C50.2481 98.6658 50.2639 98.105 50.2923 97.7313C50.3207 97.3576 50.3487 97.0639 50.3764 96.8504C50.4041 96.6369 50.4316 96.4501 50.459 96.29C50.4866 96.1032 50.5011 95.8496 50.5025 95.5291C50.5035 95.3155 50.4911 95.1018 50.4654 94.888C50.4664 94.6477 50.4675 94.4207 50.4684 94.2071C50.4697 93.9133 50.4708 93.673 50.4717 93.4861C50.4993 93.2726 50.5268 93.0991 50.5541 92.9657C49.8329 93.0159 48.7638 93.2247 47.3468 93.5922C46.9195 93.5902 46.5461 93.4818 46.2266 93.2667C45.9071 93.0516 45.7483 92.7438 45.7501 92.3432C45.7506 92.2364 45.7913 92.0897 45.8723 91.9031C45.9532 91.7166 46.0875 91.5436 46.2752 91.3842C46.4896 91.1983 46.7707 91.0526 47.1183 90.9474C47.4928 90.8156 47.947 90.7508 48.4811 90.7532L48.7215 90.7543C49.309 90.757 49.9904 90.6399 50.7659 90.403C50.7661 90.3763 50.7665 90.2695 50.7674 90.0826C50.7951 89.8691 50.8094 89.6421 50.8105 89.4018C50.8384 89.1349 50.8529 88.8812 50.854 88.6409C50.8818 88.4007 50.8959 88.2272 50.8964 88.1204L50.8973 87.9201C50.9253 87.6265 50.9806 87.2128 51.0631 86.6791C51.1457 86.1186 51.2684 85.5717 51.431 85.0384C51.5938 84.4783 51.7962 83.9985 52.0383 83.5991C52.3072 83.1997 52.6285 83.0009 53.0024 83.0026C53.7234 83.0058 54.1626 83.3282 54.3199 83.9699C54.3197 84.0233 54.2788 84.21 54.1972 84.5301C54.1424 84.8503 54.074 85.2105 53.9921 85.6107C53.9102 86.0109 53.8283 86.3978 53.7465 86.7713C53.6647 87.1447 53.6236 87.3849 53.6231 87.4917C53.6228 87.5451 53.6088 87.6919 53.581 87.9322C53.5533 88.1724 53.5254 88.4393 53.4973 88.7329C53.496 89.0267 53.4813 89.3203 53.4533 89.614C53.4253 89.9076 53.411 90.1212 53.4104 90.2547C53.357 90.2544 53.7176 90.216 54.4924 90.1394C54.6259 90.14 54.7461 90.1405 54.8529 90.141C54.9866 90.1149 55.1068 90.1021 55.2136 90.1026C55.2937 90.1029 55.3604 90.1166 55.4137 90.1435C55.4671 90.1438 55.5205 90.144 55.5739 90.1443C55.8144 90.1186 56.0414 90.1063 56.2551 90.1073C56.4688 90.0815 56.6692 90.0691 56.8561 90.0699C57.4436 90.0726 57.8705 90.1412 58.137 90.276ZM68.5965 104.183C68.0876 104.528 66.7372 104.922 64.5454 105.366L62.8645 105.038C62.6513 104.957 62.2649 104.755 61.7056 104.432C61.173 104.109 60.6143 103.639 60.0296 103.023C59.4715 102.406 58.9677 101.629 58.5179 100.692C58.0948 99.7559 57.8862 98.6467 57.892 97.3649C57.8966 96.3235 58.1945 95.4035 58.7856 94.605C59.3768 93.7798 60.2754 92.9026 61.4813 91.9734C62.1229 91.8161 62.7508 91.7388 63.365 91.7415C65.1542 91.7496 66.7938 92.3578 68.2838 93.5662C69.5577 95.3345 70.1898 97.2734 70.1803 99.383C70.1729 101.039 69.6449 102.639 68.5965 104.183ZM64.9954 94.3926C64.5957 94.2039 64.1688 94.1085 63.7149 94.1065C63.3944 94.105 63.0469 94.1836 62.6723 94.3421C62.3245 94.5008 61.9896 94.7396 61.6677 95.0586C61.3725 95.3778 61.1303 95.7906 60.9411 96.2971C60.752 96.777 60.6559 97.3507 60.6529 98.0183C60.6505 98.5523 60.7149 99.0867 60.846 99.6214C61.0038 100.156 61.2286 100.651 61.5203 101.107C61.8387 101.562 62.2376 101.938 62.7169 102.234C63.1964 102.503 63.7699 102.639 64.4375 102.642C65.0517 102.645 65.7468 102.488 66.5226 102.171C67.1939 101.346 67.5322 100.359 67.5374 99.2109C67.5488 96.674 66.7015 95.0679 64.9954 94.3926ZM93.7681 90.6366C93.7407 90.7967 93.6726 91.0902 93.5639 91.517C93.4553 91.917 93.3198 92.3437 93.1576 92.797C93.022 93.2503 92.8865 93.6903 92.7511 94.117C92.6423 94.5438 92.5741 94.8773 92.5463 95.1175C92.3302 95.6506 92.1007 96.2104 91.8577 96.7968C91.6415 97.3833 91.3982 98.0231 91.1281 98.7162C91.1277 98.7964 91.033 99.0763 90.8439 99.5562C90.6549 100.009 90.4256 100.529 90.1559 101.115C89.9129 101.702 89.6567 102.275 89.3871 102.834C89.1444 103.367 88.9557 103.74 88.8213 103.953C88.0965 104.778 87.3064 105.295 86.4509 105.505C85.6784 105.074 84.8428 103.829 83.9442 101.768C83.7856 101.394 83.5481 100.765 83.2316 99.8824C82.9153 98.973 82.5333 97.7963 82.0859 96.3522C81.4931 97.5246 80.9141 98.5902 80.349 99.549C79.8106 100.508 79.2995 101.333 78.8157 102.026C78.3319 102.718 77.8755 103.263 77.4464 103.662C77.0174 104.06 76.6425 104.272 76.322 104.298C75.9758 104.082 75.5771 103.667 75.1259 103.05L73.9314 101.443C73.8257 101.202 73.6804 100.854 73.4955 100.399C73.3373 99.9447 73.1658 99.4766 72.9811 98.9951C72.7964 98.4869 72.6116 98.0187 72.4266 97.5906C72.2683 97.1626 72.1362 96.8415 72.0304 96.6274C71.9511 96.4401 71.8456 96.1326 71.714 95.7047C71.5826 95.2501 71.4512 94.7822 71.3198 94.3009C71.2153 93.7931 71.1239 93.3253 71.0457 92.8977C70.9676 92.4434 70.9291 92.1094 70.9301 91.8958C70.9319 91.4952 71.0401 91.1886 71.2547 90.9759C71.496 90.7634 71.7902 90.6579 72.1373 90.6594C72.8049 90.6624 73.2846 90.8916 73.5763 91.3469L73.928 93.3113C74.0843 94.1665 74.2949 94.8484 74.5597 95.357C75.2952 98.0575 75.9817 99.8097 76.6189 100.614C76.6994 100.534 76.8338 100.334 77.0222 100.015C77.2106 99.6951 77.399 99.3621 77.5875 99.0158C77.8028 98.6429 77.9913 98.2966 78.153 97.9769C78.3414 97.6573 78.4624 97.4709 78.516 97.4177C78.8377 97.1521 79.2007 96.5929 79.6051 95.7402L80.333 94.2213C81.1935 92.89 82.0515 92.1194 82.907 91.9096C82.9602 91.9633 83.0529 92.1373 83.1851 92.4316C83.3173 92.726 83.4493 93.0604 83.5811 93.4348C83.7131 93.7826 83.8451 94.117 83.9772 94.438C84.1361 94.7325 84.2554 94.92 84.3351 95.0004C84.6522 95.7496 84.955 96.7123 85.2434 97.8886C85.532 99.0382 86.073 100.469 86.8665 102.182C87.2967 101.516 87.593 100.957 87.7553 100.504C87.9442 100.05 88.093 99.6239 88.2016 99.2238C88.3371 98.7971 88.4594 98.3304 88.5685 97.8235C88.7043 97.3167 88.9208 96.6634 89.2182 95.8636C89.5155 95.0638 89.7184 94.4906 89.8268 94.1439C89.962 93.7706 90.0703 93.4373 90.1517 93.1439C90.2332 92.8506 90.3282 92.5038 90.4368 92.1037C90.5723 91.6771 90.7888 91.0238 91.0866 90.1439C91.4898 89.5582 91.9317 89.2664 92.4124 89.2686C93.0533 89.2715 93.5052 89.7275 93.7681 90.6366ZM108.559 101.278C108.932 101.52 109.117 101.815 109.116 102.162C109.114 102.536 108.925 102.896 108.55 103.241C108.175 103.586 107.813 103.758 107.466 103.757C106.64 103.459 105.921 102.909 105.31 102.105C104.727 101.301 104.33 100.431 104.121 99.4957C103.932 99.8955 103.703 100.402 103.433 101.015C103.19 101.601 102.867 102.161 102.464 102.693C102.061 103.225 101.565 103.69 100.975 104.088C100.386 104.459 99.651 104.643 98.7698 104.639C98.3158 104.637 97.7154 104.554 96.9684 104.391C96.1432 103.799 95.491 103.329 95.0119 102.98C94.5596 102.604 94.2141 102.255 93.9752 101.934C93.7363 101.612 93.591 101.251 93.5394 100.85C93.4878 100.449 93.4635 99.9151 93.4665 99.2475C93.469 98.6867 93.5519 98.0729 93.7151 97.406C93.9052 96.7125 94.162 96.0194 94.4856 95.3265C94.8092 94.6337 95.2128 93.9545 95.6965 93.2891C96.1801 92.6236 96.7437 92.012 97.3871 91.4541C98.5639 91.0588 99.4865 90.7692 100.155 90.5853C100.823 90.4013 101.278 90.3099 101.518 90.311C102.055 89.6992 102.617 89.3946 103.205 89.3973C103.525 89.3987 103.805 89.5869 104.043 89.9619C104.282 90.3368 104.493 90.8318 104.677 91.4468C104.888 92.0353 105.046 92.6902 105.149 93.4117C105.28 94.1333 105.383 94.8281 105.46 95.4961C105.54 95.63 105.606 95.7905 105.659 95.9777C105.711 96.1381 105.764 96.352 105.816 96.6193L106.051 97.7419C106.208 98.5171 106.512 99.1861 106.963 99.7489C107.415 100.312 107.947 100.821 108.559 101.278ZM102.935 95.9654C102.882 95.7248 102.791 95.3238 102.66 94.7625C102.529 94.2011 102.358 93.4793 102.149 92.5971C101.828 92.6758 101.481 92.7143 101.107 92.7126C100.733 92.6842 100.332 92.7491 99.9042 92.9074C99.4762 93.0657 99.0075 93.3574 98.4982 93.7824C98.0156 94.2075 97.5186 94.8728 97.0071 95.7785C96.3609 96.9506 96.0349 98.1909 96.029 99.4994C96.1877 99.8473 96.3332 100.155 96.4655 100.423C96.5979 100.664 96.7571 100.891 96.9431 101.106C97.1559 101.294 97.4087 101.482 97.7016 101.67C97.9945 101.858 98.3675 102.06 98.8205 102.276C99.2214 102.198 99.5556 102.106 99.8232 102C100.117 101.894 100.372 101.735 100.586 101.523C100.801 101.283 101.003 100.991 101.191 100.644C101.38 100.298 101.609 99.845 101.878 99.2854C102.58 97.7397 102.932 96.633 102.935 95.9654ZM120.091 91.7165C120.41 91.9316 120.569 92.3061 120.567 92.8402C120.562 93.8817 120.132 94.4005 119.278 94.3966C118.877 94.3948 118.477 94.2996 118.077 94.1108C117.678 93.9221 117.291 93.8269 116.917 93.8252C116.49 93.8233 116.075 93.9015 115.674 94.06C115.3 94.2185 114.871 94.537 114.388 95.0155L112.899 96.4509L112.896 97.2921C112.894 97.6926 112.879 98.1465 112.85 98.6538C112.847 99.1345 112.832 99.6551 112.802 100.216C112.825 101.204 112.939 102.54 113.145 104.223C113.06 105.184 112.578 105.663 111.696 105.659C111.216 105.656 110.869 105.535 110.657 105.293C110.471 105.025 110.339 104.678 110.261 104.25C110.183 103.822 110.145 103.342 110.147 102.808C110.149 102.273 110.125 101.726 110.074 101.165C110.102 101.031 110.116 100.871 110.117 100.684C110.117 100.497 110.118 100.297 110.119 100.084L110.122 99.4427L109.895 96.5175C109.869 96.3838 109.856 96.2636 109.856 96.1568C109.857 96.05 109.857 95.9432 109.858 95.8363C109.859 95.6227 109.887 95.3825 109.941 95.1157C109.679 94.1531 109.548 93.4449 109.55 92.9909C109.552 92.6171 109.66 92.3505 109.874 92.1912C110.089 92.0053 110.476 91.9136 111.037 91.9161C111.411 91.9178 111.704 92.0526 111.917 92.3206C112.129 92.5619 112.395 92.8702 112.714 93.2455L114.482 91.9716C114.937 91.6265 115.352 91.4014 115.727 91.2963C116.128 91.1913 116.515 91.1396 116.889 91.1413C117.45 91.1438 118.037 91.2132 118.651 91.3495L120.091 91.7165ZM133.972 85.4099C133.918 85.5432 133.877 85.7567 133.849 86.0503C133.821 86.3439 133.806 86.7177 133.804 87.1717C133.799 88.3199 133.808 89.2413 133.832 89.9357C133.856 90.6301 133.867 91.0575 133.866 91.2177L133.743 91.8981C133.822 92.1121 133.861 92.366 133.86 92.6597C133.859 92.7398 133.845 92.9 133.818 93.1402C133.79 93.3537 133.762 93.6073 133.734 93.9009C133.706 94.1678 133.678 94.4481 133.65 94.7417C133.622 95.0354 133.608 95.2756 133.607 95.4626C133.607 95.516 133.606 95.5694 133.606 95.6228C133.633 95.6763 133.646 95.7298 133.645 95.7832C133.509 96.3968 133.357 97.4643 133.19 98.9857C133.023 100.507 132.842 102.229 132.646 104.151C132.43 104.791 131.934 105.109 131.16 105.105C130.679 105.103 130.386 105.035 130.28 104.901C130.174 104.74 130.041 104.473 129.883 104.098C129.052 104.628 127.796 104.89 126.114 104.882C125.206 104.878 124.392 104.714 123.673 104.391C122.953 104.067 122.327 103.637 121.796 103.1C121.291 102.564 120.893 101.935 120.602 101.212C120.339 100.463 120.209 99.6616 120.213 98.8071C120.215 98.2997 120.271 97.8059 120.38 97.3258C120.515 96.819 120.678 96.3657 120.866 95.966C121.055 95.5396 121.257 95.1533 121.472 94.8071C121.714 94.461 121.943 94.1816 122.157 93.969C122.694 93.4106 123.471 92.8934 124.488 92.4172C125.531 91.9413 126.627 91.7059 127.775 91.711C128.844 91.7158 129.897 91.9743 130.936 92.4863L130.939 91.8454C130.942 91.2846 130.958 90.6972 130.987 90.0831C131.043 89.4692 131.1 88.8018 131.156 88.0811L131.009 85.3565C131.009 85.1696 130.997 84.996 130.971 84.8356C130.972 84.6754 130.972 84.5152 130.973 84.3549C130.976 83.6606 131.059 83.1403 131.22 82.7938C131.409 82.4208 131.784 82.2356 132.344 82.2381C132.692 82.2397 132.958 82.2943 133.145 82.4019C133.358 82.5097 133.504 82.6973 133.583 82.9647C133.689 83.2055 133.754 83.5263 133.779 83.927C133.83 84.3278 133.895 84.8221 133.972 85.4099ZM130.684 95.2491C130.019 94.6052 129.006 94.2802 127.644 94.2741C127.003 94.2712 126.455 94.3221 126.001 94.4269C125.573 94.5318 125.198 94.717 124.877 94.9826C124.555 95.2215 124.273 95.5407 124.031 95.9402C123.816 96.3131 123.587 96.7794 123.344 97.3391C123.155 97.8189 123.059 98.3392 123.056 98.9C123.052 99.9682 123.435 100.824 124.206 101.469C125.005 102.087 125.938 102.398 127.006 102.403C128.021 102.407 128.984 102.038 129.895 101.294C130.031 100.787 130.181 100.174 130.344 99.4536C130.534 98.7334 130.631 97.9995 130.635 97.2517C130.635 97.0915 130.623 96.9179 130.597 96.7308C130.598 96.5172 130.599 96.3303 130.599 96.17C130.6 95.9564 130.601 95.7828 130.602 95.6493C130.629 95.4892 130.656 95.3558 130.684 95.2491ZM146.863 101.09C146.779 101.864 146.496 102.597 146.012 103.289L144.56 105.326C144.319 105.538 143.945 105.71 143.437 105.841C142.928 105.999 142.407 106.117 141.873 106.195C141.365 106.299 140.897 106.377 140.47 106.429C140.069 106.481 139.855 106.506 139.828 106.506C139.561 106.505 139.215 106.45 138.788 106.341C138.388 106.259 137.987 106.164 137.587 106.055C137.187 105.947 136.841 105.838 136.547 105.73C136.254 105.649 136.094 105.608 136.067 105.608L136.027 105.608C135.733 105.58 135.413 105.512 135.067 105.403C134.747 105.295 134.427 105.16 134.107 104.998C133.814 104.837 133.575 104.662 133.388 104.474C133.176 104.26 133.07 104.032 133.071 103.792C133.072 103.498 133.221 103.205 133.516 102.913C133.811 102.594 134.105 102.435 134.399 102.436C137.091 103.516 139.239 104.06 140.841 104.067C141.428 104.07 141.923 103.952 142.325 103.713C142.753 103.475 143.075 103.223 143.289 102.957L144.137 101.438C144.139 101.091 144.034 100.744 143.822 100.395C143.636 100.047 143.371 99.7392 143.025 99.4706C142.706 99.1754 142.333 98.92 141.906 98.7045C141.48 98.4889 141.04 98.3401 140.587 98.2579C140.08 98.1755 139.56 98.0263 139.026 97.8103C138.52 97.5943 138.04 97.3385 137.588 97.0427C137.162 96.747 136.803 96.425 136.511 96.0765C136.245 95.7014 136.1 95.3002 136.075 94.8728C136.049 94.8727 136.024 94.3652 136.002 93.3503C136.057 92.95 136.112 92.6298 136.167 92.3897C136.221 92.1496 136.342 91.9365 136.53 91.7504C136.718 91.5376 136.999 91.3119 137.374 91.0733C137.776 90.8347 138.338 90.4901 139.061 90.0394C139.275 90.0136 139.662 89.9887 140.223 89.9645C140.811 89.9137 141.599 89.8372 142.588 89.7348C143.015 89.7367 144.108 90.0621 145.868 90.7109C146.134 90.9525 146.266 91.3136 146.264 91.7942C146.26 92.6221 145.978 93.0347 145.417 93.0322C145.39 93.0321 145.364 93.032 145.337 93.0318C145.31 93.005 145.27 92.9915 145.217 92.9912L143.777 92.5041C143.057 92.2872 142.443 92.1776 141.936 92.1753C141.188 92.172 140.587 92.2093 140.133 92.2874C139.705 92.3656 139.384 92.4709 139.17 92.6035C138.956 92.7094 138.809 92.8289 138.728 92.962C138.647 93.0952 138.593 93.2151 138.566 93.3218C138.566 93.4019 138.552 93.482 138.525 93.562C138.525 93.6154 138.524 93.6821 138.524 93.7622C138.519 94.8037 138.944 95.4465 139.797 95.6907C144.012 96.5642 146.368 98.364 146.863 101.09ZM176.161 101.583C176.534 101.825 176.72 102.119 176.718 102.466C176.716 102.84 176.528 103.2 176.152 103.545C175.777 103.891 175.416 104.063 175.069 104.061C174.242 103.764 173.524 103.213 172.913 102.409C172.329 101.605 171.932 100.736 171.723 99.8C171.534 100.2 171.305 100.706 171.035 101.319C170.792 101.906 170.469 102.465 170.066 102.997C169.663 103.529 169.167 103.995 168.578 104.392C167.989 104.764 167.253 104.947 166.372 104.943C165.918 104.941 165.318 104.858 164.571 104.695C163.746 104.104 163.093 103.633 162.614 103.284C162.162 102.908 161.816 102.559 161.578 102.238C161.339 101.916 161.193 101.555 161.142 101.154C161.09 100.754 161.066 100.219 161.069 99.5518C161.071 98.991 161.154 98.3772 161.318 97.7103C161.508 97.0168 161.764 96.3237 162.088 95.6308C162.412 94.938 162.815 94.2588 163.299 93.5934C163.783 92.9279 164.346 92.3163 164.99 91.7584C166.166 91.3631 167.089 91.0735 167.757 90.8896C168.426 90.7056 168.88 90.6142 169.121 90.6153C169.657 90.0035 170.22 89.6989 170.807 89.7016C171.128 89.703 171.407 89.8912 171.646 90.2662C171.884 90.6411 172.096 91.1361 172.28 91.7511C172.491 92.3396 172.648 92.9945 172.752 93.716C172.882 94.4376 172.986 95.1324 173.063 95.8004C173.142 95.9343 173.208 96.0948 173.261 96.282C173.314 96.4424 173.366 96.6563 173.418 96.9236L173.654 98.0462C173.81 98.8214 174.114 99.4904 174.566 100.053C175.017 100.616 175.549 101.126 176.161 101.583ZM170.537 96.2697C170.485 96.0291 170.393 95.6281 170.262 95.0668C170.131 94.5054 169.961 93.7836 169.751 92.9014C169.43 92.9801 169.083 93.0186 168.709 93.0169C168.335 92.9885 167.935 93.0534 167.507 93.2117C167.079 93.37 166.61 93.6617 166.101 94.0867C165.618 94.5118 165.121 95.1771 164.61 96.0828C163.963 97.2549 163.637 98.4952 163.631 99.8037C163.79 100.152 163.936 100.459 164.068 100.727C164.2 100.968 164.36 101.196 164.546 101.41C164.758 101.598 165.011 101.786 165.304 101.974C165.597 102.163 165.97 102.364 166.423 102.58C166.824 102.502 167.158 102.41 167.426 102.304C167.72 102.199 167.974 102.04 168.189 101.827C168.404 101.588 168.605 101.295 168.794 100.949C168.982 100.602 169.211 100.149 169.481 99.5897C170.182 98.044 170.534 96.9373 170.537 96.2697ZM200.507 101.332C200.423 102.106 200.139 102.839 199.656 103.531L198.204 105.567C197.963 105.78 197.588 105.952 197.08 106.083C196.572 106.241 196.051 106.359 195.517 106.436C195.009 106.541 194.541 106.619 194.114 106.67C193.713 106.722 193.499 106.748 193.472 106.748C193.205 106.746 192.858 106.692 192.432 106.583C192.031 106.501 191.631 106.406 191.231 106.297C190.831 106.188 190.484 106.08 190.191 105.972C189.898 105.89 189.738 105.85 189.711 105.849L189.671 105.849C189.377 105.821 189.057 105.753 188.711 105.645C188.391 105.536 188.071 105.401 187.751 105.24C187.458 105.078 187.218 104.904 187.032 104.716C186.82 104.501 186.714 104.274 186.715 104.033C186.716 103.74 186.864 103.447 187.16 103.154C187.455 102.835 187.749 102.676 188.043 102.677C190.735 103.758 192.882 104.302 194.485 104.309C195.072 104.311 195.567 104.193 195.968 103.955C196.397 103.717 196.718 103.464 196.933 103.198L197.781 101.68C197.783 101.333 197.678 100.985 197.465 100.637C197.28 100.289 197.014 99.9807 196.668 99.7121C196.349 99.4169 195.977 99.1615 195.55 98.9459C195.124 98.7304 194.684 98.5815 194.23 98.4994C193.723 98.417 193.203 98.2678 192.67 98.0517C192.164 97.8358 191.684 97.58 191.232 97.2842C190.806 96.9885 190.447 96.6664 190.154 96.318C189.889 95.9429 189.744 95.5417 189.719 95.1143C189.693 95.1142 189.668 94.6067 189.646 93.5918C189.701 93.1915 189.756 92.8713 189.811 92.6312C189.865 92.3911 189.986 92.178 190.174 91.9919C190.362 91.7791 190.643 91.5534 191.018 91.3147C191.42 91.0762 191.982 90.7316 192.705 90.2808C192.919 90.2551 193.306 90.2301 193.867 90.206C194.455 90.1552 195.243 90.0786 196.232 89.9763C196.659 89.9782 197.752 90.3036 199.512 90.9524C199.778 91.1939 199.91 91.555 199.908 92.0357C199.904 92.8635 199.622 93.2762 199.061 93.2737C199.034 93.2735 199.007 93.2734 198.981 93.2733C198.954 93.2465 198.914 93.2329 198.861 93.2327L197.421 92.7455C196.701 92.5287 196.087 92.4191 195.58 92.4168C194.832 92.4134 194.231 92.4508 193.777 92.5289C193.349 92.607 193.028 92.7124 192.814 92.845C192.6 92.9508 192.452 93.0703 192.372 93.2035C192.291 93.3367 192.237 93.4566 192.21 93.5633C192.209 93.6434 192.196 93.7234 192.169 93.8034C192.168 93.8568 192.168 93.9236 192.168 94.0037C192.163 95.0452 192.587 95.688 193.441 95.9322C197.656 96.8057 200.012 98.6055 200.507 101.332ZM215.716 91.1054C215.742 91.3993 215.754 91.6798 215.753 91.9468C215.778 92.214 215.79 92.4944 215.789 92.7882C215.786 93.4291 215.757 93.9764 215.701 94.4301C215.646 94.8571 215.577 95.3509 215.494 95.9113C215.412 96.445 215.302 97.1121 215.165 97.9126C215.055 98.6866 214.943 99.7275 214.831 101.036C214.83 101.116 214.816 101.196 214.789 101.276C214.789 101.329 214.789 101.396 214.788 101.476C214.787 101.903 214.824 102.371 214.902 102.879L215.056 104.361C215.053 105.056 214.611 105.401 213.729 105.397C213.355 105.395 213.076 105.3 212.889 105.113C212.703 104.898 212.571 104.657 212.492 104.39C212.413 104.096 212.375 103.802 212.376 103.508C212.377 103.188 212.379 102.921 212.38 102.707C212.381 102.44 212.395 102.24 212.422 102.106C211.778 102.744 211.202 103.249 210.693 103.621C210.211 103.966 209.756 104.217 209.328 104.376C208.926 104.534 208.525 104.626 208.125 104.651C207.751 104.676 207.35 104.687 206.923 104.685C205.481 104.679 204.374 104.273 203.604 103.469C202.86 102.664 202.491 101.474 202.498 99.8985C202.499 99.7116 202.5 99.498 202.501 99.2576C202.502 99.0173 202.517 98.737 202.545 98.4166C202.519 98.3097 202.506 98.1361 202.507 97.8957C202.509 97.5486 202.523 97.2282 202.552 96.9346C202.58 96.6142 202.635 96.2406 202.717 95.8137C202.826 95.3602 202.962 94.8134 203.125 94.1732C203.315 93.5064 203.559 92.653 203.857 91.6129C204.152 91.3204 204.487 91.1751 204.861 91.1768C205.208 91.1783 205.501 91.2731 205.741 91.4611C205.98 91.6491 206.099 91.9301 206.097 92.3039C206.097 92.4374 206.042 92.7176 205.933 93.1444C205.851 93.5713 205.756 94.0382 205.647 94.5451C205.538 95.052 205.428 95.5589 205.319 96.0658C205.237 96.5461 205.195 96.9197 205.194 97.1868L205.193 97.3871C205.138 97.7607 205.083 98.1076 205.028 98.4278C205 98.7481 204.986 99.0151 204.985 99.2287C204.981 100.057 205.138 100.778 205.456 101.394C205.8 101.983 206.44 102.28 207.374 102.284C207.989 102.287 208.563 102.156 209.099 101.891C209.634 101.626 210.116 101.308 210.545 100.936C210.974 100.538 211.35 100.112 211.672 99.6594C211.995 99.1802 212.237 98.7407 212.399 98.3408C212.455 97.8337 212.551 97.2333 212.688 96.5396C212.824 95.8191 213.002 94.9921 213.22 94.0584C213.194 93.8981 213.181 93.7378 213.182 93.5776C213.182 93.4173 213.183 93.2705 213.184 93.1369C213.185 92.8165 213.2 92.4961 213.228 92.1758C213.283 91.8289 213.351 91.5354 213.432 91.2955C213.54 91.0289 213.688 90.8159 213.876 90.6565C214.064 90.4705 214.318 90.3781 214.638 90.3796C215.226 90.3822 215.585 90.6242 215.716 91.1054ZM228.659 101.458C228.575 102.232 228.291 102.965 227.807 103.658L226.356 105.694C226.115 105.907 225.74 106.078 225.232 106.21C224.724 106.368 224.203 106.485 223.669 106.563C223.161 106.668 222.693 106.746 222.265 106.797C221.865 106.849 221.651 106.875 221.624 106.874C221.357 106.873 221.01 106.818 220.583 106.709C220.183 106.628 219.783 106.532 219.383 106.424C218.983 106.315 218.636 106.207 218.343 106.099C218.05 106.017 217.89 105.976 217.863 105.976L217.823 105.976C217.529 105.948 217.209 105.88 216.862 105.771C216.542 105.663 216.223 105.528 215.903 105.367C215.61 105.205 215.37 105.03 215.184 104.843C214.972 104.628 214.866 104.401 214.867 104.16C214.868 103.866 215.016 103.573 215.311 103.281C215.607 102.962 215.901 102.803 216.195 102.804C218.887 103.885 221.034 104.428 222.637 104.435C223.224 104.438 223.719 104.32 224.12 104.082C224.549 103.843 224.87 103.591 225.085 103.325L225.933 101.807C225.935 101.459 225.829 101.112 225.617 100.764C225.432 100.416 225.166 100.107 224.82 99.8388C224.501 99.5436 224.129 99.2882 223.702 99.0727C223.276 98.8571 222.836 98.7082 222.382 98.6261C221.875 98.5437 221.355 98.3945 220.822 98.1784C220.316 97.9625 219.836 97.7067 219.384 97.4109C218.958 97.1152 218.599 96.7931 218.306 96.4447C218.041 96.0696 217.896 95.6684 217.871 95.241C217.844 95.2409 217.82 94.7334 217.798 93.7185C217.853 93.3182 217.908 92.998 217.962 92.7579C218.017 92.5178 218.138 92.3047 218.326 92.1186C218.514 91.9058 218.795 91.6801 219.17 91.4414C219.572 91.2029 220.134 90.8583 220.857 90.4076C221.071 90.3818 221.458 90.3569 222.019 90.3327C222.607 90.2819 223.395 90.2054 224.384 90.103C224.811 90.1049 225.904 90.4303 227.664 91.0791C227.93 91.3207 228.062 91.6818 228.059 92.1624C228.056 92.9903 227.774 93.4029 227.213 93.4004C227.186 93.4003 227.159 93.4001 227.133 93.4C227.106 93.3732 227.066 93.3597 227.013 93.3594L225.573 92.8723C224.853 92.6554 224.239 92.5458 223.732 92.5435C222.984 92.5402 222.383 92.5775 221.929 92.6556C221.501 92.7338 221.18 92.8391 220.966 92.9717C220.752 93.0775 220.604 93.1971 220.524 93.3302C220.443 93.4634 220.389 93.5833 220.362 93.69C220.361 93.7701 220.348 93.8502 220.321 93.9302C220.32 93.9836 220.32 94.0503 220.32 94.1304C220.315 95.1719 220.739 95.8147 221.593 96.0589C225.808 96.9324 228.163 98.7322 228.659 101.458ZM240.264 91.0958C240.477 91.257 240.582 91.5645 240.58 92.0185C240.576 92.8196 240.241 93.2187 239.573 93.2157L239.413 93.215C239.413 93.215 239.213 93.2408 238.812 93.2924C238.438 93.3174 238.01 93.3555 237.53 93.4068C237.049 93.458 236.581 93.5227 236.127 93.6007C235.699 93.6522 235.445 93.7045 235.365 93.7575L235.363 94.1581C235.362 94.4518 235.333 94.8523 235.278 95.3594C235.222 95.8398 235.193 96.2803 235.191 96.6809C235.191 96.8144 235.19 96.9479 235.19 97.0815C235.216 97.2151 235.242 97.3487 235.268 97.4824C235.16 97.8024 235.104 98.3362 235.101 99.0839C235.123 100.099 235.146 100.86 235.17 101.367C235.195 101.848 235.273 102.209 235.406 102.45C235.538 102.691 235.764 102.879 236.084 103.014C236.404 103.149 236.871 103.351 237.484 103.621C238.123 103.838 238.442 104.213 238.44 104.747C238.438 105.094 238.303 105.387 238.035 105.626C237.794 105.866 237.473 105.984 237.072 105.983C236.885 105.982 236.605 105.94 236.232 105.859C235.858 105.777 235.471 105.668 235.072 105.533C234.698 105.371 234.352 105.196 234.032 105.008C233.713 104.792 233.5 104.564 233.395 104.324C233.077 103.628 232.827 102.959 232.643 102.317C232.459 101.649 232.368 100.954 232.372 100.233C232.375 99.4856 232.391 98.9248 232.419 98.5511C232.448 98.1774 232.476 97.8837 232.503 97.6702C232.531 97.4567 232.558 97.2699 232.586 97.1098C232.613 96.923 232.628 96.6694 232.629 96.3489C232.63 96.1353 232.618 95.9216 232.592 95.7078C232.593 95.4675 232.594 95.2405 232.595 95.0269C232.597 94.7331 232.598 94.4928 232.598 94.3059C232.626 94.0924 232.654 93.9189 232.681 93.7855C231.96 93.8357 230.891 94.0445 229.474 94.412C229.046 94.4101 228.673 94.3016 228.353 94.0865C228.034 93.8714 227.875 93.5636 227.877 93.163C227.877 93.0562 227.918 92.9095 227.999 92.723C228.08 92.5364 228.214 92.3634 228.402 92.204C228.616 92.0181 228.898 91.8725 229.245 91.7672C229.62 91.6354 230.074 91.5706 230.608 91.573L230.848 91.5741C231.436 91.5768 232.117 91.4597 232.893 91.2228C232.893 91.1961 232.893 91.0893 232.894 90.9024C232.922 90.6889 232.936 90.4619 232.937 90.2216C232.965 89.9547 232.98 89.7011 232.981 89.4607C233.009 89.2205 233.023 89.047 233.023 88.9402L233.024 88.7399C233.052 88.4463 233.107 88.0326 233.19 87.4989C233.273 86.9384 233.395 86.3916 233.558 85.8582C233.721 85.2981 233.923 84.8184 234.165 84.4189C234.434 84.0195 234.755 83.8207 235.129 83.8224C235.85 83.8256 236.289 84.148 236.447 84.7897C236.446 84.8431 236.406 85.0298 236.324 85.3499C236.269 85.6701 236.201 86.0303 236.119 86.4305C236.037 86.8307 235.955 87.2176 235.873 87.5911C235.792 87.9646 235.75 88.2047 235.75 88.3115C235.75 88.3649 235.736 88.5117 235.708 88.752C235.68 88.9922 235.652 89.2591 235.624 89.5527C235.623 89.8465 235.608 90.1402 235.58 90.4338C235.552 90.7274 235.538 90.941 235.537 91.0745C235.484 91.0743 235.844 91.0358 236.619 90.9592C236.753 90.9598 236.873 90.9603 236.98 90.9608C237.113 90.9347 237.234 90.9219 237.34 90.9224C237.421 90.9227 237.487 90.9364 237.541 90.9633C237.594 90.9636 237.647 90.9638 237.701 90.9641C237.941 90.9384 238.168 90.9261 238.382 90.9271C238.596 90.9013 238.796 90.8889 238.983 90.8897C239.57 90.8924 239.997 90.9611 240.264 91.0958ZM255.023 101.938C255.396 102.18 255.582 102.474 255.58 102.821C255.578 103.195 255.39 103.555 255.014 103.9C254.639 104.246 254.278 104.418 253.931 104.416C253.104 104.119 252.385 103.568 251.775 102.764C251.191 101.96 250.794 101.091 250.585 100.155C250.396 100.555 250.167 101.061 249.897 101.674C249.654 102.261 249.331 102.82 248.928 103.352C248.525 103.884 248.029 104.349 247.44 104.747C246.851 105.119 246.115 105.302 245.234 105.298C244.78 105.296 244.18 105.213 243.433 105.05C242.608 104.459 241.955 103.988 241.476 103.639C241.024 103.263 240.678 102.914 240.44 102.593C240.201 102.271 240.055 101.91 240.004 101.509C239.952 101.109 239.928 100.574 239.931 99.9068C239.933 99.346 240.016 98.7322 240.18 98.0653C240.37 97.3718 240.626 96.6787 240.95 95.9858C241.274 95.2929 241.677 94.6138 242.161 93.9484C242.645 93.2829 243.208 92.6712 243.852 92.1133C245.028 91.7181 245.951 91.4285 246.619 91.2446C247.288 91.0606 247.742 90.9692 247.983 90.9703C248.519 90.3585 249.082 90.0539 249.669 90.0566C249.989 90.058 250.269 90.2462 250.508 90.6211C250.746 90.9961 250.958 91.4911 251.142 92.1061C251.353 92.6946 251.51 93.3495 251.614 94.071C251.744 94.7926 251.848 95.4874 251.925 96.1554C252.004 96.2893 252.07 96.4498 252.123 96.6369C252.176 96.7974 252.228 97.0113 252.28 97.2786L252.516 98.4012C252.672 99.1764 252.976 99.8453 253.428 100.408C253.879 100.971 254.411 101.481 255.023 101.938ZM249.399 96.6247C249.347 96.3841 249.255 95.9831 249.124 95.4217C248.993 94.8604 248.823 94.1386 248.613 93.2564C248.292 93.335 247.945 93.3735 247.571 93.3719C247.197 93.3435 246.797 93.4084 246.369 93.5667C245.941 93.725 245.472 94.0167 244.963 94.4416C244.48 94.8667 243.983 95.5321 243.472 96.4378C242.825 97.6099 242.499 98.8502 242.493 100.159C242.652 100.507 242.798 100.814 242.93 101.082C243.062 101.323 243.222 101.551 243.407 101.765C243.62 101.953 243.873 102.141 244.166 102.329C244.459 102.518 244.832 102.719 245.285 102.935C245.686 102.857 246.02 102.765 246.288 102.659C246.582 102.554 246.836 102.395 247.051 102.182C247.266 101.943 247.467 101.65 247.656 101.303C247.844 100.957 248.073 100.504 248.343 99.9447C249.044 98.3989 249.396 97.2923 249.399 96.6247ZM260.808 87.7033C260.806 88.1573 260.724 88.5308 260.563 88.8238C260.428 89.0902 260.24 89.2897 259.999 89.4221C259.758 89.5545 259.491 89.6468 259.197 89.6989C258.93 89.7244 258.663 89.7365 258.396 89.7353C258.023 89.4666 257.704 89.1714 257.438 88.8498C257.2 88.5015 257.081 88.1672 257.082 87.8468C257.083 87.6064 257.191 87.3399 257.406 87.0471C257.621 86.7276 257.81 86.4213 257.971 86.1283L259.813 86.2968C260.48 86.4601 260.812 86.9289 260.808 87.7033ZM259.42 93.5053L259.419 93.6655C259.418 93.9059 259.377 94.3062 259.294 94.8667C259.238 95.4005 259.141 96.1077 259.004 96.9884C259.03 97.122 259.043 97.309 259.041 97.5493C259.041 97.7096 258.986 98.0698 258.876 98.6301C258.767 99.1904 258.711 99.6709 258.71 100.071C258.709 100.152 258.709 100.232 258.709 100.312C258.735 100.392 258.748 100.459 258.748 100.512C258.666 100.886 258.623 101.42 258.62 102.114C258.619 102.408 258.618 102.728 258.616 103.075C258.641 103.396 258.666 103.743 258.691 104.117C258.474 104.891 258.059 105.276 257.444 105.273C256.91 105.271 256.538 104.989 256.327 104.427C256.142 103.839 256.052 103.077 256.057 102.142C256.061 101.208 256.091 100.353 256.148 99.5792C256.232 98.8052 256.329 98.0846 256.438 97.4175C256.548 96.7236 256.658 96.0699 256.768 95.4561C256.904 94.8159 257.027 94.1888 257.137 93.5751C257.405 93.1758 257.78 92.9772 258.261 92.9793C258.768 92.9816 259.155 93.1569 259.42 93.5053ZM276.139 101.792L276.137 102.113C276.136 102.246 276.135 102.513 276.133 102.914C276.159 103.288 276.13 103.675 276.048 104.075C275.966 104.475 275.818 104.835 275.603 105.155C275.414 105.474 275.106 105.633 274.679 105.631C273.905 105.628 273.439 105.318 273.281 104.704C273.309 104.49 273.323 104.263 273.325 104.023C273.352 103.756 273.367 103.475 273.368 103.182C273.371 102.674 273.347 102.1 273.296 101.459C273.272 100.818 273.235 100.11 273.185 99.3355L272.874 97.4113C272.77 96.7699 272.598 96.2751 272.36 95.9269C272.121 95.552 271.855 95.2837 271.562 95.1222C271.269 94.9339 270.963 94.8257 270.642 94.7976C270.349 94.7428 270.095 94.715 269.881 94.714C269.08 94.7104 268.398 94.9477 267.835 95.4259C267.273 95.8773 266.801 96.7831 266.421 98.1434C266.392 98.5972 266.35 99.091 266.294 99.6249C266.265 100.159 266.196 100.746 266.086 101.386C266.135 102.348 266.21 103.577 266.31 105.073C266.306 105.901 265.837 106.312 264.902 106.308C264.528 106.306 264.235 106.198 264.022 105.984C263.837 105.769 263.691 105.502 263.585 105.181C263.507 104.833 263.455 104.472 263.43 104.098C263.405 103.724 263.393 103.377 263.395 103.057C263.396 102.763 263.411 102.469 263.439 102.176C263.467 101.882 263.508 101.575 263.563 101.255L263.942 97.1308C263.97 96.8372 264.012 96.5169 264.067 96.17C264.148 95.8232 264.244 95.4364 264.352 95.0096C264.275 94.4218 264.038 93.7264 263.641 92.9234L263.641 92.7632C263.643 92.4695 263.777 92.1897 264.046 91.9238C264.341 91.6581 264.675 91.5261 265.049 91.5278C265.423 91.5295 265.729 91.6644 265.968 91.9325C266.208 92.1739 266.513 92.5892 266.884 93.1784C267.099 92.9924 267.447 92.8204 267.928 92.6623C268.436 92.4777 269.011 92.3868 269.652 92.3897C271.094 92.3962 272.334 92.7089 273.373 93.3278C274.411 93.9466 275.074 95.0445 275.361 96.6214C275.438 97.2359 275.503 97.7436 275.554 98.1444C275.606 98.5185 275.658 98.8793 275.709 99.2266C275.788 99.5475 275.853 99.9083 275.905 100.309C275.983 100.683 276.061 101.178 276.139 101.792ZM293.026 102.109C293.399 102.351 293.585 102.645 293.583 102.992C293.582 103.366 293.393 103.726 293.018 104.071C292.642 104.417 292.281 104.589 291.934 104.587C291.107 104.29 290.389 103.739 289.778 102.935C289.194 102.131 288.798 101.262 288.588 100.326C288.399 100.726 288.17 101.232 287.9 101.845C287.657 102.432 287.334 102.991 286.931 103.523C286.528 104.055 286.032 104.521 285.443 104.918C284.854 105.29 284.119 105.473 283.237 105.469C282.783 105.467 282.183 105.384 281.436 105.221C280.611 104.63 279.959 104.159 279.48 103.81C279.027 103.434 278.682 103.085 278.443 102.764C278.204 102.442 278.059 102.081 278.007 101.68C277.955 101.28 277.931 100.745 277.934 100.078C277.937 99.5171 278.02 98.9032 278.183 98.2364C278.373 97.5429 278.63 96.8497 278.953 96.1569C279.277 95.464 279.68 94.7849 280.164 94.1194C280.648 93.454 281.211 92.8423 281.855 92.2844C283.031 91.8891 283.954 91.5995 284.623 91.4156C285.291 91.2317 285.745 91.1403 285.986 91.1414C286.523 90.5296 287.085 90.225 287.672 90.2276C287.993 90.2291 288.272 90.4173 288.511 90.7922C288.75 91.1671 288.961 91.6621 289.145 92.2772C289.356 92.8656 289.513 93.5206 289.617 94.2421C289.747 94.9637 289.851 95.6585 289.928 96.3264C290.008 96.4603 290.074 96.6208 290.126 96.808C290.179 96.9685 290.231 97.1823 290.283 97.4496L290.519 98.5723C290.675 99.3474 290.98 100.016 291.431 100.579C291.882 101.142 292.414 101.652 293.026 102.109ZM287.402 96.7958C287.35 96.5552 287.258 96.1542 287.127 95.5928C286.996 95.0314 286.826 94.3096 286.616 93.4274C286.296 93.5061 285.948 93.5446 285.574 93.5429C285.201 93.5145 284.8 93.5795 284.372 93.7378C283.944 93.8961 283.475 94.1877 282.966 94.6127C282.483 95.0378 281.986 95.7032 281.475 96.6088C280.829 97.7809 280.503 99.0212 280.497 100.33C280.655 100.678 280.801 100.985 280.933 101.253C281.066 101.494 281.225 101.722 281.411 101.936C281.623 102.124 281.876 102.312 282.169 102.5C282.462 102.689 282.835 102.891 283.288 103.106C283.689 103.028 284.023 102.936 284.291 102.83C284.585 102.725 284.839 102.566 285.054 102.353C285.269 102.114 285.47 101.821 285.659 101.475C285.847 101.128 286.076 100.675 286.346 100.116C287.047 98.57 287.399 97.4634 287.402 96.7958ZM306.19 94.8775C306.826 96.1355 307.141 97.2718 307.136 98.2866C307.108 98.6603 307.066 99.0473 307.011 99.4477C306.956 99.8213 306.834 100.195 306.645 100.568L305.756 102.446L304.508 103.763C303.596 104.613 302.739 105.183 301.937 105.473C301.134 105.737 300.466 105.867 299.932 105.865C299.238 105.862 298.478 105.605 297.652 105.094C297.41 105.52 297.022 105.732 296.488 105.729C296.087 105.727 295.674 105.605 295.248 105.363C295.276 104.989 295.291 104.576 295.293 104.122C295.322 103.641 295.338 103.12 295.34 102.56C295.314 102.506 295.288 102.306 295.263 101.958C295.238 101.584 295.2 101.144 295.149 100.636C295.124 100.129 295.087 99.5943 295.036 99.0332C294.985 98.4455 294.934 97.9112 294.883 97.4303C294.832 96.9227 294.78 96.4952 294.728 96.1478C294.677 95.7737 294.638 95.5599 294.611 95.5063L294.072 90.7371C293.943 89.5883 293.774 88.5994 293.564 87.7706C293.355 86.9418 293.25 86.3405 293.252 85.9667C293.257 84.9786 293.686 84.4865 294.541 84.4904C295.075 84.4928 295.488 84.6949 295.78 85.0968C296.098 85.4988 296.322 86.3009 296.45 87.5032C296.5 88.1177 296.565 88.6387 296.643 89.0663C296.721 89.4672 296.787 89.788 296.839 90.0286L296.838 90.1487C296.838 90.2288 296.85 90.5093 296.875 90.9901C296.926 91.471 296.964 91.9786 296.988 92.5128C297.039 93.0204 297.077 93.4879 297.102 93.9153C297.153 94.3161 297.179 94.4898 297.18 94.4363C297.769 94.0117 298.278 93.6802 298.706 93.4418C299.161 93.1768 299.59 92.9918 299.991 92.8868C300.418 92.7552 300.846 92.677 301.273 92.6522C301.701 92.6007 302.208 92.5763 302.796 92.579L304.396 93.1069C305.195 93.5111 305.793 94.1013 306.19 94.8775ZM304.246 99.6756C304.41 98.8752 304.493 98.288 304.494 97.9142C304.495 97.7272 304.443 97.4733 304.338 97.1524C304.232 96.8047 304.074 96.4836 303.861 96.1889C303.649 95.8675 303.383 95.5992 303.064 95.3841C302.744 95.1424 302.371 95.0205 301.944 95.0186C301.463 95.0164 300.821 95.2272 300.018 95.6508C299.242 96.0479 298.466 96.4717 297.689 96.9222C297.817 98.0977 297.93 99.7539 298.027 101.891C298.343 102.907 298.875 103.417 299.623 103.42C300.077 103.422 300.745 103.238 301.628 102.868L303.237 101.474C303.8 100.889 304.137 100.289 304.246 99.6756ZM313.481 84.856C313.453 85.1496 313.398 85.5099 313.316 85.9368C313.234 86.3637 313.139 86.8039 313.03 87.2574C312.921 87.6842 312.813 88.0976 312.704 88.4977C312.622 88.8979 312.554 89.218 312.499 89.4581C312.525 89.5918 312.538 89.712 312.538 89.8188C312.537 89.9256 312.537 90.0458 312.536 90.1793C312.535 90.393 312.507 90.6732 312.452 91.0201C312.397 91.3671 312.329 91.7273 312.247 92.1008C312.165 92.4743 312.097 92.8345 312.042 93.1814C311.987 93.5016 311.959 93.7551 311.958 93.9421C311.957 94.2091 311.955 94.5963 311.953 95.1037C311.978 95.6112 311.988 96.172 311.986 96.7862C311.983 97.3737 311.954 97.9878 311.897 98.6285C311.841 99.2691 311.745 99.8428 311.609 100.35C311.634 100.67 311.646 100.991 311.645 101.311C311.643 101.632 311.669 101.979 311.72 102.353C311.799 102.7 311.917 103.088 312.076 103.516C312.261 103.944 312.552 104.4 312.951 104.882C312.869 105.175 312.614 105.455 312.186 105.72C311.784 105.958 311.37 106.077 310.942 106.075C310.382 106.072 309.916 105.763 309.545 105.147C309.2 104.505 309.032 103.342 309.04 101.66C309.041 101.366 309.055 101.113 309.083 100.899C309.138 100.659 309.166 100.379 309.167 100.058C309.17 99.3906 309.093 98.5891 308.937 97.6538C309.045 97.3872 309.127 97.0137 309.183 96.5333C309.265 96.053 309.321 95.5859 309.349 95.132C309.378 94.6515 309.393 94.251 309.395 93.9305C309.423 93.5835 309.437 93.4233 309.437 93.45C309.437 93.4233 309.465 93.2098 309.52 92.8095C309.602 92.4093 309.684 91.929 309.767 91.3686C309.85 90.8081 309.919 90.2477 309.975 89.6871C310.057 89.1 310.1 88.6328 310.101 88.2857L310.103 87.9652C310.185 87.4849 310.281 86.9513 310.39 86.3643C310.5 85.7773 310.623 85.1369 310.759 84.4432C311.002 84.0437 311.403 83.8452 311.964 83.8478C312.658 83.8509 313.164 84.187 313.481 84.856ZM329.714 104.677C328.855 105.528 327.851 106.258 326.7 106.867C325.549 107.476 324.372 107.778 323.171 107.772C322.663 107.77 321.502 107.578 319.688 107.196C319.209 106.873 318.703 106.47 318.172 105.987C317.64 105.504 317.148 104.954 316.697 104.338C316.272 103.695 315.915 103.026 315.624 102.33C315.361 101.608 315.23 100.86 315.234 100.086L315.234 100.126C315.262 99.8854 315.289 99.6051 315.318 99.2848C315.346 98.9911 315.374 98.6575 315.402 98.2837C315.431 97.8833 315.473 97.4161 315.529 96.8823C316.067 96.0302 316.618 95.1915 317.182 94.3662C317.774 93.541 318.631 92.8105 319.756 92.1746C321.467 91.7817 322.749 91.5872 323.604 91.5911C324.005 91.5929 324.352 91.6212 324.645 91.6759C324.965 91.704 325.259 91.7988 325.525 91.9602C325.818 92.0951 326.098 92.2833 326.364 92.5248C326.656 92.7665 327.002 93.0885 327.401 93.4908C327.693 93.8126 327.919 94.054 328.079 94.2149C328.238 94.3492 328.358 94.4565 328.438 94.537C328.517 94.6175 328.557 94.6844 328.557 94.7378C328.557 94.7912 328.556 94.8713 328.556 94.9782C328.551 95.9395 328.441 96.7134 328.225 97.3C328.035 97.8866 327.659 98.3656 327.097 98.7369C326.561 99.1084 325.812 99.4388 324.849 99.7282C323.887 99.9909 322.643 100.292 321.12 100.633L320.879 100.632C320.399 100.63 319.544 100.732 318.314 100.941C319.263 103.776 320.792 105.198 322.902 105.207C324.397 105.214 326.096 104.461 327.999 102.947C328.187 102.788 328.428 102.709 328.721 102.71C329.549 102.714 329.961 103.116 329.958 103.917C329.956 104.184 329.875 104.438 329.714 104.677ZM325.909 95.6873C325.193 94.4823 324.381 93.8778 323.474 93.8737C323.073 93.8719 322.645 93.9234 322.191 94.0282C321.737 94.133 321.295 94.2779 320.867 94.4629C320.466 94.648 320.078 94.8732 319.702 95.1386C319.354 95.4041 319.059 95.7098 318.817 96.0559C318.709 96.2691 318.601 96.5757 318.493 96.9758C318.411 97.376 318.302 97.8561 318.166 98.4163C318.887 98.2861 319.675 98.1961 320.53 98.1466C321.412 98.0971 322.24 97.994 323.015 97.8373C323.817 97.6807 324.486 97.4434 325.021 97.1253C325.557 96.8073 325.853 96.3279 325.909 95.6873ZM57.3436 141.955L55.1398 142.106C54.9528 142.105 54.6188 142.157 54.1376 142.261C53.6833 142.339 53.2826 142.378 52.9354 142.376C52.96 142.857 52.9973 143.458 53.0475 144.179C53.1243 144.901 53.1878 145.635 53.2378 146.383C53.3146 147.131 53.3916 147.826 53.4688 148.467C53.546 149.108 53.6106 149.603 53.6624 149.95C53.6351 150.083 53.6076 150.257 53.5799 150.47C53.579 150.684 53.5778 150.938 53.5765 151.232C53.573 152.006 53.6085 153.034 53.6828 154.316C53.3064 154.875 52.7844 155.154 52.1168 155.151C51.5026 155.148 51.0766 154.865 50.8388 154.304C50.8399 154.063 50.8411 153.796 50.8424 153.502C50.8706 153.182 50.8855 152.835 50.8872 152.461C50.8889 152.087 50.8774 151.673 50.8527 151.219C50.8549 150.739 50.8572 150.231 50.8596 149.697L50.8606 149.457C50.8623 149.083 50.8243 148.629 50.7466 148.094C50.6689 147.56 50.5648 146.945 50.4344 146.25L50.1705 142.604C49.9568 142.603 49.663 142.628 49.2889 142.68C48.9415 142.732 48.5005 142.81 47.9659 142.914C47.8858 142.914 47.8057 142.914 47.7256 142.913C47.6723 142.886 47.6056 142.873 47.5255 142.872C47.2852 142.871 47.0714 142.897 46.8842 142.95C46.6972 142.976 46.6171 142.975 46.6439 142.949C46.0303 142.812 45.7251 142.384 45.7284 141.663C45.7313 141.022 46.0267 140.649 46.6147 140.545C46.6414 140.545 46.668 140.559 46.6946 140.585C46.748 140.586 46.8014 140.586 46.8548 140.586C46.9883 140.587 47.1486 140.574 47.3357 140.548C47.5494 140.523 47.7498 140.497 47.9369 140.471C48.124 140.418 48.2711 140.379 48.378 140.353C48.5117 140.327 48.5651 140.313 48.5384 140.313C48.7256 140.261 48.9394 140.222 49.1799 140.196C49.4203 140.17 49.7142 140.145 50.0615 140.12L49.7591 136.113L49.7601 135.873C49.7648 134.831 50.2245 133.565 51.1392 132.073C51.4069 131.914 51.6613 131.769 51.9022 131.636C52.1699 131.504 52.4775 131.385 52.8251 131.28C53.1729 131.148 53.6007 131.03 54.1085 130.925C54.6164 130.821 55.2711 130.717 56.0727 130.613L56.273 130.614C56.9673 130.617 57.3126 131.033 57.3089 131.861C57.306 132.502 56.997 132.928 56.3818 133.138L56.1415 133.137C55.7409 133.136 55.3267 133.214 54.8987 133.372L53.7749 133.848C53.32 134.059 53.0249 134.352 52.8897 134.725C52.7547 135.072 52.6462 135.445 52.5642 135.845C52.5641 135.872 52.5636 135.992 52.5626 136.206C52.5885 136.393 52.6008 136.62 52.5996 136.887C52.5985 137.127 52.5974 137.367 52.5964 137.608C52.622 137.848 52.6346 138.022 52.6341 138.129L52.6326 138.449C52.6317 138.663 52.644 138.89 52.6696 139.13C52.6952 139.371 52.7475 139.638 52.8262 139.932C53.7609 139.936 54.4688 139.873 54.9501 139.741C55.4314 139.61 55.859 139.545 56.2328 139.547C56.6334 139.549 57.0202 139.631 57.3934 139.792C57.7933 139.928 57.9921 140.262 57.9897 140.797C57.9869 141.411 57.7715 141.797 57.3436 141.955ZM71.9936 140.459C72.019 140.753 72.0311 141.033 72.0299 141.3C72.0554 141.568 72.0675 141.848 72.0661 142.142C72.0632 142.783 72.0341 143.33 71.9786 143.784C71.9233 144.211 71.8543 144.704 71.7717 145.265C71.6892 145.799 71.5793 146.466 71.4422 147.266C71.3319 148.04 71.2204 149.081 71.1077 150.389C71.1073 150.469 71.0936 150.549 71.0666 150.629C71.0663 150.683 71.066 150.749 71.0657 150.83C71.0637 151.257 71.1017 151.724 71.1795 152.232L71.3331 153.715C71.3299 154.409 70.8878 154.754 70.0065 154.75C69.6327 154.749 69.3527 154.654 69.1666 154.466C68.9806 154.252 68.8482 154.011 68.7693 153.743C68.6905 153.449 68.6518 153.155 68.6531 152.862C68.6545 152.541 68.6557 152.274 68.6567 152.06C68.6579 151.793 68.6722 151.593 68.6995 151.46C68.0557 152.098 67.4793 152.603 66.9702 152.974C66.488 153.319 66.0329 153.571 65.6049 153.729C65.2036 153.888 64.8026 153.979 64.4019 154.004C64.028 154.029 63.6273 154.041 63.2001 154.039C61.758 154.032 60.6516 153.627 59.8808 152.822C59.1367 152.018 58.7682 150.828 58.7753 149.252C58.7761 149.065 58.7771 148.852 58.7782 148.611C58.7793 148.371 58.7939 148.091 58.822 147.77C58.7958 147.663 58.7832 147.49 58.7843 147.249C58.7859 146.902 58.8007 146.582 58.8287 146.288C58.8568 145.968 58.9119 145.594 58.994 145.167C59.1028 144.714 59.2388 144.167 59.4019 143.527C59.5919 142.86 59.836 142.007 60.1345 140.966C60.4295 140.674 60.764 140.529 61.1379 140.53C61.485 140.532 61.7783 140.627 62.0178 140.815C62.2573 141.003 62.3762 141.284 62.3745 141.657C62.3739 141.791 62.3193 142.071 62.2105 142.498C62.1285 142.925 62.0329 143.392 61.9238 143.899C61.8147 144.406 61.7056 144.912 61.5965 145.419C61.5143 145.9 61.4725 146.273 61.4713 146.54L61.4704 146.741C61.4153 147.114 61.3604 147.461 61.3055 147.781C61.2774 148.102 61.2628 148.369 61.2618 148.582C61.2581 149.41 61.4151 150.132 61.7328 150.748C62.0773 151.337 62.7169 151.633 63.6515 151.637C64.2657 151.64 64.8404 151.509 65.3757 151.245C65.911 150.98 66.3931 150.662 66.8221 150.29C67.2511 149.891 67.6269 149.466 67.9494 149.013C68.272 148.534 68.5143 148.094 68.6764 147.694C68.7321 147.187 68.8282 146.587 68.9649 145.893C69.1016 145.173 69.2789 144.346 69.4968 143.412C69.4708 143.252 69.4582 143.091 69.4589 142.931C69.4596 142.771 69.4603 142.624 69.4609 142.491C69.4623 142.17 69.4771 141.85 69.5052 141.529C69.5602 141.182 69.6283 140.889 69.7095 140.649C69.8175 140.382 69.9653 140.169 70.153 140.01C70.3408 139.824 70.5949 139.732 70.9153 139.733C71.5028 139.736 71.8622 139.978 71.9936 140.459ZM84.3818 140.395C84.5947 140.556 84.7001 140.863 84.6981 141.317C84.6945 142.118 84.3589 142.518 83.6913 142.515L83.5311 142.514C83.5311 142.514 83.3307 142.54 82.9299 142.591C82.5559 142.616 82.1284 142.654 81.6475 142.706C81.1666 142.757 80.699 142.821 80.2447 142.9C79.8171 142.951 79.5632 143.003 79.4829 143.056L79.4811 143.457C79.4797 143.751 79.4512 144.151 79.3955 144.658C79.34 145.139 79.3113 145.579 79.3095 145.98C79.3089 146.113 79.3083 146.247 79.3077 146.38C79.3338 146.514 79.3599 146.648 79.386 146.781C79.2777 147.101 79.2219 147.635 79.2185 148.383C79.2407 149.398 79.264 150.159 79.2884 150.666C79.3129 151.147 79.3914 151.508 79.5239 151.749C79.6563 151.99 79.8824 152.178 80.2023 152.313C80.5221 152.448 80.9885 152.65 81.6015 152.92C82.2415 153.136 82.5602 153.512 82.5578 154.046C82.5563 154.393 82.4214 154.686 82.1533 154.925C81.9119 155.164 81.5909 155.283 81.1903 155.281C81.0034 155.281 80.7232 155.239 80.3497 155.157C79.9762 155.076 79.5895 154.967 79.1895 154.832C78.8164 154.67 78.47 154.495 78.1504 154.306C77.8309 154.091 77.6183 153.863 77.5126 153.623C77.1953 152.927 76.9446 152.258 76.7605 151.616C76.5766 150.948 76.4863 150.253 76.4895 149.532C76.4929 148.784 76.5087 148.224 76.5371 147.85C76.5655 147.476 76.5935 147.183 76.6212 146.969C76.6489 146.756 76.6764 146.569 76.7039 146.409C76.7314 146.222 76.7459 145.968 76.7473 145.648C76.7483 145.434 76.7359 145.22 76.7102 145.007C76.7112 144.766 76.7123 144.539 76.7132 144.326C76.7145 144.032 76.7156 143.792 76.7165 143.605C76.7441 143.391 76.7716 143.218 76.7989 143.084C76.0777 143.135 75.0086 143.343 73.5916 143.711C73.1643 143.709 72.7909 143.6 72.4714 143.385C72.1519 143.17 71.9931 142.862 71.9949 142.462C71.9954 142.355 72.0361 142.208 72.1171 142.022C72.198 141.835 72.3323 141.662 72.52 141.503C72.7344 141.317 73.0155 141.171 73.3631 141.066C73.7376 140.934 74.1918 140.869 74.7259 140.872L74.9663 140.873C75.5538 140.876 76.2352 140.759 77.0107 140.522C77.0109 140.495 77.0113 140.388 77.0122 140.201C77.0399 139.988 77.0542 139.761 77.0553 139.52C77.0832 139.254 77.0977 139 77.0988 138.76C77.1266 138.519 77.1407 138.346 77.1412 138.239L77.1421 138.039C77.1701 137.745 77.2254 137.331 77.3079 136.798C77.3905 136.237 77.5132 135.69 77.6758 135.157C77.8386 134.597 78.041 134.117 78.2831 133.718C78.552 133.318 78.8733 133.12 79.2472 133.121C79.9682 133.124 80.4074 133.447 80.5647 134.088C80.5645 134.142 80.5236 134.329 80.442 134.649C80.3872 134.969 80.3188 135.329 80.2369 135.729C80.155 136.13 80.0731 136.516 79.9913 136.89C79.9095 137.263 79.8684 137.504 79.8679 137.61C79.8677 137.664 79.8536 137.811 79.8259 138.051C79.7981 138.291 79.7702 138.558 79.7421 138.852C79.7408 139.145 79.7261 139.439 79.6981 139.733C79.6701 140.026 79.6558 140.24 79.6552 140.373C79.6018 140.373 79.9624 140.335 80.7372 140.258C80.8707 140.259 80.9909 140.259 81.0977 140.26C81.2314 140.234 81.3516 140.221 81.4584 140.221C81.5385 140.222 81.6052 140.235 81.6585 140.262C81.7119 140.262 81.7653 140.263 81.8187 140.263C82.0592 140.237 82.2862 140.225 82.4999 140.226C82.7136 140.2 82.914 140.188 83.1009 140.189C83.6884 140.191 84.1153 140.26 84.3818 140.395ZM98.2679 140.577C98.2933 140.871 98.3053 141.152 98.3041 141.419C98.3296 141.686 98.3417 141.966 98.3404 142.26C98.3375 142.901 98.3084 143.448 98.2529 143.902C98.1976 144.329 98.1286 144.823 98.046 145.383C97.9634 145.917 97.8536 146.584 97.7165 147.384C97.6062 148.158 97.4947 149.199 97.382 150.507C97.3816 150.588 97.3679 150.668 97.3408 150.748C97.3406 150.801 97.3403 150.868 97.3399 150.948C97.338 151.375 97.376 151.843 97.4538 152.35L97.6073 153.833C97.6042 154.527 97.162 154.873 96.2808 154.869C95.907 154.867 95.627 154.772 95.4409 154.584C95.2549 154.37 95.1225 154.129 95.0436 153.862C94.9648 153.568 94.9261 153.274 94.9274 152.98C94.9288 152.659 94.93 152.392 94.931 152.179C94.9322 151.912 94.9464 151.711 94.9737 151.578C94.33 152.216 93.7535 152.721 93.2445 153.092C92.7622 153.437 92.3071 153.689 91.8791 153.847C91.4779 154.006 91.0769 154.097 90.6762 154.122C90.3022 154.147 89.9016 154.159 89.4743 154.157C88.0323 154.151 86.9259 153.745 86.1551 152.94C85.411 152.136 85.0425 150.946 85.0496 149.37C85.0504 149.183 85.0514 148.97 85.0525 148.729C85.0535 148.489 85.0682 148.209 85.0963 147.888C85.0701 147.782 85.0575 147.608 85.0586 147.368C85.0602 147.02 85.0749 146.7 85.103 146.406C85.1311 146.086 85.1862 145.712 85.2682 145.286C85.3771 144.832 85.5131 144.285 85.6762 143.645C85.8661 142.978 86.1103 142.125 86.4087 141.085C86.7038 140.792 87.0383 140.647 87.4121 140.649C87.7593 140.65 88.0526 140.745 88.2921 140.933C88.5316 141.121 88.6505 141.402 88.6488 141.776C88.6482 141.909 88.5936 142.189 88.4848 142.616C88.4028 143.043 88.3072 143.51 88.1981 144.017C88.089 144.524 87.9799 145.031 87.8708 145.538C87.7885 146.018 87.7468 146.392 87.7456 146.659L87.7447 146.859C87.6896 147.233 87.6346 147.579 87.5798 147.9C87.5516 148.22 87.5371 148.487 87.5361 148.701C87.5324 149.528 87.6894 150.25 88.0071 150.866C88.3516 151.455 88.9911 151.751 89.9258 151.756C90.54 151.758 91.1147 151.627 91.65 151.363C92.1853 151.098 92.6674 150.78 93.0963 150.408C93.5254 150.009 93.9012 149.584 94.2237 149.131C94.5463 148.652 94.7886 148.212 94.9506 147.813C95.0063 147.306 95.1025 146.705 95.2391 146.011C95.3759 145.291 95.5532 144.464 95.7711 143.53C95.7451 143.37 95.7324 143.21 95.7332 143.049C95.7339 142.889 95.7345 142.742 95.7351 142.609C95.7366 142.288 95.7514 141.968 95.7795 141.648C95.8345 141.301 95.9026 141.007 95.9838 140.767C96.0918 140.501 96.2396 140.288 96.4273 140.128C96.615 139.942 96.8692 139.85 97.1896 139.851C97.7771 139.854 98.1365 140.096 98.2679 140.577ZM111.612 141.679C111.932 141.894 112.09 142.268 112.088 142.803C112.083 143.844 111.654 144.363 110.799 144.359C110.398 144.357 109.998 144.262 109.599 144.073C109.199 143.884 108.812 143.789 108.438 143.788C108.011 143.786 107.597 143.864 107.195 144.022C106.821 144.181 106.392 144.499 105.909 144.978L104.421 146.413L104.417 147.254C104.415 147.655 104.4 148.109 104.371 148.616C104.369 149.097 104.353 149.617 104.324 150.178C104.346 151.166 104.46 152.502 104.666 154.185C104.582 155.146 104.099 155.625 103.218 155.621C102.737 155.619 102.39 155.497 102.178 155.256C101.992 154.988 101.86 154.64 101.782 154.212C101.704 153.785 101.666 153.304 101.668 152.77C101.671 152.236 101.646 151.688 101.595 151.127C101.623 150.994 101.637 150.834 101.638 150.647C101.639 150.46 101.639 150.26 101.64 150.046L101.643 149.405L101.416 146.48C101.39 146.346 101.377 146.226 101.378 146.119C101.378 146.012 101.379 145.905 101.379 145.799C101.38 145.585 101.408 145.345 101.462 145.078C101.2 144.115 101.069 143.407 101.071 142.953C101.073 142.579 101.181 142.313 101.396 142.154C101.61 141.968 101.998 141.876 102.558 141.878C102.932 141.88 103.225 142.015 103.438 142.283C103.65 142.524 103.916 142.833 104.235 143.208L106.003 141.934C106.459 141.589 106.874 141.364 107.248 141.259C107.649 141.154 108.036 141.102 108.41 141.104C108.971 141.106 109.558 141.176 110.172 141.312L111.612 141.679ZM126.212 153.762C125.354 154.612 124.349 155.342 123.198 155.951C122.047 156.56 120.871 156.862 119.669 156.857C119.161 156.854 118.001 156.662 116.186 156.28C115.707 155.958 115.202 155.555 114.67 155.072C114.138 154.589 113.646 154.039 113.195 153.423C112.771 152.78 112.413 152.111 112.123 151.415C111.859 150.693 111.729 149.944 111.732 149.17L111.732 149.21C111.76 148.97 111.788 148.69 111.816 148.369C111.844 148.076 111.872 147.742 111.9 147.368C111.929 146.968 111.971 146.501 112.027 145.967C112.565 145.115 113.116 144.276 113.681 143.451C114.272 142.625 115.13 141.895 116.254 141.259C117.965 140.866 119.248 140.672 120.102 140.676C120.503 140.677 120.85 140.706 121.143 140.76C121.464 140.789 121.757 140.883 122.023 141.045C122.316 141.18 122.596 141.368 122.862 141.609C123.155 141.851 123.5 142.173 123.899 142.575C124.191 142.897 124.417 143.138 124.577 143.299C124.736 143.434 124.856 143.541 124.936 143.621C125.016 143.702 125.055 143.769 125.055 143.822C125.055 143.876 125.054 143.956 125.054 144.063C125.05 145.024 124.939 145.798 124.723 146.384C124.534 146.971 124.157 147.45 123.595 147.821C123.059 148.193 122.31 148.523 121.347 148.813C120.385 149.075 119.142 149.377 117.618 149.717L117.378 149.716C116.897 149.714 116.042 149.817 114.813 150.025C115.761 152.86 117.29 154.282 119.4 154.292C120.895 154.298 122.595 153.545 124.497 152.031C124.685 151.872 124.926 151.793 125.219 151.794C126.047 151.798 126.459 152.201 126.456 153.002C126.455 153.269 126.373 153.522 126.212 153.762ZM122.407 144.772C121.691 143.567 120.88 142.962 119.972 142.958C119.571 142.956 119.144 143.008 118.689 143.113C118.235 143.217 117.793 143.362 117.365 143.547C116.964 143.732 116.576 143.958 116.201 144.223C115.852 144.489 115.557 144.794 115.315 145.14C115.208 145.354 115.099 145.66 114.991 146.06C114.909 146.46 114.8 146.941 114.664 147.501C115.385 147.371 116.174 147.281 117.028 147.231C117.91 147.182 118.738 147.079 119.513 146.922C120.315 146.765 120.984 146.528 121.519 146.21C122.055 145.892 122.351 145.412 122.407 144.772ZM133.963 154.197C133.961 154.624 133.759 154.957 133.357 155.196C132.982 155.434 132.635 155.553 132.314 155.552C131.753 155.549 131.313 155.48 130.993 155.345C130.673 155.21 130.42 155.049 130.234 154.861C130.075 154.647 129.969 154.433 129.917 154.219C129.864 153.978 129.839 153.751 129.84 153.538C129.842 153.057 130.018 152.564 130.367 152.058C130.717 151.552 131.172 151.3 131.732 151.303C131.919 151.304 132.133 151.331 132.373 151.386C132.64 151.414 132.893 151.522 133.133 151.71C133.372 151.898 133.571 152.192 133.73 152.594C133.888 152.968 133.966 153.503 133.963 154.197ZM144.088 154.243C144.086 154.67 143.884 155.003 143.482 155.241C143.107 155.48 142.76 155.599 142.439 155.597C141.879 155.595 141.438 155.526 141.118 155.391C140.799 155.256 140.546 155.095 140.359 154.907C140.2 154.692 140.094 154.478 140.042 154.264C139.99 154.024 139.964 153.797 139.965 153.583C139.967 153.103 140.143 152.609 140.492 152.103C140.842 151.598 141.297 151.346 141.858 151.349C142.045 151.349 142.258 151.377 142.498 151.432C142.765 151.459 143.018 151.567 143.258 151.755C143.497 151.943 143.696 152.238 143.855 152.639C144.013 153.014 144.091 153.548 144.088 154.243ZM154.213 154.288C154.211 154.715 154.009 155.048 153.608 155.287C153.233 155.526 152.885 155.644 152.564 155.643C152.004 155.64 151.563 155.571 151.243 155.437C150.924 155.302 150.671 155.14 150.485 154.952C150.325 154.738 150.219 154.524 150.167 154.31C150.115 154.069 150.089 153.842 150.09 153.629C150.092 153.148 150.268 152.655 150.617 152.149C150.967 151.643 151.422 151.392 151.983 151.394C152.17 151.395 152.383 151.423 152.623 151.477C152.89 151.505 153.143 151.613 153.383 151.801C153.622 151.989 153.821 152.284 153.98 152.685C154.138 153.059 154.216 153.594 154.213 154.288Z" fill="#947C00"/>
</svg>
