<svg width="105" height="104" viewBox="0 0 105 104" fill="none" xmlns="http://www.w3.org/2000/svg">
<g filter="url(#filter0_d_324_790)">
<circle cx="52.5" cy="46" r="36" fill="white"/>
</g>
<path opacity="0.4" d="M67.35 38.5331C67.35 46.6831 61.4333 54.3165 53.35 56.5498C52.8 56.6998 52.2 56.6998 51.65 56.5498C43.5666 54.3165 37.65 46.6831 37.65 38.5331V31.2165C37.65 29.8498 38.6833 28.2998 39.9667 27.7832L49.2499 23.9832C51.3333 23.1332 53.6833 23.1332 55.7666 23.9832L65.05 27.7832C66.3166 28.2998 67.3667 29.8498 67.3667 31.2165L67.35 38.5331Z" fill="#00DEA3"/>
<path d="M56.6666 37.4998C56.6666 35.1998 54.8 33.3332 52.5 33.3332C50.2 33.3332 48.3333 35.1998 48.3333 37.4998C48.3333 39.3665 49.5666 40.9165 51.25 41.4498V45.8332C51.25 46.5165 51.8166 47.0832 52.5 47.0832C53.1833 47.0832 53.75 46.5165 53.75 45.8332V41.4498C55.4333 40.9165 56.6666 39.3665 56.6666 37.4998Z" fill="#00DEA3"/>
<defs>
<filter id="filter0_d_324_790" x="0.5" y="0" width="104" height="104" filterUnits="userSpaceOnUse" color-interpolation-filters="sRGB">
<feFlood flood-opacity="0" result="BackgroundImageFix"/>
<feColorMatrix in="SourceAlpha" type="matrix" values="0 0 0 0 0 0 0 0 0 0 0 0 0 0 0 0 0 0 127 0" result="hardAlpha"/>
<feOffset dy="6"/>
<feGaussianBlur stdDeviation="8"/>
<feColorMatrix type="matrix" values="0 0 0 0 0 0 0 0 0 0.870588 0 0 0 0 0.639216 0 0 0 0.16 0"/>
<feBlend mode="normal" in2="BackgroundImageFix" result="effect1_dropShadow_324_790"/>
<feBlend mode="normal" in="SourceGraphic" in2="effect1_dropShadow_324_790" result="shape"/>
</filter>
</defs>
</svg>
