<svg width="120" height="114" viewBox="0 0 120 114" fill="none" xmlns="http://www.w3.org/2000/svg">
<path d="M94.4763 34.6397C85.9814 23.6584 76.8648 13.8995 53.8663 16.1994C30.8677 18.4993 15.9497 39.1979 15.9497 63.4396C15.9497 79.808 25.895 89.9605 37.7051 95.3476C49.5152 100.735 53.6572 102.374 73.5497 99.4915C87.8461 97.4195 99.2418 85.1951 102.971 70.6915C106.008 58.8814 102.971 45.621 94.4763 34.6397Z" fill="#FFD600" stroke="#FFF500" stroke-width="4.97266"/>
<path d="M81.4597 42.5859C81.4597 42.9622 81.5049 43.5147 81.5537 44.1494C82.2681 48.7327 86.9144 37.1924 90.6525 36.3617C93.64 35.6978 87.6298 35.6959 84.7639 33.4032C83.8029 32.6344 78.7265 36.3617 77.3921 36.3617C73.512 36.3617 69.7052 35.9792 65.9256 35.4569C66.3927 37.4165 66.2992 39.869 66.1186 41.1381C67.6457 41.4012 68.8843 41.5485 69.7027 41.5485C74.0074 41.5485 70.5197 44.7228 69.549 46.0054C67.8027 48.3131 66.7216 50.9257 65.3995 53.3055C64.4478 55.0187 62.069 56.0869 61.4805 58.1466C61.4354 58.3045 61.4017 58.4699 61.3769 58.6408C61.3705 59.5231 61.3735 60.428 61.3794 61.1122C61.3931 61.3761 61.4037 61.632 61.4037 61.8735C61.4037 62.6721 61.3883 62.142 61.3794 61.1122C61.3371 60.3009 61.2647 59.4143 61.3769 58.6408C61.384 57.6567 61.4028 56.7008 61.4421 56.1103C61.7973 50.782 65.2191 46.6374 66.0911 41.318C66.1004 41.2611 66.1096 41.2011 66.1186 41.1381C63.7417 40.7286 60.666 40.0385 57.388 39.1869C57.2334 39.5152 57.0749 39.831 56.9084 40.127C53.834 45.5925 51.7831 52.3591 54.142 58.4924C55.2276 61.3149 55.6475 68.2151 53.7963 61.2972C52.3658 55.9518 51.1286 50.4302 49.4931 45.1602C49.1532 44.0649 48.5211 42.8818 47.7257 42.0864C46.2968 40.6575 44.3736 40.5688 42.3851 40.127C40.6999 39.7525 37.2164 37.9586 36.5066 36.3617C35.6869 34.5173 37.1367 33.4234 38.9075 32.9115C39.7433 32.6699 40.6506 32.5579 41.4246 32.5579C47.6431 32.5579 53.6768 33.5426 59.7156 34.5099C60.5939 33.2951 61.7448 32.4616 63.4785 32.5579C64.8167 32.6323 65.5512 33.8863 65.9256 35.4569C69.7052 35.9792 73.512 36.3617 77.3921 36.3617C78.7265 36.3617 83.8029 32.6344 84.7639 33.4032C87.6298 35.6959 93.64 35.6978 90.6525 36.3617C86.9144 37.1924 82.2681 48.7327 81.5537 44.1494C81.4921 43.754 81.4597 43.2386 81.4597 42.5859Z" fill="#FFD600"/>
<path d="M28.8992 47.0812C33.9051 47.0812 47.572 44.912 47.572 52.9981C47.572 60.7742 55 67.342 60.0205 72.3625C60.4201 72.7621 63.9596 76.051 64.5158 76.051C65.255 76.051 68.8093 70.2793 68.9727 69.1351C70.251 60.1874 72.8852 54.0733 80.7681 49.6939C82.2586 48.8658 81.4597 44.1683 81.4597 42.5859C81.4597 50.8036 86.5919 37.264 90.6525 36.3617C93.64 35.6978 87.6298 35.6959 84.7639 33.4032C83.8029 32.6344 78.7265 36.3617 77.3921 36.3617C65.1553 36.3617 53.6471 32.5579 41.4246 32.5579C39.011 32.5579 35.3 33.6468 36.5066 36.3617C37.2164 37.9586 40.6999 39.7525 42.3851 40.127C44.3736 40.5688 46.2968 40.6575 47.7257 42.0864C48.5211 42.8818 49.1532 44.0649 49.4931 45.1602C51.1286 50.4302 52.3658 55.9518 53.7963 61.2972C55.6475 68.2151 55.2276 61.3149 54.1421 58.4924C51.7831 52.3591 53.834 45.5925 56.9084 40.127C58.5555 37.1988 59.4216 32.3326 63.4785 32.5579C66.5693 32.7296 66.4393 39.1938 66.0911 41.318C65.2191 46.6374 61.7973 50.782 61.4421 56.1103C61.3143 58.0271 61.4037 63.7946 61.4037 61.8735C61.4037 60.7253 61.1649 59.2513 61.4805 58.1466C62.069 56.0869 64.4478 55.0187 65.3995 53.3055C66.7216 50.9257 67.8027 48.3131 69.549 46.0054C70.5197 44.7228 74.0074 41.5485 69.7027 41.5485C63.6783 41.5485 34.8849 33.5657 35.8534 30.1758C36.1321 29.2005 40.949 29.8014 41.6551 29.7916C46.1883 29.7286 51.3373 29.0788 55.7173 27.8705C58.4756 27.1096 61.4583 24.4016 64.17 24.2589C66.8926 24.1156 69.747 24.1077 72.4691 24.2589C75.3446 24.4187 77.5326 26.7907 79.3849 27.7168" stroke="#FFF500" stroke-width="9.94532" stroke-linecap="round"/>
<path d="M85.1527 84.388C83.7668 85.1301 82.9627 85.6085 83.3914 85.5817C84.0499 85.5405 84.6409 85.0857 85.1527 84.388Z" fill="#FFD600"/>
<path d="M96.2374 77.2939C97.5886 78.6451 81.7798 85.6824 83.3914 85.5817C85.6889 85.4381 87.1634 80.2603 87.3282 77.2939C87.5162 73.9099 92.9118 67.9084 97.8462 66.1055" stroke="#FFF500" stroke-width="9.94532" stroke-linecap="round"/>
<path d="M33.9167 46.1743C33.9167 41.7828 35.3093 40.2062 35.892 39.4292C38.2229 36.3213 40.5539 36.3213 42.1078 36.3213C43.6618 36.3213 45.8447 37.8752 46.5107 39.4292C47.6207 42.0191 47.8057 41.7601 47.8057 46.1743" stroke="#68590A" stroke-width="3.10791" stroke-linecap="round"/>
<path d="M33.9167 46.1743C33.9167 41.7828 35.3093 40.2062 35.892 39.4292C38.2229 36.3213 40.5539 36.3213 42.1078 36.3213C43.6618 36.3213 45.8447 37.8752 46.5107 39.4292C47.6207 42.0191 47.8057 41.7601 47.8057 46.1743" stroke="#68590A" stroke-width="3.10791" stroke-linecap="round"/>
<path d="M71.916 46.9342C71.916 49.9873 72.1414 40.508 73.8582 37.9833C74.57 36.9366 78.254 35.2079 79.6619 36.8392C80.7128 38.0568 83.0288 38.6521 84.0335 41.2344C84.4672 43.1859 84.8357 45.7146 84.8357 47.6942" stroke="#68590A" stroke-width="3.10791" stroke-linecap="round"/>
<path d="M48.3237 55.4873C48.3237 59.2747 48.6277 63.2571 50.1367 67.919C51.1726 71.1194 55.5755 73.8758 60.2374 74.3938C65.9352 74.3938 68.3811 70.1871 69.5611 66.883C70.154 64.2931 71.1151 59.3951 71.1151 55.4873" stroke="#68590A" stroke-width="3.10791" stroke-linecap="round"/>
<path d="M111.518 29.8479C107.39 25.615 99.2636 31.4907 94.4246 26.9976C99.0312 32.0312 108.443 45.8837 108.665 65.4019C108.834 58.8256 114.881 58.3749 116.439 56.5241C120.583 51.6026 113.072 49.2723 106.338 45.9054C99.6045 42.5385 121.619 40.2062 111.518 29.8479Z" fill="#FFF500"/>
<path d="M90.7987 11.9774C90.1771 2.86084 80.3527 9.2148 75.5181 13.5313C78.0217 14.0498 85.1008 18.2965 94.4246 26.9976C93.9066 26.5166 91.4203 21.0939 90.7987 11.9774Z" fill="#FFF500"/>
<path d="M68.0074 3.94717C62.3095 -0.973567 54.0217 15.0852 50.6548 10.9415C41.8491 3.94717 37.9642 9.69825 35.8923 15.0853C33.3023 21.8191 30.7124 17.4162 21.9066 15.0853C13.1009 12.7544 19.3167 23.3731 20.0937 27.258C20.8707 31.1429 23.4606 32.4364 12.5829 34.7673C1.70523 37.0983 7.40304 40.9846 9.73398 44.6105C12.0649 48.2364 15.6907 53.4148 6.88498 60.4076C-1.92074 67.4004 6.10806 70.2508 12.5829 76.4666C13.5058 77.3527 14.1341 78.1176 14.5336 78.7976C5.94171 61.6016 16.5596 37.9626 22.9426 28.2925C40.9685 9.23178 65.1584 10.1649 75.5181 13.5313C74.6548 13.186 73.8115 8.9597 68.0074 3.94717Z" fill="#FFF500"/>
<path d="M76.5541 104.956C77.7711 103.891 78.9881 102.647 81.5173 102.642C82.5203 102.108 83.563 101.515 84.6302 100.864C84.6591 100.846 84.6881 100.828 84.7171 100.811C40.0361 114.019 24.2431 91.8331 14.5336 78.7976C16.9372 82.8879 11.0658 83.9013 11.2879 89.6753C11.5469 96.4091 18.7987 93.0422 23.7196 93.0422C28.6404 93.0422 24.7555 95.8896 27.0865 102.105C29.4174 108.321 37.1872 98.481 40.0361 103.92C42.885 109.359 48.0649 102.884 52.4678 107.287C56.8707 111.69 54.0217 112.467 63.8635 107.287C68.5254 104.833 67.403 112.966 76.5541 104.956Z" fill="#FFF500"/>
<path d="M113.072 78.7976C123.432 72.8408 108.928 73.3587 108.669 66.1069C107.549 82.7575 95.0165 94.5004 84.7171 100.811C84.6881 100.828 84.6591 100.846 84.6302 100.864C83.563 101.515 82.5203 102.108 81.5173 102.642C83.294 102.638 85.7182 103.246 89.2448 104.956C97.7915 109.1 92.3527 97.4444 97.5325 96.6674C105.717 95.4398 99.4124 86.0152 106.597 82.4228C108.151 81.6458 102.712 84.7544 113.072 78.7976Z" fill="#FFF500"/>
<path d="M75.5181 13.5313C74.6548 13.186 73.8115 8.9597 68.0074 3.94717C62.3095 -0.973567 54.0217 15.0852 50.6548 10.9415C41.8491 3.94717 37.9642 9.69825 35.8923 15.0853C33.3023 21.8191 30.7124 17.4162 21.9066 15.0853C13.1009 12.7544 19.3167 23.3731 20.0937 27.258C20.8707 31.1429 23.4606 32.4364 12.5829 34.7673C1.70523 37.0983 7.40304 40.9846 9.73398 44.6105C12.0649 48.2364 15.6907 53.4148 6.88498 60.4076C-1.92074 67.4004 6.10806 70.2508 12.5829 76.4666C13.5058 77.3527 14.1341 78.1176 14.5336 78.7976M75.5181 13.5313C80.3527 9.2148 90.1771 2.86084 90.7987 11.9774C91.4203 21.0939 93.9066 26.5166 94.4246 26.9976M75.5181 13.5313C78.0217 14.0498 85.1008 18.2965 94.4246 26.9976M75.5181 13.5313C65.1584 10.1649 40.9685 9.23178 22.9426 28.2925C16.5596 37.9626 5.94171 61.6016 14.5336 78.7976M94.4246 26.9976C99.2636 31.4907 107.39 25.615 111.518 29.8479C121.619 40.2062 99.6045 42.5385 106.338 45.9054C113.072 49.2723 120.583 51.6026 116.439 56.5241C114.881 58.3749 108.834 58.8256 108.665 65.4019M94.4246 26.9976C99.0312 32.0312 108.443 45.8837 108.665 65.4019M108.665 65.4019C108.659 65.6295 108.661 65.8644 108.669 66.1069M108.665 65.4019C108.668 65.6361 108.669 65.8711 108.669 66.1069M108.669 66.1069C108.928 73.3587 123.432 72.8407 113.072 78.7976C102.712 84.7544 108.151 81.6458 106.597 82.4228C99.4124 86.0152 105.717 95.4398 97.5325 96.6674C92.3527 97.4444 97.7915 109.1 89.2447 104.956C85.7182 103.246 83.294 102.638 81.5173 102.642M108.669 66.1069C107.549 82.7575 95.0165 94.5003 84.7171 100.81M108.669 66.1069C107.545 82.8044 94.9458 94.5665 84.6302 100.864M81.5173 102.642C78.9881 102.647 77.7711 103.891 76.5541 104.956M81.5173 102.642C79.7031 103.608 78.0186 104.38 76.5541 104.956M81.5173 102.642C82.5204 102.108 83.563 101.515 84.6302 100.864M76.5541 104.956C67.403 112.966 68.5254 104.833 63.8635 107.287C54.0217 112.467 56.8707 111.69 52.4678 107.287C48.0649 102.884 42.885 109.359 40.0361 103.92C37.1872 98.481 29.4174 108.321 27.0865 102.105C24.7555 95.8896 28.6404 93.0422 23.7196 93.0422C18.7987 93.0422 11.5469 96.4091 11.2879 89.6753C11.0658 83.9013 16.9372 82.8879 14.5336 78.7976M14.5336 78.7976C24.2431 91.8331 40.0361 114.019 84.7171 100.81M84.7171 100.81C84.6881 100.828 84.6591 100.846 84.6302 100.864" stroke="#FFD600" stroke-width="4.66187"/>
</svg>
