<svg width="340" height="192" viewBox="0 0 340 192" fill="none" xmlns="http://www.w3.org/2000/svg">
<rect x="3.84389" y="3.01347" width="332.58" height="184.481" rx="18" transform="rotate(0.257904 3.84389 3.01347)" fill="#FFF500"/>
<rect x="3.84389" y="3.01347" width="332.58" height="184.481" rx="18" transform="rotate(0.257904 3.84389 3.01347)" stroke="#FFD600" stroke-width="6"/>
<path d="M64.7946 35.098C64.6056 35.5512 64.4438 35.8976 64.3092 36.1373C64.1747 36.3504 63.9867 36.5899 63.7452 36.8558C63.5304 37.1219 63.2218 37.4543 62.8194 37.8531C62.4439 38.2252 61.8938 38.7969 61.1693 39.5681C60.6059 40.153 60.1364 40.645 59.7607 41.0438C59.385 41.4427 59.0095 41.8149 58.6341 42.1604C58.2855 42.4793 57.9235 42.8114 57.5481 43.1569C57.1728 43.4757 56.7036 43.8741 56.1407 44.3523C56.1388 44.7795 56.1231 45.3002 56.0936 45.9143C56.0641 46.5284 56.0476 47.236 56.044 48.0371C56.043 48.2507 56.0551 48.5312 56.0803 48.8784C56.1055 49.199 56.1307 49.5329 56.1559 49.8802C56.2077 50.2276 56.2463 50.5616 56.2715 50.8821C56.2968 51.2027 56.3091 51.4431 56.3083 51.6033L56.3073 51.8437C56.3316 52.3779 56.3557 52.9388 56.3798 53.5264C56.4039 54.114 56.4411 54.7284 56.4917 55.3695C56.3826 55.8764 55.9675 56.1282 55.2465 56.125C54.8727 56.1233 54.5794 56.0018 54.3669 55.7605C54.1543 55.5192 53.9956 55.198 53.8905 54.797C53.7857 54.3692 53.7077 53.8882 53.6567 53.3539C53.6324 52.8197 53.6216 52.2588 53.6242 51.6714C53.6252 51.4577 53.6261 51.2574 53.6269 51.0705C53.6545 50.8837 53.6819 50.7236 53.7092 50.5902C53.5587 48.4265 53.4861 46.7704 53.4912 45.6222L53.4941 44.9813C53.0422 44.5253 52.484 43.9352 51.8197 43.2112C51.1822 42.4606 50.4117 41.5759 49.5083 40.5571C49.3763 40.236 49.1642 39.8746 48.8723 39.4727C48.5804 39.0708 48.275 38.6822 47.9562 38.3069C47.6642 37.9317 47.3987 37.5834 47.1598 37.2618C46.9209 36.9403 46.8018 36.6994 46.8026 36.5392C46.8039 36.2455 46.9388 35.939 47.2073 35.6197C47.5026 35.2739 47.8371 35.1018 48.211 35.1035C48.7184 35.1058 49.2108 35.4685 49.6882 36.1917C50.1658 36.8882 50.7625 37.7988 51.4785 38.9236C51.5583 38.9774 51.7444 39.1651 52.0367 39.4869C52.3557 39.8088 52.688 40.1575 53.0334 40.5329C53.4057 40.8817 53.7514 41.2171 54.0704 41.539C54.4161 41.861 54.6423 42.0356 54.749 42.0628C54.8292 42.0364 55.0168 41.9037 55.3116 41.6647C55.6064 41.4257 55.9281 41.1601 56.2765 40.8679C56.6517 40.5759 57.0001 40.297 57.3218 40.0314C57.6701 39.766 57.8979 39.5934 58.0051 39.5138C58.0854 39.4607 58.1929 39.3277 58.3273 39.1147C58.4885 38.9018 58.6632 38.6622 58.8513 38.396C59.0396 38.1031 59.2411 37.8236 59.4559 37.5575C59.6976 37.2649 59.939 37.039 60.18 36.8798L61.6314 34.8034C62.1958 34.0048 62.7323 33.4731 63.2409 33.2084C63.3474 33.2623 63.4805 33.3563 63.6402 33.4906C63.8265 33.6249 63.9994 33.7726 64.1589 33.9335C64.3451 34.0946 64.4911 34.2822 64.597 34.4963C64.7297 34.6838 64.7957 34.8577 64.7949 35.0179L64.7946 35.098ZM74.5328 54.2089C74.0239 54.5538 72.6735 54.9483 70.4817 55.3924L68.8008 55.0644C68.5876 54.9833 68.2013 54.7813 67.6419 54.4583C67.1093 54.1355 66.5506 53.6656 65.9659 53.0488C65.4078 52.4321 64.904 51.6554 64.4542 50.7187C64.0311 49.7821 63.8225 48.6729 63.8283 47.3911C63.833 46.3497 64.1308 45.4297 64.7219 44.6312C65.3132 43.8061 66.2117 42.9289 67.4176 41.9996C68.0592 41.8423 68.6871 41.765 69.3013 41.7678C71.0905 41.7758 72.7301 42.384 74.2201 43.5925C75.494 45.3607 76.1261 47.2996 76.1166 49.4092C76.1092 51.0649 75.5812 52.6648 74.5328 54.2089ZM70.9317 44.4189C70.532 44.2301 70.1051 44.1347 69.6512 44.1327C69.3307 44.1312 68.9832 44.2098 68.6086 44.3683C68.2608 44.527 67.9259 44.7658 67.604 45.0848C67.3088 45.404 67.0666 45.8168 66.8774 46.3233C66.6883 46.8032 66.5923 47.3769 66.5892 48.0445C66.5868 48.5786 66.6512 49.1129 66.7823 49.6476C66.9401 50.1824 67.1649 50.6775 67.4566 51.1328C67.775 51.5882 68.1739 51.9638 68.6532 52.2597C69.1327 52.529 69.7062 52.6651 70.3738 52.6681C70.988 52.6708 71.6831 52.5137 72.4589 52.1968C73.1302 51.3719 73.4685 50.3854 73.4737 49.2371C73.4851 46.7002 72.6378 45.0941 70.9317 44.4189ZM91.253 40.5447C91.2784 40.8386 91.2905 41.119 91.2893 41.3861C91.3148 41.6532 91.3268 41.9337 91.3255 42.2274C91.3226 42.8683 91.2935 43.4156 91.238 43.8693C91.1827 44.2964 91.1137 44.7901 91.0311 45.3505C90.9486 45.8842 90.8387 46.5514 90.7016 47.3519C90.5913 48.1258 90.4798 49.1668 90.3671 50.4748C90.3667 50.5549 90.353 50.635 90.326 50.715C90.3257 50.7684 90.3254 50.8351 90.3251 50.9152C90.3231 51.3425 90.3611 51.81 90.4389 52.3178L90.5925 53.8005C90.5893 54.4949 90.1472 54.84 89.2659 54.8361C88.8921 54.8344 88.6121 54.7396 88.426 54.5519C88.24 54.3374 88.1076 54.0965 88.0287 53.8291C87.9499 53.535 87.9112 53.241 87.9125 52.9473C87.9139 52.6268 87.9151 52.3598 87.9161 52.1462C87.9173 51.8791 87.9316 51.6789 87.9589 51.5455C87.3151 52.1835 86.7387 52.6883 86.2296 53.0599C85.7474 53.4049 85.2922 53.6565 84.8643 53.8148C84.463 53.9732 84.062 54.0649 83.6613 54.0898C83.2873 54.1148 82.8867 54.1264 82.4595 54.1245C81.0174 54.118 79.911 53.7124 79.1402 52.9078C78.3961 52.1033 78.0276 50.9133 78.0347 49.3378C78.0355 49.1508 78.0365 48.9372 78.0376 48.6969C78.0387 48.4565 78.0533 48.1762 78.0814 47.8559C78.0552 47.7489 78.0426 47.5753 78.0437 47.335C78.0453 46.9878 78.0601 46.6674 78.0881 46.3738C78.1162 46.0535 78.1713 45.6799 78.2534 45.2529C78.3622 44.7995 78.4982 44.2526 78.6613 43.6125C78.8512 42.9457 79.0954 42.0922 79.3939 41.0521C79.6889 40.7597 80.0234 40.6143 80.3972 40.616C80.7444 40.6176 81.0377 40.7123 81.2772 40.9004C81.5167 41.0884 81.6356 41.3693 81.6339 41.7432C81.6333 41.8767 81.5787 42.1568 81.4699 42.5836C81.3879 43.0105 81.2923 43.4774 81.1832 43.9843C81.0741 44.4912 80.965 44.9981 80.8559 45.505C80.7736 45.9853 80.7319 46.359 80.7307 46.626L80.7298 46.8263C80.6747 47.1999 80.6197 47.5468 80.5649 47.8671C80.5367 48.1874 80.5222 48.4544 80.5212 48.668C80.5175 49.4958 80.6745 50.2175 80.9922 50.8332C81.3367 51.4222 81.9762 51.7189 82.9109 51.7231C83.5251 51.7258 84.0998 51.5949 84.6351 51.3303C85.1704 51.0656 85.6525 50.7473 86.0815 50.3754C86.5105 49.9768 86.8863 49.5512 87.2088 49.0987C87.5314 48.6194 87.7737 48.1799 87.9358 47.7801C87.9914 47.2729 88.0876 46.6725 88.2243 45.9788C88.361 45.2584 88.5383 44.4313 88.7562 43.4977C88.7302 43.3373 88.7176 43.177 88.7183 43.0168C88.719 42.8566 88.7197 42.7097 88.7203 42.5762C88.7217 42.2557 88.7365 41.9354 88.7646 41.615C88.8196 41.2681 88.8877 40.9747 88.9689 40.7347C89.0769 40.4681 89.2247 40.2552 89.4124 40.0958C89.6002 39.9097 89.8543 39.8174 90.1747 39.8188C90.7622 39.8215 91.1216 40.0634 91.253 40.5447ZM104.597 41.6462C104.917 41.8613 105.075 42.2359 105.073 42.77C105.068 43.8114 104.639 44.3302 103.784 44.3264C103.384 44.3246 102.983 44.2293 102.584 44.0406C102.184 43.8519 101.797 43.7567 101.423 43.755C100.996 43.753 100.582 43.8313 100.18 43.9897C99.8059 44.1483 99.3772 44.4668 98.8944 44.9453L97.4058 46.3806L97.402 47.2218C97.4002 47.6224 97.3848 48.0763 97.3558 48.5835C97.3537 49.0642 97.338 49.5849 97.3087 50.1455C97.331 51.1337 97.4452 52.4695 97.6512 54.1528C97.5668 55.1138 97.0839 55.5923 96.2027 55.5883C95.722 55.5861 95.3754 55.4644 95.1629 55.2231C94.9771 54.9552 94.8452 54.6075 94.767 54.1799C94.6888 53.7522 94.6509 53.2714 94.6533 52.7373C94.6557 52.2032 94.6315 51.6557 94.5806 51.0946C94.6079 50.9612 94.622 50.8011 94.6228 50.6141C94.6237 50.4272 94.6246 50.2269 94.6255 50.0133L94.6284 49.3724L94.4012 46.4472C94.3751 46.3136 94.3623 46.1934 94.3628 46.0865C94.3633 45.9797 94.3638 45.8729 94.3642 45.7661C94.3652 45.5525 94.393 45.3122 94.4476 45.0454C94.1849 44.0829 94.0546 43.3746 94.0566 42.9207C94.0583 42.5468 94.1663 42.2803 94.3806 42.121C94.5951 41.935 94.9828 41.8433 95.5435 41.8458C95.9174 41.8475 96.2105 41.9824 96.423 42.2504C96.6355 42.4917 96.9012 42.8 97.2199 43.1752L98.9882 41.9014C99.4437 41.5563 99.8586 41.3312 100.233 41.226C100.634 41.121 101.021 41.0693 101.395 41.071C101.956 41.0736 102.543 41.143 103.157 41.2792L104.597 41.6462ZM129.502 41.7583C129.822 41.9734 129.98 42.348 129.978 42.8821C129.973 43.9235 129.544 44.4423 128.689 44.4385C128.289 44.4367 127.889 44.3414 127.489 44.1527C127.089 43.964 126.702 43.8688 126.328 43.8671C125.901 43.8652 125.487 43.9434 125.086 44.1018C124.711 44.2604 124.282 44.5789 123.8 45.0574L122.311 46.4927L122.307 47.3339C122.305 47.7345 122.29 48.1884 122.261 48.6956C122.259 49.1763 122.243 49.697 122.214 50.2577C122.236 51.2458 122.35 52.5816 122.556 54.2649C122.472 55.2259 121.989 55.7044 121.108 55.7004C120.627 55.6982 120.281 55.5765 120.068 55.3352C119.882 55.0673 119.75 54.7196 119.672 54.292C119.594 53.8643 119.556 53.3835 119.558 52.8494C119.561 52.3153 119.537 51.7678 119.486 51.2067C119.513 51.0733 119.527 50.9132 119.528 50.7262C119.529 50.5393 119.53 50.339 119.531 50.1254L119.534 49.4845L119.306 46.5593C119.28 46.4257 119.267 46.3055 119.268 46.1986C119.268 46.0918 119.269 45.985 119.269 45.8782C119.27 45.6646 119.298 45.4244 119.353 45.1576C119.09 44.195 118.96 43.4867 118.962 43.0328C118.963 42.6589 119.071 42.3924 119.286 42.2331C119.5 42.0471 119.888 41.9554 120.449 41.9579C120.823 41.9596 121.116 42.0945 121.328 42.3625C121.541 42.6038 121.806 42.9121 122.125 43.2874L123.893 42.0135C124.349 41.6684 124.764 41.4433 125.138 41.3381C125.539 41.2331 125.927 41.1815 126.301 41.1831C126.861 41.1857 127.448 41.2551 128.062 41.3913L129.502 41.7583ZM140.414 54.5055C139.905 54.8504 138.555 55.2449 136.363 55.689L134.682 55.3609C134.469 55.2799 134.083 55.0778 133.523 54.7549C132.991 54.432 132.432 53.9622 131.847 53.3453C131.289 52.7286 130.785 51.9519 130.335 51.0152C129.912 50.0787 129.704 48.9695 129.71 47.6877C129.714 46.6462 130.012 45.7263 130.603 44.9278C131.194 44.1026 132.093 43.2254 133.299 42.2962C133.94 42.1388 134.568 42.0615 135.183 42.0643C136.972 42.0724 138.611 42.6806 140.101 43.889C141.375 45.6572 142.007 47.5962 141.998 49.7058C141.99 51.3614 141.463 52.9613 140.414 54.5055ZM136.813 44.7154C136.413 44.5267 135.986 44.4313 135.532 44.4292C135.212 44.4278 134.864 44.5063 134.49 44.6649C134.142 44.8236 133.807 45.0624 133.485 45.3814C133.19 45.7005 132.948 46.1133 132.759 46.6199C132.57 47.0997 132.474 47.6734 132.471 48.341C132.468 48.8751 132.532 49.4095 132.664 49.9442C132.821 50.479 133.046 50.974 133.338 51.4293C133.656 51.8847 134.055 52.2604 134.535 52.5563C135.014 52.8255 135.588 52.9616 136.255 52.9646C136.869 52.9674 137.564 52.8103 138.34 52.4933C139.012 51.6685 139.35 50.6819 139.355 49.5337C139.366 46.9968 138.519 45.3907 136.813 44.7154ZM158.008 51.5003C158.38 51.7423 158.566 52.0369 158.564 52.3841C158.563 52.7579 158.374 53.1176 157.999 53.4631C157.623 53.8085 157.262 53.9805 156.915 53.9789C156.088 53.6814 155.37 53.1308 154.759 52.3269C154.175 51.5231 153.779 50.6534 153.569 49.7178C153.381 50.1175 153.151 50.6239 152.881 51.2369C152.639 51.8233 152.316 52.3826 151.913 52.9149C151.51 53.4472 151.013 53.9123 150.424 54.3102C149.835 54.6814 149.1 54.865 148.219 54.8611C147.765 54.859 147.164 54.7762 146.417 54.6126C145.592 54.0214 144.94 53.5511 144.461 53.2018C144.008 52.8259 143.663 52.4772 143.424 52.1557C143.185 51.8342 143.04 51.473 142.988 51.0722C142.937 50.6714 142.912 50.1372 142.915 49.4696C142.918 48.9088 143.001 48.295 143.164 47.6281C143.354 46.9346 143.611 46.2415 143.934 45.5486C144.258 44.8557 144.662 44.1766 145.145 43.5111C145.629 42.8457 146.192 42.234 146.836 41.6761C148.013 41.2809 148.935 40.9913 149.604 40.8073C150.272 40.6234 150.727 40.532 150.967 40.5331C151.504 39.9213 152.066 39.6167 152.653 39.6194C152.974 39.6208 153.253 39.809 153.492 40.1839C153.731 40.5589 153.942 41.0539 154.126 41.6689C154.337 42.2574 154.495 42.9123 154.598 43.6338C154.728 44.3554 154.832 45.0502 154.909 45.7182C154.989 45.8521 155.055 46.0126 155.107 46.1997C155.16 46.3602 155.212 46.5741 155.265 46.8414L155.5 47.964C155.657 48.7392 155.961 49.4081 156.412 49.971C156.864 50.5338 157.395 51.0436 158.008 51.5003ZM152.383 46.1875C152.331 45.9469 152.24 45.5459 152.109 44.9845C151.978 44.4232 151.807 43.7014 151.598 42.8192C151.277 42.8978 150.929 42.9363 150.556 42.9346C150.182 42.9063 149.781 42.9712 149.353 43.1295C148.925 43.2878 148.456 43.5795 147.947 44.0044C147.464 44.4295 146.967 45.0949 146.456 46.0006C145.81 47.1727 145.484 48.413 145.478 49.7215C145.636 50.0693 145.782 50.3771 145.914 50.6447C146.047 50.8857 146.206 51.1134 146.392 51.3279C146.605 51.5157 146.858 51.7038 147.15 51.8921C147.443 52.0803 147.816 52.2823 148.269 52.498C148.67 52.4196 149.004 52.3277 149.272 52.2221C149.566 52.1166 149.821 51.9575 150.035 51.7448C150.25 51.5054 150.451 51.2126 150.64 50.8663C150.828 50.52 151.058 50.067 151.327 49.5074C152.028 47.9617 152.38 46.8551 152.383 46.1875ZM171.731 35.5794C171.677 35.7127 171.636 35.9261 171.608 36.2197C171.58 36.5134 171.565 36.8872 171.563 37.3411C171.558 38.4894 171.567 39.4108 171.591 40.1052C171.614 40.7996 171.626 41.2269 171.625 41.3872L171.502 42.0676C171.581 42.2816 171.62 42.5354 171.619 42.8292C171.618 42.9093 171.604 43.0695 171.576 43.3097C171.549 43.5232 171.521 43.7767 171.493 44.0704C171.465 44.3373 171.437 44.6176 171.409 44.9112C171.381 45.2048 171.367 45.4451 171.366 45.632C171.366 45.6854 171.365 45.7388 171.365 45.7922C171.391 45.8458 171.405 45.8992 171.404 45.9526C171.268 46.5662 171.116 47.6337 170.949 49.1551C170.782 50.6766 170.601 52.3982 170.405 54.32C170.189 54.96 169.693 55.2782 168.919 55.2747C168.438 55.2725 168.145 55.2045 168.039 55.0705C167.933 54.9098 167.8 54.6421 167.642 54.2675C166.811 54.7979 165.555 55.0593 163.873 55.0517C162.965 55.0476 162.151 54.8837 161.432 54.56C160.712 54.2363 160.086 53.8063 159.555 53.2698C159.05 52.7334 158.652 52.1041 158.361 51.3817C158.098 50.6328 157.968 49.8311 157.972 48.9766C157.974 48.4692 158.03 47.9754 158.139 47.4952C158.274 46.9884 158.437 46.5352 158.625 46.1355C158.814 45.709 159.016 45.3227 159.231 44.9765C159.473 44.6305 159.702 44.3511 159.916 44.1384C160.453 43.5801 161.23 43.0628 162.246 42.5867C163.29 42.1107 164.386 41.8753 165.534 41.8805C166.602 41.8853 167.656 42.1437 168.695 42.6558L168.698 42.0149C168.701 41.4541 168.717 40.8667 168.746 40.2526C168.802 39.6387 168.859 38.9713 168.915 38.2505L168.767 35.526C168.768 35.3391 168.756 35.1654 168.73 35.0051C168.731 34.8449 168.731 34.6846 168.732 34.5244C168.735 33.8301 168.818 33.3097 168.979 32.9633C169.168 32.5903 169.543 32.405 170.103 32.4076C170.451 32.4091 170.717 32.4637 170.904 32.5714C171.117 32.6792 171.263 32.8668 171.342 33.1342C171.448 33.375 171.513 33.6957 171.538 34.0964C171.589 34.4972 171.654 34.9915 171.731 35.5794ZM168.443 45.4186C167.778 44.7747 166.765 44.4497 165.403 44.4435C164.762 44.4406 164.214 44.4916 163.76 44.5964C163.332 44.7013 162.957 44.8865 162.636 45.1521C162.314 45.391 162.032 45.7102 161.79 46.1097C161.575 46.4825 161.346 46.9488 161.103 47.5086C160.914 47.9884 160.818 48.5087 160.815 49.0695C160.811 50.1376 161.194 50.9939 161.965 51.6383C162.764 52.2561 163.697 52.5674 164.765 52.5722C165.78 52.5768 166.743 52.2072 167.654 51.4636C167.79 50.9568 167.94 50.3433 168.103 49.623C168.293 48.9029 168.39 48.1689 168.393 47.4212C168.394 47.261 168.382 47.0873 168.356 46.9003C168.357 46.6867 168.358 46.4997 168.358 46.3395C168.359 46.1259 168.36 45.9523 168.361 45.8188C168.388 45.6587 168.415 45.5253 168.443 45.4186ZM197.283 40.9018C197.496 41.063 197.602 41.3706 197.6 41.8245C197.596 42.6257 197.26 43.0247 196.593 43.0217L196.432 43.021C196.432 43.021 196.232 43.0468 195.831 43.0984C195.457 43.1234 195.03 43.1615 194.549 43.2128C194.068 43.264 193.6 43.3287 193.146 43.4068C192.719 43.4582 192.465 43.5105 192.384 43.5636L192.382 43.9641C192.381 44.2579 192.353 44.6583 192.297 45.1654C192.241 45.6459 192.213 46.0864 192.211 46.4869C192.21 46.6204 192.21 46.754 192.209 46.8875C192.235 47.0211 192.261 47.1548 192.287 47.2884C192.179 47.6084 192.123 48.1422 192.12 48.8899C192.142 49.9048 192.165 50.666 192.19 51.1735C192.214 51.6543 192.293 52.0151 192.425 52.2561C192.558 52.497 192.784 52.685 193.104 52.8199C193.424 52.9549 193.89 53.1573 194.503 53.4271C195.143 53.6436 195.462 54.0189 195.459 54.553C195.458 54.9001 195.323 55.1933 195.055 55.4324C194.813 55.6717 194.492 55.7904 194.092 55.7886C193.905 55.7878 193.625 55.7464 193.251 55.6646C192.878 55.5828 192.491 55.4743 192.091 55.339C191.718 55.1771 191.371 55.0019 191.052 54.8135C190.732 54.5985 190.52 54.3705 190.414 54.1297C190.097 53.434 189.846 52.7652 189.662 52.1235C189.478 51.455 189.388 50.7603 189.391 50.0393C189.394 49.2916 189.41 48.7309 189.439 48.3571C189.467 47.9834 189.495 47.6898 189.523 47.4763C189.55 47.2627 189.578 47.0759 189.605 46.9158C189.633 46.729 189.647 46.4754 189.649 46.1549C189.65 45.9413 189.637 45.7276 189.612 45.5139C189.613 45.2735 189.614 45.0465 189.615 44.8329C189.616 44.5392 189.617 44.2988 189.618 44.1119C189.646 43.8984 189.673 43.7249 189.7 43.5915C188.979 43.6417 187.91 43.8505 186.493 44.218C186.066 44.2161 185.692 44.1076 185.373 43.8925C185.053 43.6774 184.895 43.3696 184.896 42.9691C184.897 42.8622 184.938 42.7155 185.018 42.529C185.099 42.3424 185.234 42.1694 185.421 42.0101C185.636 41.8241 185.917 41.6785 186.265 41.5732C186.639 41.4414 187.093 41.3767 187.627 41.3791L187.868 41.3802C188.455 41.3828 189.137 41.2657 189.912 41.0288C189.912 41.0021 189.913 40.8953 189.914 40.7084C189.941 40.4949 189.956 40.268 189.957 40.0276C189.985 39.7607 189.999 39.5071 190 39.2667C190.028 39.0265 190.042 38.853 190.043 38.7462L190.044 38.5459C190.072 38.2523 190.127 37.8386 190.209 37.3049C190.292 36.7445 190.415 36.1976 190.577 35.6642C190.74 35.1042 190.942 34.6244 191.185 34.2249C191.453 33.8255 191.775 33.6267 192.149 33.6284C192.87 33.6316 193.309 33.9541 193.466 34.5957C193.466 34.6491 193.425 34.8358 193.343 35.1559C193.289 35.4761 193.22 35.8363 193.138 36.2365C193.056 36.6367 192.975 37.0236 192.893 37.3971C192.811 37.7706 192.77 38.0107 192.769 38.1176C192.769 38.171 192.755 38.3178 192.727 38.558C192.699 38.7982 192.672 39.0651 192.644 39.3588C192.642 39.6525 192.628 39.9462 192.6 40.2398C192.571 40.5334 192.557 40.747 192.557 40.8805C192.503 40.8803 192.864 40.8418 193.639 40.7652C193.772 40.7658 193.892 40.7664 193.999 40.7668C194.133 40.7407 194.253 40.7279 194.36 40.7284C194.44 40.7288 194.507 40.7424 194.56 40.7694C194.613 40.7696 194.667 40.7698 194.72 40.7701C194.961 40.7445 195.188 40.7321 195.401 40.7331C195.615 40.7074 195.815 40.6949 196.002 40.6957C196.59 40.6984 197.017 40.7671 197.283 40.9018ZM207.743 54.8086C207.234 55.1534 205.883 55.5479 203.692 55.992L202.011 55.664C201.797 55.5829 201.411 55.3809 200.852 55.0579C200.319 54.7351 199.76 54.2652 199.176 53.6484C198.618 53.0317 198.114 52.255 197.664 51.3183C197.241 50.3817 197.032 49.2726 197.038 47.9908C197.043 46.9493 197.341 46.0293 197.932 45.2309C198.523 44.4057 199.422 43.5285 200.628 42.5992C201.269 42.4419 201.897 42.3646 202.511 42.3674C204.3 42.3754 205.94 42.9837 207.43 44.1921C208.704 45.9603 209.336 47.8992 209.327 50.0089C209.319 51.6645 208.791 53.2644 207.743 54.8086ZM204.142 45.0185C203.742 44.8297 203.315 44.7344 202.861 44.7323C202.541 44.7309 202.193 44.8094 201.819 44.968C201.471 45.1266 201.136 45.3655 200.814 45.6845C200.519 46.0036 200.277 46.4164 200.087 46.923C199.898 47.4028 199.802 47.9765 199.799 48.6441C199.797 49.1782 199.861 49.7126 199.992 50.2472C200.15 50.782 200.375 51.2771 200.667 51.7324C200.985 52.1878 201.384 52.5635 201.863 52.8594C202.343 53.1286 202.916 53.2647 203.584 53.2677C204.198 53.2704 204.893 53.1133 205.669 52.7964C206.34 51.9716 206.678 50.985 206.684 49.8367C206.695 47.2999 205.848 45.6938 204.142 45.0185ZM58.6911 100.693C58.6075 101.467 58.3238 102.2 57.84 102.893L56.3888 104.929C56.1475 105.141 55.7728 105.313 55.2648 105.445C54.7567 105.603 54.2355 105.72 53.701 105.798C53.1932 105.903 52.7255 105.981 52.298 106.032C51.8972 106.084 51.6834 106.109 51.6567 106.109C51.3897 106.108 51.0428 106.053 50.616 105.944C50.2158 105.862 49.8157 105.767 49.4156 105.659C49.0155 105.55 48.6688 105.442 48.3756 105.333C48.0822 105.252 47.9221 105.211 47.8954 105.211L47.8554 105.211C47.5617 105.183 47.2416 105.115 46.8949 105.006C46.575 104.898 46.2551 104.763 45.9354 104.601C45.6424 104.44 45.4028 104.265 45.2167 104.077C45.0041 103.863 44.8983 103.635 44.8993 103.395C44.9007 103.101 45.0489 102.808 45.3439 102.516C45.6391 102.197 45.9336 102.038 46.2273 102.039C48.9196 103.119 51.0669 103.663 52.6691 103.67C53.2566 103.673 53.7512 103.555 54.1528 103.317C54.5812 103.078 54.9028 102.826 55.1176 102.56L55.9656 101.041C55.9672 100.694 55.8619 100.347 55.6499 99.9986C55.4645 99.6506 55.1988 99.3423 54.8529 99.0737C54.5338 98.7785 54.1611 98.5231 53.7348 98.3076C53.3084 98.092 52.8685 97.9432 52.4149 97.861C51.9079 97.7786 51.3878 97.6294 50.8547 97.4134C50.3483 97.1975 49.8687 96.9416 49.4161 96.6458C48.9901 96.3501 48.6311 96.0281 48.3389 95.6796C48.0735 95.3045 47.9285 94.9033 47.9037 94.4759C47.877 94.4758 47.8526 93.9683 47.8304 92.9534C47.8856 92.5531 47.9405 92.2329 47.995 91.9928C48.0495 91.7527 48.1706 91.5396 48.3584 91.3535C48.5463 91.1408 48.8277 90.915 49.2026 90.6764C49.6043 90.4378 50.1666 90.0932 50.8897 89.6425C51.1034 89.6167 51.4907 89.5918 52.0516 89.5676C52.6394 89.5168 53.4275 89.4403 54.416 89.3379C54.8433 89.3398 55.9367 89.6652 57.6963 90.314C57.9623 90.5556 58.0942 90.9167 58.092 91.3974C58.0883 92.2252 57.806 92.6378 57.2452 92.6353C57.2185 92.6352 57.1918 92.6351 57.1651 92.6349C57.1385 92.6081 57.0985 92.5946 57.0451 92.5943L55.6053 92.1072C54.8852 91.8903 54.2715 91.7807 53.7641 91.7784C53.0164 91.7751 52.4154 91.8124 51.9611 91.8905C51.5335 91.9687 51.2125 92.0741 50.9983 92.2066C50.7842 92.3125 50.6368 92.432 50.5561 92.5651C50.4753 92.6983 50.4214 92.8182 50.3942 92.9249C50.3938 93.005 50.3801 93.0851 50.3531 93.1651C50.3528 93.2185 50.3525 93.2852 50.3522 93.3654C50.3475 94.4068 50.7719 95.0496 51.6253 95.2938C55.8407 96.1673 58.196 97.9672 58.6911 100.693ZM73.9008 90.4671C73.9262 90.761 73.9383 91.0414 73.9371 91.3085C73.9626 91.5756 73.9747 91.8561 73.9734 92.1498C73.9705 92.7907 73.9413 93.338 73.8859 93.7917C73.8305 94.2188 73.7615 94.7125 73.6789 95.2729C73.5964 95.8066 73.4866 96.4738 73.3494 97.2743C73.2391 98.0482 73.1276 99.0892 73.0149 100.397C73.0146 100.477 73.0009 100.557 72.9738 100.637C72.9735 100.691 72.9732 100.758 72.9729 100.838C72.971 101.265 73.0089 101.732 73.0867 102.24L73.2403 103.723C73.2372 104.417 72.795 104.762 71.9138 104.758C71.5399 104.757 71.2599 104.662 71.0738 104.474C70.8879 104.26 70.7554 104.019 70.6765 103.751C70.5977 103.457 70.559 103.163 70.5603 102.87C70.5618 102.549 70.563 102.282 70.5639 102.069C70.5651 101.802 70.5794 101.601 70.6067 101.468C69.9629 102.106 69.3865 102.611 68.8774 102.982C68.3952 103.327 67.9401 103.579 67.5121 103.737C67.1108 103.896 66.7098 103.987 66.3092 104.012C65.9352 104.037 65.5346 104.049 65.1073 104.047C63.6653 104.04 62.5589 103.635 61.788 102.83C61.0439 102.026 60.6754 100.836 60.6825 99.2602C60.6834 99.0732 60.6843 98.8596 60.6854 98.6193C60.6865 98.3789 60.7011 98.0986 60.7293 97.7783C60.703 97.6713 60.6905 97.4977 60.6915 97.2574C60.6931 96.9102 60.7079 96.5898 60.7359 96.2962C60.7641 95.9759 60.8192 95.6023 60.9012 95.1753C61.0101 94.7219 61.146 94.175 61.3091 93.5349C61.4991 92.8681 61.7433 92.0146 62.0417 90.9745C62.3368 90.6821 62.6712 90.5367 63.0451 90.5384C63.3922 90.54 63.6856 90.6347 63.9251 90.8228C64.1645 91.0108 64.2835 91.2917 64.2818 91.6656C64.2812 91.7991 64.2265 92.0792 64.1178 92.506C64.0357 92.9329 63.9402 93.3998 63.8311 93.9067C63.722 94.4136 63.6129 94.9205 63.5038 95.4274C63.4215 95.9077 63.3797 96.2814 63.3785 96.5484L63.3776 96.7487C63.3225 97.1223 63.2676 97.4692 63.2127 97.7894C63.1846 98.1098 63.17 98.3768 63.1691 98.5904C63.1653 99.4182 63.3223 100.14 63.64 100.756C63.9845 101.345 64.6241 101.641 65.5587 101.645C66.1729 101.648 66.7477 101.517 67.2829 101.253C67.8182 100.988 68.3003 100.67 68.7293 100.298C69.1584 99.8992 69.5341 99.4736 69.8566 99.0211C70.1792 98.5418 70.4216 98.1023 70.5836 97.7025C70.6393 97.1953 70.7354 96.5949 70.8721 95.9012C71.0089 95.1808 71.1862 94.3537 71.404 93.4201C71.378 93.2597 71.3654 93.0994 71.3661 92.9392C71.3668 92.779 71.3675 92.6321 71.3681 92.4986C71.3695 92.1781 71.3843 91.8578 71.4125 91.5374C71.4674 91.1905 71.5355 90.8971 71.6167 90.6571C71.7247 90.3905 71.8726 90.1776 72.0602 90.0182C72.248 89.8321 72.5021 89.7398 72.8226 89.7412C73.41 89.7439 73.7695 89.9858 73.9008 90.4671ZM86.843 100.82C86.7594 101.594 86.4757 102.327 85.9919 103.019L84.5407 105.056C84.2994 105.268 83.9247 105.44 83.4168 105.571C82.9087 105.729 82.3874 105.847 81.8529 105.925C81.3451 106.029 80.8774 106.107 80.4499 106.159C80.0491 106.21 79.8353 106.236 79.8086 106.236C79.5416 106.235 79.1947 106.18 78.7679 106.071C78.3677 105.989 77.9676 105.894 77.5675 105.785C77.1674 105.677 76.8207 105.568 76.5275 105.46C76.2341 105.379 76.074 105.338 76.0473 105.338L76.0073 105.338C75.7137 105.31 75.3935 105.241 75.0468 105.133C74.7269 105.025 74.407 104.89 74.0873 104.728C73.7943 104.567 73.5547 104.392 73.3686 104.204C73.156 103.99 73.0502 103.762 73.0512 103.522C73.0526 103.228 73.2008 102.935 73.4958 102.643C73.791 102.323 74.0855 102.165 74.3792 102.166C77.0715 103.246 79.2188 103.79 80.821 103.797C81.4085 103.8 81.9031 103.682 82.3047 103.443C82.7331 103.205 83.0547 102.953 83.2695 102.687L84.1175 101.168C84.1191 100.821 84.0138 100.473 83.8018 100.125C83.6164 99.7773 83.3508 99.469 83.0048 99.2004C82.6857 98.9052 82.313 98.6499 81.8867 98.4343C81.4604 98.2187 81.0204 98.0699 80.5668 97.9877C80.0598 97.9053 79.5397 97.7561 79.0066 97.5401C78.5002 97.3242 78.0206 97.0683 77.568 96.7725C77.1421 96.4769 76.783 96.1548 76.4908 95.8063C76.2255 95.4313 76.0804 95.03 76.0556 94.6027C76.0289 94.6025 76.0045 94.095 75.9823 93.0802C76.0376 92.6798 76.0924 92.3596 76.1469 92.1195C76.2014 91.8794 76.3225 91.6663 76.5103 91.4803C76.6982 91.2675 76.9796 91.0417 77.3545 90.8031C77.7562 90.5646 78.3185 90.2199 79.0416 89.7692C79.2553 89.7435 79.6426 89.7185 80.2036 89.6943C80.7913 89.6436 81.5794 89.567 82.5679 89.4646C82.9952 89.4666 84.0886 89.7919 85.8482 90.4408C86.1142 90.6823 86.2461 91.0434 86.2439 91.5241C86.2402 92.3519 85.9579 92.7646 85.3971 92.762C85.3704 92.7619 85.3437 92.7618 85.317 92.7617C85.2904 92.7348 85.2504 92.7213 85.197 92.7211L83.7572 92.2339C83.0371 92.017 82.4234 91.9074 81.916 91.9052C81.1683 91.9018 80.5673 91.9391 80.113 92.0172C79.6854 92.0954 79.3644 92.2008 79.1502 92.3333C78.9361 92.4392 78.7887 92.5587 78.708 92.6919C78.6272 92.825 78.5733 92.9449 78.5461 93.0516C78.5457 93.1318 78.532 93.2118 78.505 93.2918C78.5047 93.3452 78.5044 93.412 78.5041 93.4921C78.4994 94.5335 78.9238 95.1764 79.7772 95.4205C83.9926 96.2941 86.3479 98.0939 86.843 100.82ZM98.4482 90.4574C98.6611 90.6186 98.7666 90.9262 98.7645 91.3801C98.7609 92.1813 98.4253 92.5803 97.7577 92.5773L97.5975 92.5766C97.5975 92.5766 97.3971 92.6024 96.9963 92.654C96.6223 92.679 96.1949 92.7172 95.714 92.7684C95.233 92.8197 94.7654 92.8843 94.3111 92.9624C93.8836 93.0139 93.6297 93.0661 93.5493 93.1192L93.5475 93.5197C93.5462 93.8135 93.5177 94.2139 93.462 94.7211C93.4064 95.2015 93.3777 95.642 93.3759 96.0425C93.3753 96.1761 93.3747 96.3096 93.3741 96.4431C93.4002 96.5768 93.4263 96.7104 93.4524 96.844C93.3442 97.164 93.2883 97.6978 93.285 98.4456C93.3071 99.4604 93.3304 100.222 93.3548 100.729C93.3794 101.21 93.4578 101.571 93.5903 101.812C93.7227 102.053 93.9489 102.241 94.2687 102.376C94.5886 102.511 95.055 102.713 95.668 102.983C96.3079 103.199 96.6267 103.575 96.6243 104.109C96.6227 104.456 96.4879 104.749 96.2197 104.988C95.9783 105.227 95.6573 105.346 95.2568 105.344C95.0698 105.343 94.7896 105.302 94.4161 105.22C94.0426 105.138 93.6559 105.03 93.256 104.895C92.8828 104.733 92.5364 104.558 92.2168 104.369C91.8974 104.154 91.6847 103.926 91.579 103.685C91.2617 102.99 91.011 102.321 90.827 101.679C90.643 101.011 90.5527 100.316 90.5559 99.5949C90.5593 98.8472 90.5752 98.2865 90.6036 97.9127C90.632 97.539 90.66 97.2454 90.6876 97.0319C90.7153 96.8184 90.7429 96.6316 90.7703 96.4714C90.7978 96.2846 90.8123 96.031 90.8138 95.7106C90.8147 95.4969 90.8023 95.2832 90.7766 95.0695C90.7777 94.8291 90.7787 94.6022 90.7797 94.3885C90.781 94.0948 90.7821 93.8544 90.7829 93.6675C90.8106 93.454 90.8381 93.2806 90.8654 93.1472C90.1441 93.1973 89.075 93.4061 87.658 93.7736C87.2307 93.7717 86.8574 93.6632 86.5379 93.4481C86.2184 93.2331 86.0595 92.9252 86.0613 92.5247C86.0618 92.4179 86.1025 92.2712 86.1835 92.0846C86.2644 91.898 86.3987 91.7251 86.5864 91.5657C86.8009 91.3797 87.0819 91.2341 87.4296 91.1288C87.804 90.997 88.2583 90.9323 88.7924 90.9347L89.0327 90.9358C89.6202 90.9384 90.3017 90.8213 91.0772 90.5845C91.0773 90.5578 91.0778 90.4509 91.0786 90.264C91.1063 90.0505 91.1207 89.8236 91.1217 89.5832C91.1497 89.3163 91.1641 89.0627 91.1652 88.8224C91.193 88.5821 91.2071 88.4086 91.2076 88.3018L91.2085 88.1015C91.2366 87.8079 91.2918 87.3942 91.3743 86.8605C91.457 86.3001 91.5796 85.7532 91.7422 85.2198C91.905 84.6598 92.1074 84.18 92.3496 83.7805C92.6184 83.3812 92.9398 83.1823 93.3136 83.184C94.0346 83.1873 94.4738 83.5097 94.6311 84.1513C94.6309 84.2047 94.59 84.3915 94.5085 84.7115C94.4536 85.0318 94.3852 85.392 94.3033 85.7922C94.2214 86.1924 94.1395 86.5792 94.0577 86.9527C93.9759 87.3262 93.9348 87.5664 93.9343 87.6732C93.9341 87.7266 93.9201 87.8734 93.8923 88.1136C93.8645 88.3538 93.8366 88.6207 93.8086 88.9144C93.8072 89.2081 93.7926 89.5018 93.7645 89.7954C93.7365 90.089 93.7222 90.3026 93.7216 90.4361C93.6682 90.4359 94.0289 90.3975 94.8037 90.3208C94.9372 90.3214 95.0573 90.322 95.1642 90.3225C95.2978 90.2964 95.418 90.2835 95.5248 90.284C95.605 90.2844 95.6717 90.298 95.7249 90.325C95.7784 90.3252 95.8318 90.3255 95.8852 90.3257C96.1256 90.3001 96.3527 90.2878 96.5663 90.2887C96.7801 90.263 96.9804 90.2505 97.1673 90.2514C97.7548 90.254 98.1818 90.3227 98.4482 90.4574ZM113.208 101.299C113.58 101.541 113.766 101.836 113.764 102.183C113.763 102.557 113.574 102.916 113.199 103.262C112.823 103.607 112.462 103.779 112.115 103.778C111.288 103.48 110.57 102.93 109.959 102.126C109.375 101.322 108.979 100.452 108.769 99.5167C108.581 99.9164 108.351 100.423 108.082 101.036C107.839 101.622 107.516 102.181 107.113 102.714C106.71 103.246 106.214 103.711 105.624 104.109C105.035 104.48 104.3 104.664 103.419 104.66C102.965 104.658 102.364 104.575 101.617 104.411C100.792 103.82 100.14 103.35 99.6607 103.001C99.2085 102.625 98.8629 102.276 98.624 101.955C98.3851 101.633 98.2398 101.272 98.1882 100.871C98.1366 100.47 98.1123 99.936 98.1153 99.2684C98.1179 98.7076 98.2007 98.0938 98.364 97.4269C98.554 96.7335 98.8108 96.0403 99.1344 95.3474C99.458 94.6546 99.8616 93.9754 100.345 93.31C100.829 92.6446 101.393 92.0329 102.036 91.475C103.213 91.0797 104.135 90.7901 104.804 90.6062C105.472 90.4223 105.927 90.3309 106.167 90.3319C106.704 89.7201 107.266 89.4156 107.853 89.4182C108.174 89.4197 108.453 89.6078 108.692 89.9828C108.931 90.3577 109.142 90.8527 109.326 91.4677C109.537 92.0562 109.695 92.7112 109.798 93.4327C109.928 94.1543 110.032 94.8491 110.109 95.517C110.189 95.6509 110.255 95.8114 110.307 95.9986C110.36 96.1591 110.412 96.3729 110.465 96.6402L110.7 97.7629C110.857 98.538 111.161 99.207 111.612 99.7698C112.064 100.333 112.595 100.842 113.208 101.299ZM107.584 95.9863C107.531 95.7458 107.44 95.3448 107.309 94.7834C107.178 94.222 107.007 93.5002 106.798 92.618C106.477 92.6967 106.129 92.7352 105.756 92.7335C105.382 92.7051 104.981 92.7701 104.553 92.9284C104.125 93.0867 103.656 93.3783 103.147 93.8033C102.664 94.2284 102.167 94.8938 101.656 95.7994C101.01 96.9715 100.684 98.2118 100.678 99.5203C100.836 99.8682 100.982 100.176 101.114 100.444C101.247 100.685 101.406 100.912 101.592 101.127C101.805 101.315 102.058 101.503 102.35 101.691C102.643 101.879 103.016 102.081 103.469 102.297C103.87 102.218 104.204 102.127 104.472 102.021C104.766 101.915 105.021 101.756 105.235 101.544C105.45 101.304 105.652 101.011 105.84 100.665C106.029 100.319 106.258 99.8659 106.527 99.3063C107.228 97.7606 107.581 96.6539 107.584 95.9863ZM118.993 87.0649C118.991 87.5189 118.909 87.8924 118.747 88.1854C118.613 88.4519 118.425 88.6513 118.184 88.7838C117.943 88.9162 117.675 89.0085 117.381 89.0605C117.114 89.086 116.847 89.0982 116.58 89.097C116.207 88.8283 115.888 88.5331 115.623 88.2114C115.384 87.8632 115.265 87.5288 115.267 87.2084C115.268 86.9681 115.376 86.7015 115.591 86.4087C115.806 86.0892 115.994 85.783 116.156 85.49L117.998 85.6585C118.664 85.8217 118.996 86.2905 118.993 87.0649ZM117.605 92.8669L117.604 93.0272C117.603 93.2675 117.561 93.6679 117.478 94.2283C117.422 94.7622 117.326 95.4694 117.188 96.35C117.214 96.4837 117.227 96.6706 117.226 96.911C117.225 97.0712 117.17 97.4315 117.061 97.9918C116.951 98.5521 116.896 99.0325 116.894 99.4331C116.894 99.5132 116.893 99.5933 116.893 99.6734C116.919 99.7536 116.932 99.8205 116.932 99.8739C116.85 100.247 116.808 100.781 116.805 101.476C116.803 101.769 116.802 102.09 116.8 102.437C116.826 102.757 116.851 103.105 116.876 103.479C116.659 104.252 116.243 104.638 115.629 104.635C115.095 104.632 114.722 104.35 114.511 103.789C114.327 103.2 114.237 102.439 114.241 101.504C114.245 100.569 114.276 99.715 114.333 98.9409C114.416 98.1668 114.513 97.4462 114.623 96.7791C114.733 96.0853 114.842 95.4315 114.952 94.8178C115.088 94.1775 115.211 93.5505 115.321 92.9368C115.59 92.5374 115.965 92.3388 116.445 92.341C116.953 92.3433 117.339 92.5186 117.605 92.8669ZM134.323 101.154L134.322 101.474C134.321 101.608 134.32 101.875 134.318 102.275C134.343 102.649 134.314 103.036 134.233 103.437C134.151 103.837 134.002 104.197 133.787 104.516C133.599 104.836 133.291 104.995 132.864 104.993C132.089 104.989 131.623 104.68 131.466 104.065C131.493 103.852 131.508 103.625 131.509 103.384C131.537 103.117 131.551 102.837 131.553 102.543C131.555 102.036 131.531 101.462 131.48 100.821C131.457 100.18 131.42 99.4718 131.37 98.6971L131.058 96.773C130.954 96.1316 130.783 95.6368 130.544 95.2885C130.305 94.9136 130.039 94.6454 129.746 94.4838C129.454 94.2956 129.147 94.1874 128.827 94.1592C128.533 94.1045 128.28 94.0766 128.066 94.0757C127.265 94.0721 126.583 94.3094 126.02 94.7875C125.457 95.2389 124.986 96.1448 124.606 97.505C124.577 97.9588 124.535 98.4527 124.479 98.9865C124.45 99.5205 124.38 100.108 124.271 100.748C124.32 101.71 124.394 102.938 124.494 104.434C124.491 105.262 124.021 105.674 123.087 105.67C122.713 105.668 122.42 105.56 122.207 105.345C122.021 105.131 121.875 104.863 121.77 104.542C121.691 104.195 121.64 103.834 121.615 103.46C121.59 103.086 121.578 102.739 121.579 102.418C121.581 102.125 121.595 101.831 121.623 101.537C121.651 101.244 121.693 100.937 121.748 100.617L122.127 96.4924C122.155 96.1988 122.196 95.8785 122.251 95.5316C122.333 95.1848 122.428 94.798 122.537 94.3713C122.459 93.7834 122.222 93.088 121.825 92.2851L121.826 92.1249C121.827 91.8311 121.962 91.5513 122.23 91.2855C122.525 91.0198 122.859 90.8878 123.233 90.8894C123.607 90.8911 123.914 91.026 124.153 91.2941C124.392 91.5356 124.697 91.9509 125.069 92.54C125.283 92.3541 125.631 92.1821 126.112 92.024C126.621 91.8393 127.195 91.7485 127.836 91.7514C129.278 91.7578 130.518 92.0705 131.557 92.6894C132.596 93.3083 133.258 94.4062 133.545 95.983C133.622 96.5976 133.687 97.1053 133.739 97.5061C133.79 97.8802 133.842 98.2409 133.894 98.5883C133.973 98.9091 134.038 99.2699 134.089 99.6707C134.168 100.045 134.246 100.539 134.323 101.154ZM151.211 101.47C151.584 101.712 151.769 102.007 151.768 102.354C151.766 102.728 151.577 103.087 151.202 103.433C150.827 103.778 150.465 103.95 150.118 103.949C149.292 103.651 148.573 103.101 147.963 102.297C147.379 101.493 146.982 100.623 146.773 99.6877C146.584 100.087 146.355 100.594 146.085 101.207C145.842 101.793 145.519 102.353 145.116 102.885C144.713 103.417 144.217 103.882 143.627 104.28C143.038 104.651 142.303 104.835 141.422 104.831C140.968 104.829 140.367 104.746 139.62 104.583C138.795 103.991 138.143 103.521 137.664 103.172C137.212 102.796 136.866 102.447 136.627 102.126C136.388 101.804 136.243 101.443 136.191 101.042C136.14 100.641 136.116 100.107 136.119 99.4395C136.121 98.8787 136.204 98.2649 136.367 97.598C136.557 96.9045 136.814 96.2114 137.138 95.5185C137.461 94.8256 137.865 94.1465 138.348 93.4811C138.832 92.8156 139.396 92.204 140.039 91.6461C141.216 91.2508 142.139 90.9612 142.807 90.7773C143.475 90.5933 143.93 90.5019 144.17 90.503C144.707 89.8912 145.269 89.5866 145.857 89.5893C146.177 89.5907 146.457 89.7789 146.695 90.1539C146.934 90.5288 147.145 91.0238 147.33 91.6388C147.54 92.2273 147.698 92.8822 147.801 93.6037C147.932 94.3253 148.035 95.0201 148.112 95.6881C148.192 95.822 148.258 95.9825 148.311 96.1697C148.363 96.3301 148.416 96.544 148.468 96.8113L148.703 97.9339C148.86 98.7091 149.164 99.378 149.615 99.9409C150.067 100.504 150.599 101.013 151.211 101.47ZM145.587 96.1574C145.534 95.9168 145.443 95.5158 145.312 94.9545C145.181 94.3931 145.01 93.6713 144.801 92.7891C144.48 92.8677 144.133 92.9062 143.759 92.9046C143.385 92.8762 142.984 92.9411 142.556 93.0994C142.128 93.2577 141.66 93.5494 141.15 93.9744C140.668 94.3995 140.171 95.0648 139.659 95.9705C139.013 97.1426 138.687 98.3829 138.681 99.6914C138.84 100.039 138.985 100.347 139.118 100.615C139.25 100.856 139.409 101.083 139.595 101.298C139.808 101.486 140.061 101.674 140.354 101.862C140.647 102.05 141.02 102.252 141.473 102.468C141.873 102.39 142.208 102.298 142.475 102.192C142.769 102.086 143.024 101.927 143.238 101.715C143.453 101.475 143.655 101.183 143.843 100.836C144.032 100.49 144.261 100.037 144.53 99.4774C145.232 97.9317 145.584 96.825 145.587 96.1574ZM164.375 94.2391C165.01 95.4971 165.325 96.6335 165.321 97.6482C165.292 98.022 165.251 98.409 165.195 98.8093C165.14 99.1829 165.019 99.5562 164.83 99.9292L163.94 101.808L162.693 103.124C161.781 103.975 160.924 104.545 160.121 104.835C159.319 105.098 158.651 105.229 158.117 105.227C157.422 105.223 156.662 104.966 155.837 104.455C155.595 104.881 155.206 105.093 154.672 105.091C154.272 105.089 153.858 104.967 153.432 104.725C153.461 104.351 153.476 103.937 153.478 103.483C153.507 103.003 153.522 102.482 153.525 101.921C153.498 101.868 153.473 101.667 153.447 101.32C153.422 100.946 153.384 100.505 153.333 99.9977C153.309 99.4902 153.271 98.9559 153.22 98.3949C153.17 97.8072 153.119 97.2728 153.067 96.7919C153.016 96.2843 152.965 95.8568 152.913 95.5094C152.861 95.1353 152.822 94.9215 152.796 94.868L152.256 90.0988C152.128 88.9499 151.959 87.9611 151.749 87.1323C151.539 86.3035 151.435 85.7022 151.437 85.3283C151.441 84.3403 151.87 83.8482 152.725 83.852C153.259 83.8544 153.672 84.0566 153.964 84.4584C154.283 84.8604 154.506 85.6626 154.634 86.8649C154.685 87.4793 154.749 88.0003 154.827 88.428C154.906 88.8289 154.971 89.1496 155.023 89.3902L155.023 89.5104C155.022 89.5905 155.035 89.8709 155.059 90.3517C155.11 90.8326 155.148 91.3402 155.172 91.8744C155.224 92.382 155.261 92.8495 155.286 93.2769C155.338 93.6777 155.364 93.8514 155.364 93.798C155.953 93.3734 156.462 93.0419 156.891 92.8034C157.346 92.5384 157.774 92.3534 158.175 92.2484C158.603 92.1168 159.03 92.0386 159.458 92.0139C159.885 91.9624 160.393 91.938 160.98 91.9406L162.58 92.4685C163.38 92.8727 163.978 93.4629 164.375 94.2391ZM162.431 99.0372C162.594 98.2368 162.677 97.6497 162.679 97.2758C162.68 97.0889 162.627 96.835 162.522 96.514C162.417 96.1664 162.258 95.8452 162.046 95.5505C161.833 95.2291 161.568 94.9609 161.248 94.7458C160.929 94.504 160.555 94.3822 160.128 94.3802C159.648 94.3781 159.006 94.5888 158.203 95.0125C157.426 95.4096 156.65 95.8333 155.874 96.2838C156.002 97.4594 156.115 99.1156 156.212 101.252C156.528 102.269 157.059 102.778 157.807 102.782C158.261 102.784 158.93 102.6 159.812 102.23L161.421 100.835C161.984 100.25 162.321 99.6509 162.431 99.0372ZM171.932 87.3032C171.93 87.7572 171.849 88.1307 171.687 88.4237C171.552 88.6902 171.364 88.8896 171.123 89.022C170.883 89.1545 170.615 89.2467 170.321 89.2988C170.054 89.3243 169.787 89.3365 169.52 89.3353C169.147 89.0666 168.828 88.7714 168.562 88.4497C168.324 88.1015 168.205 87.7671 168.206 87.4467C168.208 87.2064 168.316 86.9398 168.53 86.647C168.746 86.3275 168.934 86.0213 169.095 85.7283L170.937 85.8968C171.604 86.06 171.936 86.5288 171.932 87.3032ZM170.544 93.1052L170.544 93.2655C170.543 93.5058 170.501 93.9062 170.418 94.4666C170.362 95.0004 170.266 95.7077 170.128 96.5883C170.154 96.722 170.167 96.9089 170.166 97.1493C170.165 97.3095 170.11 97.6698 170.001 98.2301C169.891 98.7904 169.836 99.2708 169.834 99.6714C169.833 99.7515 169.833 99.8316 169.833 99.9117C169.859 99.9919 169.872 100.059 169.872 100.112C169.79 100.486 169.748 101.02 169.744 101.714C169.743 102.008 169.742 102.328 169.74 102.675C169.765 102.996 169.791 103.343 169.816 103.717C169.598 104.49 169.183 104.876 168.569 104.873C168.035 104.871 167.662 104.589 167.451 104.027C167.267 103.439 167.177 102.677 167.181 101.742C167.185 100.808 167.215 99.9533 167.272 99.1792C167.356 98.4051 167.453 97.6845 167.563 97.0174C167.672 96.3236 167.782 95.6698 167.892 95.0561C168.028 94.4158 168.151 93.7888 168.261 93.1751C168.53 92.7757 168.904 92.5771 169.385 92.5793C169.892 92.5816 170.279 92.7569 170.544 93.1052ZM179.248 84.2518C179.22 84.5454 179.165 84.9057 179.083 85.3326C179.001 85.7595 178.906 86.1997 178.797 86.6532C178.688 87.08 178.579 87.4934 178.471 87.8935C178.389 88.2937 178.321 88.6138 178.266 88.8539C178.292 88.9876 178.305 89.1078 178.305 89.2146C178.304 89.3214 178.304 89.4416 178.303 89.5751C178.302 89.7887 178.274 90.069 178.219 90.4159C178.164 90.7628 178.096 91.123 178.014 91.4965C177.932 91.87 177.864 92.2302 177.809 92.5771C177.754 92.8974 177.726 93.1509 177.725 93.3379C177.724 93.6049 177.722 93.9921 177.72 94.4995C177.745 95.007 177.755 95.5678 177.753 96.182C177.75 96.7695 177.72 97.3836 177.664 98.0242C177.608 98.6649 177.512 99.2386 177.376 99.7454C177.401 100.066 177.413 100.386 177.412 100.707C177.41 101.027 177.435 101.375 177.487 101.749C177.566 102.096 177.684 102.484 177.842 102.912C178.027 103.34 178.319 103.795 178.718 104.278C178.636 104.571 178.381 104.85 177.953 105.116C177.551 105.354 177.137 105.472 176.709 105.471C176.149 105.468 175.683 105.159 175.312 104.543C174.967 103.9 174.799 102.738 174.807 101.056C174.808 100.762 174.822 100.508 174.85 100.295C174.904 100.055 174.932 99.7744 174.934 99.454C174.937 98.7864 174.86 97.9849 174.704 97.0495C174.812 96.783 174.894 96.4095 174.95 95.9291C175.032 95.4487 175.088 94.9817 175.116 94.5278C175.145 94.0473 175.16 93.6468 175.162 93.3263C175.19 92.9793 175.204 92.8191 175.204 92.8458C175.204 92.8191 175.232 92.6056 175.287 92.2053C175.369 91.8051 175.451 91.3248 175.534 90.7643C175.616 90.2039 175.686 89.6434 175.742 89.0829C175.824 88.4958 175.867 88.0286 175.868 87.6815L175.87 87.361C175.952 86.8807 176.048 86.347 176.157 85.76C176.267 85.173 176.39 84.5327 176.526 83.839C176.768 83.4395 177.17 83.241 177.731 83.2435C178.425 83.2467 178.931 83.5828 179.248 84.2518ZM186.824 87.3703C186.821 87.8242 186.74 88.1977 186.578 88.4908C186.443 88.7572 186.256 88.9566 186.015 89.0891C185.774 89.2215 185.506 89.3138 185.212 89.3659C184.945 89.3914 184.678 89.4035 184.411 89.4023C184.038 89.1336 183.719 88.8384 183.454 88.5168C183.215 88.1685 183.096 87.8342 183.098 87.5137C183.099 87.2734 183.207 87.0068 183.422 86.714C183.637 86.3946 183.825 86.0883 183.987 85.7953L185.828 85.9638C186.495 86.127 186.827 86.5959 186.824 87.3703ZM185.435 93.1723L185.435 93.3325C185.434 93.5728 185.392 93.9732 185.309 94.5336C185.253 95.0675 185.157 95.7747 185.019 96.6553C185.045 96.789 185.058 96.976 185.057 97.2163C185.056 97.3765 185.001 97.7368 184.892 98.2971C184.782 98.8574 184.727 99.3378 184.725 99.7384C184.725 99.8185 184.724 99.8986 184.724 99.9787C184.75 100.059 184.763 100.126 184.763 100.179C184.681 100.553 184.639 101.087 184.636 101.781C184.634 102.075 184.633 102.395 184.631 102.742C184.657 103.063 184.682 103.41 184.707 103.784C184.49 104.558 184.074 104.943 183.46 104.94C182.926 104.938 182.553 104.656 182.342 104.094C182.158 103.506 182.068 102.744 182.072 101.809C182.076 100.875 182.107 100.02 182.164 99.2462C182.247 98.4721 182.344 97.7515 182.454 97.0844C182.564 96.3906 182.673 95.7368 182.783 95.1231C182.919 94.4828 183.042 93.8558 183.152 93.2421C183.421 92.8427 183.796 92.6442 184.276 92.6463C184.784 92.6486 185.17 92.8239 185.435 93.1723ZM199.197 90.9109C199.41 91.0721 199.515 91.3797 199.513 91.8337C199.51 92.6348 199.174 93.0338 198.507 93.0308L198.346 93.0301C198.346 93.0301 198.146 93.0559 197.745 93.1075C197.371 93.1325 196.944 93.1707 196.463 93.2219C195.982 93.2732 195.514 93.3378 195.06 93.4159C194.632 93.4674 194.378 93.5196 194.298 93.5727L194.296 93.9732C194.295 94.267 194.267 94.6674 194.211 95.1746C194.155 95.655 194.127 96.0955 194.125 96.496C194.124 96.6296 194.124 96.7631 194.123 96.8966C194.149 97.0303 194.175 97.1639 194.201 97.2975C194.093 97.6175 194.037 98.1513 194.034 98.8991C194.056 99.9139 194.079 100.675 194.104 101.183C194.128 101.663 194.207 102.024 194.339 102.265C194.472 102.506 194.698 102.694 195.018 102.829C195.337 102.964 195.804 103.166 196.417 103.436C197.057 103.653 197.376 104.028 197.373 104.562C197.372 104.909 197.237 105.202 196.969 105.442C196.727 105.681 196.406 105.8 196.006 105.798C195.819 105.797 195.538 105.756 195.165 105.674C194.791 105.592 194.405 105.483 194.005 105.348C193.632 105.186 193.285 105.011 192.966 104.823C192.646 104.608 192.434 104.38 192.328 104.139C192.011 103.443 191.76 102.774 191.576 102.133C191.392 101.464 191.302 100.769 191.305 100.048C191.308 99.3007 191.324 98.74 191.352 98.3662C191.381 97.9925 191.409 97.6989 191.436 97.4854C191.464 97.2719 191.492 97.0851 191.519 96.9249C191.547 96.7381 191.561 96.4845 191.563 96.1641C191.564 95.9504 191.551 95.7367 191.525 95.523C191.527 95.2826 191.528 95.0557 191.529 94.842C191.53 94.5483 191.531 94.308 191.532 94.121C191.559 93.9075 191.587 93.7341 191.614 93.6007C190.893 93.6508 189.824 93.8596 188.407 94.2271C187.98 94.2252 187.606 94.1167 187.287 93.9016C186.967 93.6866 186.808 93.3787 186.81 92.9782C186.811 92.8714 186.851 92.7247 186.932 92.5381C187.013 92.3515 187.148 92.1786 187.335 92.0192C187.55 91.8332 187.831 91.6876 188.178 91.5823C188.553 91.4505 189.007 91.3858 189.541 91.3882L189.782 91.3893C190.369 91.3919 191.051 91.2748 191.826 91.038C191.826 91.0113 191.827 90.9044 191.827 90.7175C191.855 90.504 191.87 90.2771 191.871 90.0367C191.898 89.7698 191.913 89.5162 191.914 89.2759C191.942 89.0356 191.956 88.8621 191.956 88.7553L191.957 88.555C191.985 88.2614 192.041 87.8477 192.123 87.314C192.206 86.7536 192.328 86.2067 192.491 85.6733C192.654 85.1133 192.856 84.6335 193.098 84.234C193.367 83.8347 193.689 83.6358 194.062 83.6375C194.783 83.6408 195.223 83.9632 195.38 84.6048C195.38 84.6582 195.339 84.845 195.257 85.165C195.202 85.4853 195.134 85.8455 195.052 86.2457C194.97 86.6459 194.888 87.0327 194.807 87.4062C194.725 87.7797 194.684 88.0199 194.683 88.1267C194.683 88.1801 194.669 88.3269 194.641 88.5671C194.613 88.8073 194.585 89.0742 194.557 89.3679C194.556 89.6616 194.541 89.9553 194.513 90.2489C194.485 90.5425 194.471 90.7561 194.47 90.8896C194.417 90.8894 194.778 90.851 195.553 90.7743C195.686 90.7749 195.806 90.7755 195.913 90.776C196.047 90.7499 196.167 90.7371 196.274 90.7375C196.354 90.7379 196.421 90.7515 196.474 90.7785C196.527 90.7787 196.581 90.779 196.634 90.7792C196.874 90.7536 197.102 90.7413 197.315 90.7422C197.529 90.7165 197.729 90.704 197.916 90.7049C198.504 90.7075 198.931 90.7762 199.197 90.9109ZM213.633 93.5395C213.604 94.0735 213.535 94.5539 213.426 94.9807C213.318 95.3807 213.155 95.7939 212.94 96.2202C212.751 96.6467 212.522 97.113 212.253 97.6191C212.01 98.0987 211.74 98.6984 211.443 99.418C211.278 100.459 210.967 101.419 210.509 102.298C210.078 103.177 209.593 104.016 209.056 104.815C208.545 105.614 208.034 106.386 207.523 107.131C207.012 107.904 206.622 108.69 206.351 109.489C205.921 110.075 205.585 110.581 205.343 111.007C205.1 111.46 204.871 111.886 204.656 112.286C204.44 112.685 204.185 113.085 203.889 113.484C203.594 113.91 203.164 114.402 202.601 114.96C202.441 115.013 202.28 115.039 202.12 115.038C201.773 115.037 201.439 114.928 201.12 114.713C200.827 114.525 200.681 114.284 200.683 113.99C200.683 113.83 200.737 113.684 200.845 113.55L203.466 109.677C203.547 109.437 203.709 109.09 203.951 108.637C204.194 108.185 204.463 107.692 204.759 107.159C205.055 106.626 205.338 106.107 205.607 105.601C205.877 105.068 206.052 104.641 206.134 104.321C205.947 104.213 205.721 104.039 205.455 103.797C205.189 103.529 204.91 103.261 204.618 102.992C204.325 102.697 204.033 102.429 203.74 102.187C203.474 101.919 203.221 101.731 202.981 101.623C202.504 100.953 202.119 100.498 201.826 100.256C201.56 99.9878 201.281 99.7195 200.988 99.4511C200.696 99.1827 200.35 98.794 199.952 98.2848C199.581 97.749 199.037 96.8787 198.322 95.6737C198.295 95.6202 198.282 95.54 198.283 95.4332C198.284 95.0861 198.406 94.7528 198.648 94.4335C198.916 94.1142 199.237 93.9554 199.611 93.9571C199.878 93.9583 200.211 94.1601 200.61 94.5625C201.009 94.9648 201.394 95.4205 201.765 95.9296C202.164 96.4121 202.522 96.881 202.841 97.3364C203.159 97.7651 203.358 98.0331 203.438 98.1402C203.597 98.3012 203.836 98.5693 204.155 98.9446C204.501 99.32 204.873 99.7089 205.272 100.111C205.67 100.514 206.056 100.889 206.428 101.238C206.827 101.587 207.147 101.815 207.386 101.923C207.601 101.657 207.884 101.071 208.235 100.165C208.614 99.2317 209.005 98.2721 209.41 97.2859C209.707 96.5395 210.031 95.7932 210.382 95.0471C210.759 94.2743 210.976 93.581 211.032 92.967C211.487 92.6753 211.928 92.5304 212.356 92.5324C213.103 92.5357 213.529 92.8715 213.633 93.5395ZM238.576 101.503C238.492 102.277 238.208 103.01 237.725 103.702L236.273 105.739C236.032 105.951 235.657 106.123 235.149 106.254C234.641 106.412 234.12 106.53 233.586 106.608C233.078 106.712 232.61 106.79 232.183 106.842C231.782 106.893 231.568 106.919 231.541 106.919C231.274 106.918 230.927 106.863 230.501 106.754C230.1 106.672 229.7 106.577 229.3 106.468C228.9 106.36 228.553 106.251 228.26 106.143C227.967 106.062 227.807 106.021 227.78 106.021L227.74 106.021C227.446 105.993 227.126 105.924 226.78 105.816C226.46 105.708 226.14 105.573 225.82 105.411C225.527 105.25 225.287 105.075 225.101 104.887C224.889 104.673 224.783 104.445 224.784 104.205C224.785 103.911 224.933 103.618 225.229 103.326C225.524 103.006 225.818 102.848 226.112 102.849C228.804 103.929 230.951 104.473 232.554 104.48C233.141 104.483 233.636 104.365 234.037 104.126C234.466 103.888 234.787 103.636 235.002 103.37L235.85 101.851C235.852 101.504 235.747 101.156 235.534 100.808C235.349 100.46 235.083 100.152 234.738 99.8834C234.418 99.5882 234.046 99.3329 233.619 99.1173C233.193 98.9017 232.753 98.7529 232.299 98.6707C231.792 98.5883 231.272 98.4391 230.739 98.2231C230.233 98.0072 229.753 97.7513 229.301 97.4555C228.875 97.1599 228.516 96.8378 228.224 96.4893C227.958 96.1143 227.813 95.713 227.788 95.2856C227.762 95.2855 227.737 94.778 227.715 93.7632C227.77 93.3628 227.825 93.0426 227.88 92.8025C227.934 92.5624 228.055 92.3493 228.243 92.1633C228.431 91.9505 228.712 91.7247 229.087 91.4861C229.489 91.2476 230.051 90.9029 230.774 90.4522C230.988 90.4265 231.375 90.4015 231.936 90.3773C232.524 90.3266 233.312 90.25 234.301 90.1476C234.728 90.1495 235.821 90.4749 237.581 91.1238C237.847 91.3653 237.979 91.7264 237.977 92.2071C237.973 93.0349 237.691 93.4475 237.13 93.445C237.103 93.4449 237.076 93.4448 237.05 93.4447C237.023 93.4178 236.983 93.4043 236.93 93.4041L235.49 92.9169C234.77 92.7 234.156 92.5904 233.649 92.5882C232.901 92.5848 232.3 92.6221 231.846 92.7002C231.418 92.7784 231.097 92.8838 230.883 93.0163C230.669 93.1222 230.521 93.2417 230.441 93.3749C230.36 93.508 230.306 93.6279 230.279 93.7346C230.278 93.8147 230.265 93.8948 230.238 93.9748C230.237 94.0282 230.237 94.095 230.237 94.1751C230.232 95.2165 230.656 95.8594 231.51 96.1035C235.725 96.9771 238.081 98.7769 238.576 101.503ZM250.181 91.1404C250.394 91.3016 250.499 91.6092 250.497 92.0631C250.494 92.8643 250.158 93.2633 249.49 93.2603L249.33 93.2596C249.33 93.2596 249.13 93.2854 248.729 93.337C248.355 93.362 247.928 93.4002 247.447 93.4514C246.966 93.5026 246.498 93.5673 246.044 93.6454C245.616 93.6969 245.362 93.7491 245.282 93.8022L245.28 94.2027C245.279 94.4965 245.25 94.8969 245.195 95.4041C245.139 95.8845 245.11 96.325 245.109 96.7255C245.108 96.8591 245.107 96.9926 245.107 97.1261C245.133 97.2597 245.159 97.3934 245.185 97.527C245.077 97.847 245.021 98.3808 245.018 99.1285C245.04 100.143 245.063 100.905 245.088 101.412C245.112 101.893 245.191 102.254 245.323 102.495C245.455 102.736 245.682 102.924 246.001 103.059C246.321 103.194 246.788 103.396 247.401 103.666C248.041 103.882 248.359 104.258 248.357 104.792C248.355 105.139 248.221 105.432 247.952 105.671C247.711 105.91 247.39 106.029 246.989 106.027C246.803 106.026 246.522 105.985 246.149 105.903C245.775 105.821 245.389 105.713 244.989 105.578C244.616 105.416 244.269 105.241 243.95 105.052C243.63 104.837 243.417 104.609 243.312 104.368C242.994 103.673 242.744 103.004 242.56 102.362C242.376 101.694 242.285 100.999 242.289 100.278C242.292 99.5302 242.308 98.9695 242.336 98.5957C242.365 98.222 242.393 97.9284 242.42 97.7149C242.448 97.5014 242.476 97.3145 242.503 97.1544C242.531 96.9676 242.545 96.714 242.546 96.3936C242.547 96.1799 242.535 95.9662 242.509 95.7525C242.51 95.5121 242.511 95.2852 242.512 95.0715C242.514 94.7778 242.515 94.5374 242.516 94.3505C242.543 94.137 242.571 93.9635 242.598 93.8301C241.877 93.8803 240.808 94.0891 239.391 94.4566C238.963 94.4547 238.59 94.3462 238.271 94.1311C237.951 93.916 237.792 93.6082 237.794 93.2077C237.795 93.1009 237.835 92.9542 237.916 92.7676C237.997 92.581 238.131 92.4081 238.319 92.2487C238.534 92.0627 238.815 91.9171 239.162 91.8118C239.537 91.68 239.991 91.6153 240.525 91.6177L240.765 91.6188C241.353 91.6214 242.034 91.5043 242.81 91.2675C242.81 91.2408 242.81 91.1339 242.811 90.947C242.839 90.7335 242.853 90.5066 242.854 90.2662C242.882 89.9993 242.897 89.7457 242.898 89.5054C242.926 89.2651 242.94 89.0916 242.94 88.9848L242.941 88.7845C242.969 88.4909 243.025 88.0772 243.107 87.5435C243.19 86.9831 243.312 86.4362 243.475 85.9028C243.638 85.3428 243.84 84.863 244.082 84.4635C244.351 84.0642 244.672 83.8653 245.046 83.867C245.767 83.8702 246.207 84.1927 246.364 84.8343C246.364 84.8877 246.323 85.0745 246.241 85.3945C246.186 85.7148 246.118 86.075 246.036 86.4752C245.954 86.8754 245.872 87.2622 245.79 87.6357C245.709 88.0092 245.668 88.2494 245.667 88.3562C245.667 88.4096 245.653 88.5564 245.625 88.7966C245.597 89.0368 245.569 89.3037 245.541 89.5974C245.54 89.8911 245.525 90.1848 245.497 90.4784C245.469 90.772 245.455 90.9856 245.454 91.1191C245.401 91.1189 245.762 91.0805 246.536 91.0038C246.67 91.0044 246.79 91.005 246.897 91.0055C247.031 90.9794 247.151 90.9665 247.258 90.967C247.338 90.9674 247.404 90.981 247.458 91.008C247.511 91.0082 247.564 91.0085 247.618 91.0087C247.858 90.9831 248.085 90.9708 248.299 90.9717C248.513 90.946 248.713 90.9335 248.9 90.9344C249.488 90.937 249.914 91.0057 250.181 91.1404ZM264.94 101.982C265.313 102.224 265.499 102.519 265.497 102.866C265.495 103.24 265.307 103.599 264.932 103.945C264.556 104.29 264.195 104.462 263.848 104.461C263.021 104.163 262.303 103.613 261.692 102.809C261.108 102.005 260.711 101.135 260.502 100.2C260.313 100.599 260.084 101.106 259.814 101.719C259.571 102.305 259.248 102.864 258.845 103.397C258.442 103.929 257.946 104.394 257.357 104.792C256.768 105.163 256.033 105.347 255.151 105.343C254.697 105.341 254.097 105.258 253.35 105.094C252.525 104.503 251.873 104.033 251.393 103.684C250.941 103.308 250.596 102.959 250.357 102.638C250.118 102.316 249.973 101.955 249.921 101.554C249.869 101.153 249.845 100.619 249.848 99.9514C249.851 99.3906 249.933 98.7768 250.097 98.1099C250.287 97.4165 250.544 96.7233 250.867 96.0304C251.191 95.3376 251.594 94.6584 252.078 93.993C252.562 93.3276 253.125 92.7159 253.769 92.158C254.945 91.7627 255.868 91.4731 256.536 91.2892C257.205 91.1053 257.659 91.0138 257.9 91.0149C258.436 90.4031 258.999 90.0986 259.586 90.1012C259.907 90.1027 260.186 90.2908 260.425 90.6658C260.663 91.0407 260.875 91.5357 261.059 92.1507C261.27 92.7392 261.427 93.3942 261.531 94.1157C261.661 94.8373 261.765 95.5321 261.842 96.2C261.921 96.3339 261.987 96.4944 262.04 96.6816C262.093 96.8421 262.145 97.0559 262.197 97.3232L262.433 98.4459C262.589 99.221 262.894 99.89 263.345 100.453C263.796 101.016 264.328 101.525 264.94 101.982ZM259.316 96.6693C259.264 96.4287 259.172 96.0278 259.041 95.4664C258.91 94.905 258.74 94.1832 258.53 93.301C258.209 93.3797 257.862 93.4182 257.488 93.4165C257.115 93.3881 256.714 93.4531 256.286 93.6114C255.858 93.7697 255.389 94.0613 254.88 94.4863C254.397 94.9114 253.9 95.5768 253.389 96.4824C252.742 97.6545 252.416 98.8948 252.411 100.203C252.569 100.551 252.715 100.859 252.847 101.127C252.979 101.368 253.139 101.595 253.325 101.81C253.537 101.998 253.79 102.186 254.083 102.374C254.376 102.562 254.749 102.764 255.202 102.98C255.603 102.901 255.937 102.81 256.205 102.704C256.499 102.598 256.753 102.439 256.968 102.227C257.183 101.987 257.384 101.694 257.573 101.348C257.761 101.002 257.99 100.549 258.26 99.9893C258.961 98.4436 259.313 97.3369 259.316 96.6693ZM276.473 92.4204C276.792 92.6355 276.951 93.0101 276.948 93.5441C276.943 94.5856 276.514 95.1044 275.659 95.1006C275.259 95.0988 274.859 95.0035 274.459 94.8148C274.059 94.626 273.672 94.5308 273.299 94.5291C272.871 94.5272 272.457 94.6055 272.056 94.7639C271.681 94.9224 271.252 95.2409 270.77 95.7195L269.281 97.1548L269.277 97.996C269.275 98.3965 269.26 98.8505 269.231 99.3577C269.229 99.8384 269.213 100.359 269.184 100.92C269.206 101.908 269.32 103.244 269.526 104.927C269.442 105.888 268.959 106.366 268.078 106.362C267.597 106.36 267.251 106.239 267.038 105.997C266.852 105.729 266.72 105.382 266.642 104.954C266.564 104.526 266.526 104.046 266.529 103.511C266.531 102.977 266.507 102.43 266.456 101.869C266.483 101.735 266.497 101.575 266.498 101.388C266.499 101.201 266.5 101.001 266.501 100.787L266.504 100.147L266.276 97.2214C266.25 97.0878 266.238 96.9675 266.238 96.8607C266.238 96.7539 266.239 96.6471 266.239 96.5403C266.24 96.3266 266.268 96.0864 266.323 95.8196C266.06 94.8571 265.93 94.1488 265.932 93.6948C265.933 93.321 266.042 93.0544 266.256 92.8952C266.47 92.7092 266.858 92.6175 267.419 92.62C267.793 92.6217 268.086 92.7565 268.298 93.0245C268.511 93.2658 268.776 93.5741 269.095 93.9494L270.863 92.6756C271.319 92.3304 271.734 92.1053 272.108 92.0002C272.509 91.8952 272.897 91.8435 273.271 91.8452C273.831 91.8477 274.419 91.9171 275.032 92.0534L276.473 92.4204ZM287.206 91.3071C287.419 91.4683 287.525 91.7758 287.522 92.2298C287.519 93.0309 287.183 93.43 286.516 93.427L286.355 93.4263C286.355 93.4263 286.155 93.4521 285.754 93.5037C285.38 93.5287 284.953 93.5668 284.472 93.6181C283.991 93.6693 283.523 93.734 283.069 93.812C282.642 93.8635 282.388 93.9158 282.307 93.9688L282.305 94.3694C282.304 94.6631 282.276 95.0636 282.22 95.5707C282.164 96.0511 282.136 96.4916 282.134 96.8922C282.133 97.0257 282.133 97.1592 282.132 97.2928C282.158 97.4264 282.184 97.56 282.21 97.6937C282.102 98.0137 282.046 98.5475 282.043 99.2952C282.065 100.31 282.088 101.071 282.113 101.579C282.137 102.06 282.216 102.42 282.348 102.661C282.481 102.902 282.707 103.09 283.027 103.225C283.347 103.36 283.813 103.563 284.426 103.832C285.066 104.049 285.385 104.424 285.382 104.958C285.381 105.305 285.246 105.599 284.978 105.838C284.736 106.077 284.415 106.196 284.015 106.194C283.828 106.193 283.548 106.152 283.174 106.07C282.801 105.988 282.414 105.88 282.014 105.744C281.641 105.582 281.294 105.407 280.975 105.219C280.655 105.004 280.443 104.776 280.337 104.535C280.02 103.839 279.769 103.17 279.585 102.529C279.401 101.86 279.311 101.166 279.314 100.445C279.317 99.6969 279.333 99.1361 279.362 98.7624C279.39 98.3887 279.418 98.095 279.446 97.8815C279.473 97.668 279.501 97.4812 279.528 97.3211C279.556 97.1343 279.57 96.8807 279.572 96.5602C279.573 96.3466 279.56 96.1329 279.535 95.9191C279.536 95.6788 279.537 95.4518 279.538 95.2382C279.539 94.9444 279.54 94.7041 279.541 94.5172C279.569 94.3037 279.596 94.1302 279.623 93.9968C278.902 94.047 277.833 94.2558 276.416 94.6233C275.989 94.6214 275.615 94.5129 275.296 94.2978C274.976 94.0827 274.818 93.7749 274.819 93.3743C274.82 93.2675 274.861 93.1208 274.941 92.9343C275.022 92.7477 275.157 92.5747 275.344 92.4153C275.559 92.2294 275.84 92.0838 276.188 91.9785C276.562 91.8467 277.016 91.7819 277.55 91.7843L277.791 91.7854C278.378 91.7881 279.06 91.671 279.835 91.4341C279.835 91.4074 279.836 91.3006 279.837 91.1137C279.864 90.9002 279.879 90.6732 279.88 90.4329C279.908 90.166 279.922 89.9124 279.923 89.672C279.951 89.4318 279.965 89.2583 279.966 89.1515L279.967 88.9512C279.995 88.6576 280.05 88.2439 280.132 87.7102C280.215 87.1497 280.338 86.6029 280.5 86.0695C280.663 85.5094 280.865 85.0297 281.108 84.6302C281.376 84.2308 281.698 84.032 282.072 84.0337C282.793 84.0369 283.232 84.3593 283.389 85.001C283.389 85.0544 283.348 85.2411 283.266 85.5612C283.212 85.8814 283.143 86.2416 283.061 86.6418C282.979 87.042 282.898 87.4289 282.816 87.8024C282.734 88.1759 282.693 88.416 282.692 88.5228C282.692 88.5762 282.678 88.7231 282.65 88.9633C282.622 89.2035 282.595 89.4704 282.567 89.764C282.565 90.0578 282.551 90.3515 282.523 90.6451C282.494 90.9387 282.48 91.1523 282.48 91.2858C282.426 91.2856 282.787 91.2471 283.562 91.1705C283.695 91.1711 283.815 91.1716 283.922 91.1721C284.056 91.146 284.176 91.1332 284.283 91.1337C284.363 91.134 284.43 91.1477 284.483 91.1746C284.536 91.1749 284.59 91.1751 284.643 91.1754C284.884 91.1497 285.111 91.1374 285.324 91.1384C285.538 91.1126 285.738 91.1002 285.925 91.101C286.513 91.1037 286.94 91.1724 287.206 91.3071ZM298.042 101.771C297.958 102.545 297.674 103.278 297.191 103.97L295.739 106.006C295.498 106.219 295.123 106.391 294.616 106.522C294.107 106.68 293.586 106.798 293.052 106.875C292.544 106.98 292.076 107.058 291.649 107.109C291.248 107.161 291.034 107.187 291.007 107.187C290.74 107.186 290.393 107.131 289.967 107.022C289.566 106.94 289.166 106.845 288.766 106.736C288.366 106.627 288.019 106.519 287.726 106.411C287.433 106.329 287.273 106.289 287.246 106.289L287.206 106.288C286.912 106.26 286.592 106.192 286.246 106.084C285.926 105.975 285.606 105.841 285.286 105.679C284.993 105.517 284.753 105.343 284.567 105.155C284.355 104.94 284.249 104.713 284.25 104.472C284.251 104.179 284.4 103.886 284.695 103.593C284.99 103.274 285.284 103.115 285.578 103.117C288.27 104.197 290.418 104.741 292.02 104.748C292.607 104.75 293.102 104.632 293.503 104.394C293.932 104.156 294.253 103.903 294.468 103.637L295.316 102.119C295.318 101.772 295.213 101.424 295.001 101.076C294.815 100.728 294.55 100.42 294.204 100.151C293.884 99.8559 293.512 99.6005 293.085 99.385C292.659 99.1694 292.219 99.0206 291.766 98.9384C291.259 98.856 290.738 98.7068 290.205 98.4908C289.699 98.2748 289.219 98.019 288.767 97.7232C288.341 97.4275 287.982 97.1055 287.69 96.757C287.424 96.3819 287.279 95.9807 287.254 95.5533C287.228 95.5532 287.203 95.0457 287.181 94.0308C287.236 93.6305 287.291 93.3103 287.346 93.0702C287.4 92.8301 287.521 92.617 287.709 92.4309C287.897 92.2181 288.178 91.9924 288.553 91.7538C288.955 91.5152 289.517 91.1706 290.24 90.7199C290.454 90.6941 290.841 90.6692 291.402 90.645C291.99 90.5942 292.778 90.5177 293.767 90.4153C294.194 90.4172 295.287 90.7426 297.047 91.3914C297.313 91.633 297.445 91.9941 297.443 92.4747C297.439 93.3026 297.157 93.7152 296.596 93.7127C296.569 93.7126 296.542 93.7125 296.516 93.7123C296.489 93.6855 296.449 93.672 296.396 93.6717L294.956 93.1846C294.236 92.9677 293.622 92.8581 293.115 92.8558C292.367 92.8525 291.766 92.8898 291.312 92.9679C290.884 93.0461 290.563 93.1514 290.349 93.284C290.135 93.3899 289.987 93.5094 289.907 93.6425C289.826 93.7757 289.772 93.8956 289.745 94.0023C289.745 94.0824 289.731 94.1625 289.704 94.2425C289.703 94.2959 289.703 94.3626 289.703 94.4427C289.698 95.4842 290.123 96.127 290.976 96.3712C295.191 97.2447 297.547 99.0445 298.042 101.771ZM61.3762 153.79C61.2681 154.083 61.0532 154.363 60.7315 154.629C60.4366 154.894 60.1422 155.026 59.8485 155.025C59.5013 155.024 59.2349 154.889 59.0492 154.621C58.8636 154.326 58.7317 153.965 58.6535 153.538C58.5754 153.083 58.5243 152.576 58.5001 152.015C58.4759 151.454 58.4651 150.893 58.4676 150.332C58.362 150.065 58.3102 149.717 58.3121 149.29C58.3129 149.103 58.3138 148.903 58.3148 148.689C58.3426 148.449 58.3568 148.249 58.3576 148.089C58.3618 147.154 58.285 146.406 58.1273 145.844C57.9697 145.256 57.7581 144.801 57.4926 144.48C57.2537 144.158 56.9876 143.943 56.6943 143.835C56.4011 143.727 56.1209 143.672 55.8539 143.671C55.3732 143.669 54.8787 143.76 54.3705 143.945C53.889 144.13 53.4341 144.341 53.0057 144.58C52.6041 144.818 52.2558 145.07 51.9608 145.336C51.6927 145.575 51.5183 145.761 51.4376 145.894C51.3562 146.188 51.2875 146.615 51.2315 147.175C51.2024 147.709 51.1729 148.337 51.143 149.058C51.113 149.778 51.0828 150.566 51.0522 151.42C51.0218 152.248 50.9912 153.103 50.9606 153.984C50.8782 154.491 50.4631 154.743 49.7154 154.739C49.1012 154.736 48.7016 154.521 48.5166 154.093C48.3317 153.638 48.2417 152.877 48.2465 151.808C48.2477 151.541 48.2485 151.354 48.249 151.248C48.2762 151.141 48.3037 150.954 48.3316 150.687C48.3862 150.42 48.4415 150.007 48.4975 149.446C48.5535 148.859 48.6244 147.938 48.7102 146.683C48.7395 146.096 48.7686 145.575 48.7973 145.121C48.8261 144.668 48.8279 144.267 48.8027 143.92C48.804 143.626 48.8051 143.386 48.806 143.199C48.8068 143.012 48.7942 142.851 48.7681 142.718C48.7949 142.691 48.8226 142.464 48.8513 142.037C48.88 141.583 48.9223 141.09 48.9781 140.556C49.0339 140.022 49.0896 139.515 49.1452 139.034C49.2009 138.527 49.2692 138.18 49.3501 137.994C49.3507 137.86 49.3379 137.74 49.3117 137.633C49.3122 137.526 49.3127 137.406 49.3133 137.273C49.3153 136.845 49.3309 136.325 49.3604 135.711C49.4167 135.07 49.5129 134.469 49.6489 133.909C49.785 133.349 49.9874 132.869 50.2563 132.47C50.5251 132.071 50.8999 131.872 51.3805 131.874C52.1549 131.878 52.5536 132.293 52.5766 133.121C52.5197 133.895 52.4222 134.79 52.2842 135.804C52.1461 136.818 51.9665 138.152 51.7454 139.807C51.6101 140.207 51.54 140.941 51.5352 142.009L51.5319 142.73C51.5855 142.704 51.706 142.624 51.8935 142.492C52.0811 142.359 52.2954 142.213 52.5364 142.054C52.8043 141.868 53.0854 141.709 53.3798 141.577C53.6742 141.418 53.9551 141.312 54.2224 141.26C54.8371 141.156 55.4782 141.106 56.1458 141.109C57.4276 141.114 58.4407 141.493 59.185 142.244C59.9562 142.968 60.5115 144.186 60.8509 145.897C60.8748 146.538 60.8991 147.059 60.924 147.459C60.9756 147.86 61.0136 148.314 61.0381 148.822C61.0893 149.303 61.14 149.917 61.19 150.665C61.2667 151.413 61.3288 152.455 61.3762 153.79ZM77.6927 153.543C76.8343 154.394 75.8296 155.124 74.6786 155.733C73.5275 156.342 72.3512 156.644 71.1495 156.638C70.6421 156.636 69.4813 156.444 67.6671 156.062C67.1879 155.739 66.6823 155.336 66.1504 154.853C65.6185 154.37 65.1269 153.82 64.6757 153.204C64.2513 152.561 63.8938 151.892 63.6032 151.197C63.3394 150.474 63.2093 149.726 63.2128 148.952L63.2126 148.992C63.2404 148.751 63.2683 148.471 63.2965 148.151C63.3245 147.857 63.3527 147.524 63.3811 147.15C63.4096 146.749 63.4518 146.282 63.5076 145.748C64.0455 144.896 64.5967 144.058 65.1612 143.232C65.7524 142.407 66.6103 141.677 67.7347 141.041C69.4456 140.648 70.7283 140.453 71.5828 140.457C71.9834 140.459 72.3304 140.487 72.6239 140.542C72.9443 140.57 73.2376 140.665 73.5039 140.826C73.797 140.961 74.0766 141.149 74.3425 141.391C74.6352 141.633 74.9809 141.955 75.3797 142.357C75.672 142.679 75.8979 142.92 76.0574 143.081C76.217 143.215 76.3367 143.323 76.4164 143.403C76.4962 143.484 76.536 143.55 76.5357 143.604C76.5355 143.657 76.5351 143.737 76.5346 143.844C76.5303 144.806 76.42 145.58 76.2037 146.166C76.0142 146.753 75.6381 147.232 75.0757 147.603C74.5399 147.974 73.7907 148.305 72.828 148.594C71.8655 148.857 70.6223 149.159 69.0987 149.499L68.8583 149.498C68.3776 149.496 67.5226 149.599 66.2933 149.807C67.2419 152.642 68.771 154.064 70.8806 154.073C72.3761 154.08 74.0752 153.327 75.978 151.813C76.1657 151.654 76.4064 151.575 76.7001 151.576C77.5279 151.58 77.94 151.982 77.9364 152.783C77.9352 153.05 77.854 153.304 77.6927 153.543ZM73.8877 144.553C73.1721 143.348 72.3603 142.744 71.4524 142.74C71.0518 142.738 70.6243 142.79 70.1699 142.894C69.7154 142.999 69.2741 143.144 68.846 143.329C68.4446 143.514 68.0564 143.739 67.6813 144.005C67.333 144.27 67.0379 144.576 66.796 144.922C66.6882 145.135 66.58 145.442 66.4714 145.842C66.3894 146.242 66.2805 146.722 66.1444 147.282C66.866 147.152 67.6542 147.062 68.509 147.013C69.3905 146.963 70.2188 146.86 70.9939 146.703C71.7958 146.547 72.4644 146.309 73 145.991C73.5355 145.673 73.8314 145.194 73.8877 144.553ZM90.3059 141.583C90.6254 141.798 90.7839 142.173 90.7815 142.707C90.7769 143.748 90.3472 144.267 89.4927 144.263C89.0922 144.261 88.692 144.166 88.2923 143.977C87.8926 143.789 87.5058 143.693 87.1319 143.692C86.7047 143.69 86.2904 143.768 85.8891 143.926C85.5145 144.085 85.0858 144.403 84.603 144.882L83.1144 146.317L83.1106 147.158C83.1088 147.559 83.0934 148.013 83.0645 148.52C83.0623 149.001 83.0466 149.522 83.0174 150.082C83.0396 151.07 83.1538 152.406 83.3598 154.089C83.2754 155.05 82.7926 155.529 81.9113 155.525C81.4307 155.523 81.084 155.401 80.8715 155.16C80.6858 154.892 80.5538 154.544 80.4756 154.117C80.3974 153.689 80.3595 153.208 80.3619 152.674C80.3643 152.14 80.3401 151.592 80.2892 151.031C80.3165 150.898 80.3306 150.738 80.3314 150.551C80.3323 150.364 80.3332 150.164 80.3341 149.95L80.337 149.309L80.1099 146.384C80.0838 146.25 80.0709 146.13 80.0714 146.023C80.0719 145.916 80.0724 145.81 80.0729 145.703C80.0738 145.489 80.1016 145.249 80.1562 144.982C79.8935 144.02 79.7632 143.311 79.7652 142.857C79.7669 142.483 79.8749 142.217 80.0893 142.058C80.3037 141.872 80.6914 141.78 81.2522 141.783C81.626 141.784 81.9192 141.919 82.1316 142.187C82.3441 142.428 82.6098 142.737 82.9286 143.112L84.6968 141.838C85.1523 141.493 85.5673 141.268 85.9416 141.163C86.3427 141.058 86.7301 141.006 87.104 141.008C87.6647 141.01 88.2519 141.08 88.8655 141.216L90.3059 141.583ZM104.906 153.666C104.047 154.516 103.043 155.246 101.892 155.855C100.741 156.464 99.5643 156.766 98.3626 156.761C97.8552 156.758 96.6944 156.566 94.8802 156.184C94.401 155.862 93.8954 155.459 93.3635 154.976C92.8316 154.493 92.34 153.943 91.8888 153.327C91.4644 152.684 91.1069 152.015 90.8163 151.319C90.5525 150.597 90.4224 149.849 90.4259 149.074L90.4257 149.114C90.4535 148.874 90.4814 148.594 90.5096 148.273C90.5376 147.98 90.5658 147.646 90.5942 147.272C90.6227 146.872 90.6649 146.405 90.7207 145.871C91.2586 145.019 91.8098 144.18 92.3743 143.355C92.9655 142.53 93.8234 141.799 94.9478 141.163C96.6587 140.77 97.9414 140.576 98.7959 140.58C99.1965 140.581 99.5435 140.61 99.837 140.664C100.157 140.693 100.451 140.787 100.717 140.949C101.01 141.084 101.29 141.272 101.556 141.513C101.848 141.755 102.194 142.077 102.593 142.479C102.885 142.801 103.111 143.043 103.27 143.203C103.43 143.338 103.55 143.445 103.63 143.526C103.709 143.606 103.749 143.673 103.749 143.726C103.749 143.78 103.748 143.86 103.748 143.967C103.743 144.928 103.633 145.702 103.417 146.289C103.227 146.875 102.851 147.354 102.289 147.726C101.753 148.097 101.004 148.427 100.041 148.717C99.0786 148.98 97.8354 149.281 96.3118 149.621L96.0714 149.62C95.5907 149.618 94.7357 149.721 93.5064 149.929C94.455 152.764 95.9841 154.186 98.0937 154.196C99.5891 154.203 101.288 153.449 103.191 151.936C103.379 151.776 103.619 151.697 103.913 151.698C104.741 151.702 105.153 152.105 105.15 152.906C105.148 153.173 105.067 153.426 104.906 153.666ZM101.101 144.676C100.385 143.471 99.5734 142.866 98.6655 142.862C98.2649 142.861 97.8374 142.912 97.383 143.017C96.9285 143.122 96.4872 143.266 96.0591 143.451C95.6577 143.637 95.2695 143.862 94.8944 144.127C94.5461 144.393 94.251 144.698 94.0091 145.044C93.9013 145.258 93.7931 145.564 93.6845 145.964C93.6025 146.365 93.4936 146.845 93.3575 147.405C94.0791 147.275 94.8673 147.185 95.7221 147.135C96.6036 147.086 97.4319 146.983 98.207 146.826C99.0088 146.669 99.6775 146.432 100.213 146.114C100.749 145.796 101.044 145.316 101.101 144.676ZM112.656 154.101C112.654 154.528 112.453 154.861 112.051 155.1C111.676 155.339 111.328 155.457 111.008 155.456C110.447 155.453 110.007 155.384 109.687 155.249C109.367 155.114 109.114 154.953 108.928 154.765C108.769 154.551 108.663 154.337 108.611 154.123C108.558 153.882 108.533 153.655 108.533 153.442C108.536 152.961 108.711 152.468 109.061 151.962C109.41 151.456 109.865 151.205 110.426 151.207C110.613 151.208 110.827 151.236 111.067 151.29C111.334 151.318 111.587 151.426 111.826 151.614C112.066 151.802 112.265 152.097 112.423 152.498C112.582 152.872 112.66 153.407 112.656 154.101ZM122.781 154.147C122.78 154.574 122.578 154.907 122.176 155.145C121.801 155.384 121.454 155.503 121.133 155.501C120.572 155.499 120.132 155.43 119.812 155.295C119.492 155.16 119.239 154.999 119.053 154.811C118.894 154.597 118.788 154.382 118.736 154.169C118.683 153.928 118.658 153.701 118.659 153.487C118.661 153.007 118.837 152.513 119.186 152.008C119.535 151.502 119.991 151.25 120.551 151.253C120.738 151.253 120.952 151.281 121.192 151.336C121.459 151.364 121.712 151.471 121.951 151.659C122.191 151.847 122.39 152.142 122.548 152.543C122.707 152.918 122.785 153.452 122.781 154.147ZM132.907 154.192C132.905 154.62 132.703 154.952 132.301 155.191C131.926 155.43 131.579 155.548 131.258 155.547C130.697 155.544 130.257 155.476 129.937 155.341C129.617 155.206 129.364 155.044 129.178 154.857C129.019 154.642 128.913 154.428 128.861 154.214C128.808 153.974 128.783 153.746 128.784 153.533C128.786 153.052 128.962 152.559 129.311 152.053C129.661 151.547 130.116 151.296 130.676 151.298C130.863 151.299 131.077 151.327 131.317 151.381C131.584 151.409 131.837 151.517 132.077 151.705C132.316 151.893 132.515 152.188 132.673 152.589C132.832 152.964 132.91 153.498 132.907 154.192Z" fill="#68590A"/>
</svg>
