<svg width="379" height="352" viewBox="0 0 379 352" fill="none" xmlns="http://www.w3.org/2000/svg">
<path d="M279.508 121.111C256.115 106.152 232.374 93.9145 190.612 113.735C148.851 133.556 134.698 182.582 151.025 228.234C162.049 259.059 187.616 271.48 213.484 273.671C239.353 275.861 248.258 276.16 283.777 257.333C309.305 243.802 322.532 213.107 319.787 183.282C317.552 158.996 302.902 136.069 279.508 121.111Z" fill="#FFD600" stroke="#FFF500" stroke-width="9.94532"/>
<path d="M260.348 144.841C260.601 145.55 261.058 146.56 261.578 147.722C266.01 155.873 266.987 131.011 273.467 126.929C278.646 123.666 267.327 127.711 260.386 125.323C258.058 124.523 251.008 134.961 248.495 135.86C241.189 138.473 233.762 140.316 226.293 141.878C228.492 145.254 229.968 149.936 230.482 152.447C233.535 151.914 235.967 151.357 237.508 150.806C245.615 147.907 241.185 156.234 240.221 159.303C238.486 164.825 238.21 170.473 237.323 175.845C236.684 179.712 232.924 183.326 233.203 187.601C233.225 187.929 233.272 188.263 233.341 188.602C233.923 190.267 234.538 191.969 235.01 193.254C235.214 193.742 235.406 194.217 235.569 194.671C236.106 196.175 235.72 195.187 235.01 193.254C234.384 191.755 233.651 190.134 233.341 188.602C232.691 186.744 232.083 184.931 231.759 183.792C228.84 173.519 232.492 163.409 230.552 152.804C230.531 152.691 230.508 152.572 230.482 152.447C225.73 153.277 219.474 154.049 212.727 154.653C212.657 155.375 212.571 156.077 212.457 156.746C210.348 169.109 211.043 183.233 219.616 193.195C223.562 197.779 229 210.49 220.854 198.71C214.56 189.607 208.511 180.042 201.882 171.219C200.504 169.385 198.517 167.583 196.484 166.621C192.83 164.892 189.149 166.02 185.107 166.527C181.681 166.957 173.913 165.925 171.5 163.396C168.715 160.475 170.708 157.438 173.698 155.282C175.109 154.264 176.743 153.442 178.2 152.921C189.911 148.732 201.936 146.523 213.96 144.277C214.796 141.398 216.402 139.053 219.732 138.067C222.302 137.306 224.53 139.173 226.293 141.878C233.762 140.316 241.189 138.473 248.495 135.86C251.008 134.961 258.058 124.523 260.386 125.323C267.327 127.711 278.646 123.666 273.467 126.929C266.987 131.011 266.01 155.873 261.578 147.722C261.195 147.019 260.787 146.071 260.348 144.841Z" fill="#FFD600"/>
<path d="M164.394 188.706C173.821 185.335 198.097 172.045 203.543 187.273C208.78 201.917 227.192 209.282 240.028 215.356C241.05 215.839 249.93 219.649 250.978 219.274C252.37 218.776 255.176 205.513 254.713 203.249C251.094 185.537 251.937 172.249 263.832 158.693C266.082 156.13 261.413 147.821 260.348 144.841C265.882 160.317 266.428 131.363 273.467 126.929C278.646 123.666 267.327 127.711 260.386 125.323C258.058 124.523 251.008 134.961 248.495 135.86C225.451 144.101 201.217 144.689 178.2 152.921C173.655 154.546 167.4 159.096 171.5 163.396C173.913 165.925 181.681 166.957 185.107 166.527C189.149 166.02 192.83 164.892 196.484 166.621C198.517 167.583 200.504 169.385 201.882 171.219C208.511 180.042 214.56 189.607 220.854 198.71C229 210.49 223.562 197.779 219.616 193.195C211.043 183.233 210.348 169.109 212.457 156.746C213.586 150.122 211.94 140.375 219.732 138.067C225.668 136.309 229.777 148.57 230.552 152.804C232.492 163.409 228.84 173.519 231.759 183.792C232.81 187.488 236.862 198.289 235.569 194.671C234.795 192.509 233.353 189.894 233.203 187.601C232.924 183.326 236.684 179.712 237.323 175.845C238.21 170.473 238.486 164.825 240.221 159.303C241.185 156.234 245.615 147.907 237.508 150.806C226.163 154.864 166.563 159.223 166.104 152.187C165.972 150.162 175.448 148.05 176.771 147.556C185.266 144.384 194.524 139.692 201.959 134.467C206.641 131.176 210.434 124.068 215.445 121.973C220.475 119.869 225.845 117.932 231.073 116.383C236.596 114.748 242.314 117.741 246.426 118.238" stroke="#FFF500" stroke-width="19.8906" stroke-linecap="round"/>
<path d="M295.456 221.076C293.346 223.406 292.153 224.849 292.943 224.51C294.155 223.989 294.962 222.734 295.456 221.076Z" fill="#FFD600"/>
<path d="M311.552 200.25C315.007 201.885 289.976 225.785 292.943 224.51C297.173 222.692 296.462 211.948 294.775 206.251C292.85 199.752 298.969 184.816 307.047 178.097" stroke="#FFF500" stroke-width="19.8906" stroke-linecap="round"/>
<path d="M173.232 183.62C170.274 175.349 171.835 171.443 172.409 169.587C174.705 162.164 179.095 160.594 182.021 159.548C184.948 158.501 190.105 159.957 192.406 162.435C196.241 166.565 196.415 165.953 199.388 174.265" stroke="#68590A" stroke-width="6.21583" stroke-linecap="round"/>
<path d="M173.232 183.62C170.274 175.349 171.835 171.443 172.409 169.587C174.705 162.164 179.095 160.594 182.021 159.548C184.948 158.501 190.105 159.957 192.406 162.435C196.241 166.565 196.415 165.953 199.388 174.265" stroke="#68590A" stroke-width="6.21583" stroke-linecap="round"/>
<path d="M245.303 159.458C247.36 165.208 241.4 147.205 242.932 141.294C243.568 138.843 249.341 133.107 253.091 135.231C255.89 136.816 260.653 136.377 264.284 140.563C266.415 143.946 268.812 148.46 270.145 152.188" stroke="#68590A" stroke-width="6.21583" stroke-linecap="round"/>
<path d="M206.636 191.455C209.187 198.587 212.441 205.882 218.423 213.645C222.529 218.974 232.677 221.2 241.805 219.035C252.535 215.198 254.308 205.629 254.305 198.612C253.677 193.335 252.188 183.464 249.556 176.105" stroke="#68590A" stroke-width="6.21583" stroke-linecap="round"/>
<path d="M326.92 116.01C316.296 110.819 300.723 132.799 288.584 127.597C300.649 133.973 313.382 132.878 326.947 169.485C322.835 156.987 333.919 152.066 335.607 147.531C340.096 135.472 324.382 136.142 309.434 134.337C294.485 132.531 352.918 128.714 326.92 116.01Z" fill="#FFF500"/>
<path d="M257.319 80.9097C250.009 64.1602 235.787 82.7427 229.59 94.1276C234.654 93.4178 265.166 117.491 288.584 127.597C284.427 125.842 264.63 97.6593 257.319 80.9097Z" fill="#FFF500"/>
<path d="M208.991 81.1373C194.946 75.7081 190.155 111.532 181.023 105.996C159.73 98.7549 156.287 112.202 156.013 123.742C155.671 138.167 153.663 185.049 135.51 186.59C117.357 188.131 103.853 184.35 107.932 191.143C112.012 197.935 145.283 190.888 126.368 202.604C107.454 214.319 110.628 209.559 117.46 214.817C124.291 220.075 143.785 209.529 131.912 228.629C120.039 247.728 137.078 247.689 153.458 255.033C155.793 256.08 157.491 257.098 158.701 258.109C130.94 231.513 135.014 179.845 140.522 157.335C161.631 109.3 207.813 94.7652 229.59 94.1276C227.731 94.0588 223.297 86.6677 208.991 81.1373Z" fill="#FFF500"/>
<path d="M293.115 265.599C294.689 262.774 296.144 259.612 300.903 257.899C302.433 256.218 303.997 254.399 305.568 252.454C305.61 252.401 305.653 252.348 305.696 252.295C230.449 307.262 185.765 276.118 158.701 258.109C165.983 264.193 155.608 270.056 159.915 280.78C164.938 293.287 176.327 282.062 185.594 278.748C194.861 275.434 189.463 283.412 198.038 293.548C206.614 303.684 214.619 279.92 223.647 288.243C232.675 296.567 238.069 280.885 249.326 286.211C260.583 291.537 255.741 294.919 270.786 278.536C277.913 270.776 281.277 286.847 293.115 265.599Z" fill="#FFF500"/>
<path d="M344.268 191.744C359.765 173.549 332.801 184.292 327.429 170.81C336.533 202.921 320.841 233.475 305.696 252.295C305.653 252.348 305.61 252.401 305.568 252.454C303.997 254.399 302.433 256.218 300.903 257.899C304.247 256.696 309.221 256.207 317.014 257.052C335.9 259.1 317.808 240.814 327.039 235.862C341.624 228.038 323.405 214.536 334.516 202.931C336.919 200.422 328.77 209.939 344.268 191.744Z" fill="#FFF500"/>
<path d="M229.59 94.1276C227.731 94.0588 223.297 86.6677 208.991 81.1373C194.946 75.7081 190.155 111.532 181.023 105.996C159.73 98.7549 156.287 112.202 156.013 123.742C155.671 138.167 153.663 185.049 135.51 186.59C117.357 188.131 103.853 184.35 107.932 191.143C112.012 197.935 145.283 190.888 126.368 202.604C107.454 214.319 110.628 209.559 117.46 214.817C124.291 220.075 143.785 209.529 131.912 228.629C120.039 247.728 137.078 247.689 153.458 255.033C155.793 256.08 157.491 257.098 158.701 258.109M229.59 94.1276C235.787 82.7427 250.009 64.1602 257.319 80.9097C264.63 97.6593 284.427 125.842 288.584 127.597M229.59 94.1276C234.654 93.4178 265.166 117.491 288.584 127.597M229.59 94.1276C207.813 94.7652 161.631 109.3 140.522 157.335C135.014 179.845 130.94 231.513 158.701 258.109M288.584 127.597C300.723 132.799 316.296 110.819 326.92 116.01C352.918 128.714 294.485 132.531 309.434 134.337C324.382 136.142 340.096 135.472 335.607 147.531C333.919 152.066 322.836 156.987 326.947 169.485M288.584 127.597C300.649 133.973 313.382 132.878 326.947 169.485M326.947 169.485C327.089 169.918 327.249 170.359 327.429 170.81M326.947 169.485C327.11 169.924 327.27 170.366 327.429 170.81M327.429 170.81C332.801 184.292 359.765 173.549 344.268 191.744C328.77 209.939 336.919 200.422 334.516 202.931C323.405 214.536 341.624 228.038 327.039 235.862C317.808 240.814 335.9 259.1 317.014 257.052C309.221 256.207 304.247 256.696 300.903 257.899M327.429 170.81C336.533 202.921 320.841 233.475 305.696 252.295M327.429 170.81C336.559 203.011 320.753 233.647 305.568 252.454M300.903 257.899C296.144 259.612 294.689 262.774 293.115 265.599M300.903 257.899C298.137 260.94 295.485 263.529 293.115 265.599M300.903 257.899C302.433 256.218 303.997 254.399 305.568 252.454M293.115 265.599C281.277 286.847 277.913 270.776 270.786 278.536C255.741 294.919 260.583 291.537 249.326 286.211C238.069 280.885 232.675 296.567 223.647 288.243C214.619 279.92 206.614 303.684 198.038 293.548C189.463 283.412 194.861 275.434 185.594 278.748C176.327 282.062 164.938 293.287 159.915 280.78C155.608 270.056 165.983 264.193 158.701 258.109M158.701 258.109C185.765 276.118 230.449 307.262 305.696 252.295M305.696 252.295C305.653 252.348 305.61 252.401 305.568 252.454" stroke="#FFD600" stroke-width="9.32374"/>
<path d="M190.874 41.4701C241.017 27.2544 270.294 64.5752 278.606 75.9397L286.722 92.6973L292.952 110.117L245.763 107.346L205.776 115.806L162.431 137.148L132.344 171.804C127.121 157.198 121.306 151.326 119.841 120.507C118.65 95.4441 140.231 61.7062 164.98 50.7308C191.188 41.3579 173.942 46.2705 190.874 41.4701Z" fill="#FFD600" stroke="#FFD600" stroke-width="3" stroke-linecap="round"/>
<path fill-rule="evenodd" clip-rule="evenodd" d="M205.152 114.057L244.915 105.482L292.107 107.751L286.036 90.7758L278.072 74.4652C269.86 63.43 240.914 27.2092 190.608 41.5781C183.205 43.6926 182.314 43.9428 181.488 44.3307C181.205 44.4635 180.93 44.6124 180.404 44.8578L205.152 114.057Z" fill="#FFF500"/>
<path d="M244.915 105.482L244.987 103.984L244.791 103.975L244.599 104.016L244.915 105.482ZM205.152 114.057L203.739 114.562L204.182 115.801L205.468 115.524L205.152 114.057ZM292.107 107.751L292.035 109.25L294.274 109.357L293.519 107.246L292.107 107.751ZM286.036 90.7758L287.448 90.2707L287.42 90.1924L287.384 90.1176L286.036 90.7758ZM278.072 74.4652L279.419 73.807L279.358 73.6817L279.275 73.5698L278.072 74.4652ZM190.608 41.5781L191.02 43.0204L190.608 41.5781ZM181.488 44.3307L182.125 45.6885L181.488 44.3307ZM180.404 44.8578L179.77 43.4983L178.531 44.0759L178.991 45.3629L180.404 44.8578ZM244.599 104.016L204.836 112.591L205.468 115.524L245.231 106.949L244.599 104.016ZM292.179 106.253L244.987 103.984L244.843 106.981L292.035 109.25L292.179 106.253ZM284.623 91.2809L290.695 108.256L293.519 107.246L287.448 90.2707L284.623 91.2809ZM276.724 75.1234L284.688 91.434L287.384 90.1176L279.419 73.807L276.724 75.1234ZM191.02 43.0204C240.314 28.9405 268.682 64.359 276.868 75.3607L279.275 73.5698C271.038 62.501 241.514 25.4779 190.196 40.1358L191.02 43.0204ZM182.125 45.6885C182.808 45.3681 183.511 45.1653 191.02 43.0204L190.196 40.1358C182.899 42.22 181.82 42.5175 180.85 42.973L182.125 45.6885ZM181.037 46.2172C181.316 46.0873 181.529 45.9826 181.705 45.8952C181.886 45.8048 182.004 45.7456 182.125 45.6885L180.85 42.973C180.689 43.0487 180.527 43.1303 180.369 43.2089C180.205 43.2904 180.017 43.3829 179.77 43.4983L181.037 46.2172ZM178.991 45.3629L203.739 114.562L206.564 113.552L181.816 44.3526L178.991 45.3629Z" fill="#FFF500"/>
<path d="M135.101 175.053C150.727 144.507 209.703 88.475 296.114 117.47" stroke="#FFF96C" stroke-width="15" stroke-linecap="round"/>
<path d="M146.399 123.51C147.025 123.729 147.558 124.09 147.998 124.592C148.422 125.069 148.854 125.559 149.294 126.062C149.42 126.334 149.487 126.702 149.496 127.165C149.531 127.613 149.534 128.053 149.507 128.485C149.48 128.918 149.446 129.294 149.404 129.613C149.369 129.912 149.357 130.04 149.368 129.999C149.312 130.205 149.199 130.463 149.028 130.773C148.884 131.066 148.728 131.358 148.563 131.647C148.424 131.92 148.285 132.15 148.147 132.336C148.035 132.506 147.982 132.581 147.988 132.56C147.917 132.741 147.792 132.962 147.611 133.226C147.41 133.484 147.201 133.729 146.984 133.961C146.752 134.168 146.529 134.344 146.313 134.489C146.072 134.65 145.868 134.71 145.702 134.669C145.536 134.629 145.382 134.547 145.238 134.424C145.073 134.296 144.938 134.142 144.831 133.962C144.704 133.777 144.618 133.603 144.574 133.438C144.515 133.248 144.507 133.07 144.551 132.906L145.929 130.97C146.158 130.609 146.353 130.25 146.514 129.894C146.661 129.513 146.783 129.137 146.882 128.766C146.976 128.415 146.996 128.091 146.944 127.793C146.876 127.469 146.768 127.212 146.62 127.022L145.811 126.33C145.427 126.28 145.096 126.364 144.817 126.581C144.544 126.778 144.282 127.054 144.032 127.41C143.788 127.746 143.546 128.115 143.306 128.517C143.066 128.92 142.793 129.281 142.487 129.601L141.292 130.726C140.617 131.022 139.696 131.038 138.53 130.775C137.838 130.474 137.34 130.023 137.037 129.422C137.022 129.396 136.965 129.239 136.865 128.952C136.745 128.659 136.587 128.214 136.394 127.618C136.416 127.535 136.464 127.273 136.538 126.83C136.618 126.366 136.721 125.733 136.847 124.929C136.941 124.579 137.418 123.784 138.279 122.546C138.62 122.344 139.029 122.301 139.505 122.417C139.878 122.508 140.175 122.68 140.394 122.931C140.599 123.157 140.657 123.434 140.569 123.764C140.476 124.115 140.288 124.486 140.007 124.878C139.71 125.245 139.512 125.614 139.413 125.985C139.275 126.5 139.2 126.987 139.188 127.445C139.161 127.877 139.313 128.134 139.645 128.215C140.121 128.332 140.467 128.196 140.68 127.809C142.228 124.828 144.134 123.395 146.399 123.51Z" fill="#947C00"/>
<path d="M144.654 109.218C144.911 109.272 145.158 109.345 145.397 109.438C145.636 109.53 145.864 109.619 146.083 109.704C146.998 110.059 147.778 110.476 148.424 110.954C148.885 111.224 149.375 111.483 149.894 111.73C150.393 111.969 150.922 112.22 151.481 112.482C151.52 112.498 151.748 112.563 152.164 112.679C152.569 112.767 153.149 112.958 153.905 113.251C154.243 113.383 154.439 113.618 154.491 113.958C154.533 114.271 154.472 114.601 154.31 114.949C154.111 115.374 153.881 115.639 153.621 115.744C153.34 115.84 152.833 115.769 152.099 115.53C152.264 115.982 152.363 116.397 152.398 116.776C152.412 117.147 152.391 117.493 152.335 117.813C152.288 118.115 152.216 118.395 152.118 118.654C152.03 118.893 151.936 119.119 151.836 119.332C151.321 120.433 150.594 121.133 149.656 121.431C148.717 121.729 147.651 121.647 146.458 121.184C146.319 121.13 146.18 121.076 146.04 121.022C145.881 120.96 145.707 120.881 145.517 120.785C145.468 120.789 145.374 120.764 145.235 120.71C145.016 120.625 144.797 120.54 144.579 120.455C144.349 120.343 144.079 120.193 143.768 120.004C143.457 119.815 143.08 119.566 142.637 119.257C142.183 118.921 141.612 118.483 140.925 117.942C140.724 117.568 140.723 117.168 140.922 116.743C141.076 116.414 141.297 116.169 141.584 116.006C141.881 115.824 142.218 115.807 142.596 115.953C142.695 115.992 142.88 116.098 143.152 116.272C143.423 116.446 143.719 116.64 144.041 116.857C144.363 117.073 144.69 117.279 145.02 117.476C145.351 117.673 145.616 117.81 145.815 117.887L145.964 117.945C146.165 118.068 146.37 118.182 146.58 118.286C146.77 118.383 146.954 118.466 147.133 118.535C147.65 118.736 148.11 118.834 148.511 118.83C148.922 118.807 149.24 118.553 149.466 118.07C149.628 117.722 149.703 117.363 149.688 116.992C149.654 116.613 149.576 116.252 149.455 115.909C149.323 115.538 149.163 115.202 148.975 114.9C148.767 114.591 148.556 114.339 148.343 114.142C147.652 113.76 146.769 113.212 145.693 112.497L145.394 112.382C145.056 112.251 144.733 112.114 144.423 111.971C144.123 111.809 143.872 111.643 143.669 111.473C143.456 111.276 143.32 111.064 143.263 110.836C143.185 110.6 143.218 110.328 143.363 110.019C143.634 109.439 144.064 109.172 144.654 109.218Z" fill="#947C00"/>
<path d="M158.321 103.784C158.864 104.156 159.268 104.632 159.533 105.214C159.793 105.769 160.055 106.337 160.32 106.919C160.354 107.204 160.298 107.561 160.153 107.989C160.039 108.411 159.897 108.817 159.727 109.208C159.557 109.598 159.399 109.935 159.253 110.218C159.119 110.483 159.064 110.598 159.089 110.563C158.966 110.738 158.77 110.944 158.499 111.183C158.26 111.414 158.011 111.64 157.752 111.861C157.525 112.075 157.313 112.248 157.116 112.382C156.949 112.508 156.872 112.563 156.885 112.545C156.756 112.692 156.559 112.862 156.294 113.055C156.011 113.238 155.724 113.407 155.434 113.562C155.138 113.69 154.86 113.791 154.6 113.866C154.309 113.948 154.089 113.948 153.94 113.865C153.79 113.783 153.665 113.666 153.565 113.514C153.446 113.351 153.364 113.173 153.318 112.978C153.255 112.774 153.228 112.59 153.239 112.426C153.244 112.235 153.295 112.069 153.393 111.93L155.388 110.522C155.733 110.252 156.043 109.975 156.32 109.692C156.59 109.38 156.835 109.067 157.055 108.753C157.263 108.456 157.391 108.163 157.438 107.874C157.478 107.557 157.457 107.291 157.375 107.076L156.809 106.22C156.448 106.07 156.095 106.057 155.749 106.181C155.415 106.288 155.067 106.471 154.703 106.731C154.352 106.974 153.992 107.247 153.623 107.553C153.254 107.858 152.866 108.116 152.458 108.328L150.912 109.038C150.151 109.127 149.241 108.892 148.182 108.333C147.601 107.868 147.262 107.318 147.163 106.682C147.156 106.655 147.152 106.495 147.149 106.203C147.128 105.9 147.121 105.449 147.128 104.847C147.177 104.777 147.311 104.548 147.531 104.161C147.763 103.756 148.074 103.201 148.464 102.496C148.672 102.199 149.404 101.597 150.661 100.691C151.063 100.597 151.479 100.669 151.908 100.906C152.245 101.091 152.479 101.329 152.612 101.62C152.738 101.884 152.704 102.155 152.508 102.435C152.3 102.732 151.992 103.022 151.586 103.307C151.173 103.564 150.856 103.85 150.636 104.164C150.33 104.601 150.095 105.029 149.932 105.447C149.762 105.838 149.826 106.115 150.125 106.28C150.555 106.517 150.939 106.486 151.277 106.188C153.785 103.864 156.133 103.063 158.321 103.784Z" fill="#947C00"/>
<path d="M158.548 92.0169C158.865 91.9565 159.232 92.0746 159.649 92.3711C160.414 92.9147 160.557 93.4438 160.076 93.9585L159.989 94.052C159.788 94.2983 159.559 94.5897 159.303 94.9263C159.029 95.2506 158.736 95.6262 158.425 96.0531C158.674 96.282 159.019 96.5788 159.459 96.9435C159.882 97.2959 160.416 97.7007 161.059 98.1578C161.111 98.1949 161.163 98.2319 161.216 98.269C161.282 98.2905 161.35 98.3259 161.42 98.3753L162.62 99.2278C162.898 99.4255 163.161 99.5471 163.408 99.5927C163.651 99.6103 163.866 99.5814 164.052 99.5061L164.899 99.0179C165.57 98.6392 166.158 98.629 166.663 98.9873C166.958 99.1973 167.117 99.4918 167.14 99.8707C167.176 100.234 167.042 100.579 166.736 100.907C166.649 101 166.47 101.146 166.199 101.343C165.926 101.511 165.621 101.684 165.284 101.859C164.961 102.019 164.619 102.152 164.259 102.259C163.913 102.351 163.608 102.368 163.344 102.31C162.784 102.197 162.236 102.041 161.699 101.841C161.145 101.629 160.624 101.35 160.137 101.004C159.598 100.621 159.223 100.342 159.011 100.166C158.8 99.9894 158.614 99.8317 158.455 99.6926C158.296 99.5534 158.101 99.3896 157.872 99.201C157.644 99.0125 157.251 98.7205 156.694 98.3252C156.452 98.6462 156.149 99.1569 155.784 99.8575C155.464 100.201 155.092 100.429 154.668 100.543C154.241 100.628 153.862 100.554 153.531 100.319C153.288 100.146 153.12 99.923 153.028 99.65C152.95 99.3613 153.03 98.9509 153.266 98.4187C153.345 98.2413 153.427 98.0918 153.511 97.9703C153.61 97.8332 153.702 97.7039 153.787 97.5823C153.886 97.4452 154.001 97.3065 154.132 97.1661C154.245 97.0134 154.379 96.8234 154.534 96.5959C154.114 96.2715 153.648 95.9022 153.138 95.488C152.626 95.0458 152.178 94.6112 151.796 94.1841C151.428 93.7413 151.175 93.3152 151.037 92.9057C150.895 92.4682 150.978 92.0857 151.283 91.7583C151.808 91.1969 152.415 91.0576 153.105 91.3406C153.123 91.3529 153.222 91.4628 153.405 91.6702C153.584 91.8496 153.783 92.0554 154 92.2875C154.217 92.5196 154.426 92.7455 154.626 92.9653C154.84 93.1694 154.982 93.2962 155.051 93.3456L156.264 94.3239C156.349 94.2024 156.435 94.0948 156.522 94.0012C156.592 93.8953 156.678 93.7878 156.78 93.6786L156.976 93.4681C157.078 93.3589 157.173 93.2576 157.26 93.164C157.33 93.0581 157.402 92.9661 157.474 92.8882C157.911 92.4203 158.269 92.1299 158.548 92.0169Z" fill="#947C00"/>
<path d="M175.803 89.0375C176.292 88.9718 176.669 89.0621 176.935 89.3083C177.076 89.4386 177.183 89.6094 177.257 89.8207C177.314 90.0175 177.339 90.2271 177.331 90.4493C177.307 90.6571 177.259 90.857 177.187 91.0491C177.116 91.2412 177.005 91.3971 176.855 91.5168C176.674 91.5798 176.437 91.6338 176.144 91.6787C175.835 91.7092 175.519 91.7324 175.194 91.7484C174.854 91.7499 174.507 91.7302 174.152 91.6895C173.814 91.6354 173.509 91.5547 173.238 91.4475L173.462 91.9564C173.709 92.7304 173.741 93.6217 173.559 94.6304C172.866 95.4257 172.453 95.8766 172.319 95.983C172.002 96.2357 171.572 96.4982 171.027 96.7704L168.735 97.0206C167.602 97.0071 166.573 96.5731 165.649 95.7188C165.32 95.4147 165.009 95.0417 164.718 94.5999C164.427 94.1303 164.178 93.6275 163.971 93.0914C163.781 92.542 163.64 91.9666 163.548 91.3652C163.457 90.7638 163.455 90.1587 163.542 89.5498C163.853 89.0049 164.179 88.5021 164.52 88.0416C164.845 87.5667 165.108 87.2216 165.311 87.0065C165.298 86.4497 165.509 85.9984 165.943 85.6526C166.193 85.4531 166.527 85.3888 166.946 85.4597C167.365 85.5028 167.814 85.6304 168.292 85.8426C168.787 86.0415 169.288 86.3031 169.794 86.6276C170.285 86.9376 170.735 87.2531 171.144 87.574L172.715 88.4658C173.207 88.748 173.702 88.933 174.201 89.0207C174.716 89.0952 175.25 89.1008 175.803 89.0375ZM169.392 89.659C169.343 89.6711 168.724 89.3147 167.536 88.5898C167.453 88.6563 167.328 88.7561 167.161 88.8891C166.994 89.0221 166.841 89.2251 166.701 89.4982C166.563 89.7435 166.47 90.0739 166.422 90.4895C166.376 90.8772 166.447 91.3597 166.637 91.9369C166.897 92.7809 167.333 93.4853 167.944 94.05C168.745 94.3018 169.594 94.3258 170.492 94.1221C170.629 93.9324 170.724 93.762 170.778 93.611C170.849 93.4466 170.879 93.2739 170.87 93.0927C170.86 92.9116 170.819 92.7153 170.746 92.504C170.673 92.2649 170.57 91.983 170.436 91.6582C170.293 91.1523 170.13 90.743 169.947 90.4303C169.765 90.0898 169.58 89.8327 169.392 89.659Z" fill="#947C00"/>
<path d="M174.387 77.7453C174.534 77.8533 174.655 77.9642 174.752 78.0781C175.194 78.5987 175.393 79.1431 175.35 79.7113C174.968 80.2384 174.504 80.668 173.957 80.9999C173.445 81.0149 172.966 80.9723 172.522 80.8721C172.083 80.7446 171.759 80.5588 171.552 80.3147C171.373 80.1032 171.205 79.4167 171.048 78.255C171.313 78.1437 171.58 78.0187 171.849 77.8801C172.137 77.7304 172.417 77.6217 172.691 77.554C172.984 77.4752 173.267 77.4512 173.542 77.4817C173.821 77.485 174.102 77.5728 174.387 77.7453ZM176.968 82.3518L177.237 82.669C177.306 82.7504 177.382 82.8399 177.465 82.9375C177.548 83.0351 177.605 83.1357 177.638 83.2391L178.35 84.4701L178.537 84.6897C178.619 84.7873 178.721 84.923 178.84 85.0968C178.96 85.2705 179.071 85.4498 179.172 85.6346C179.292 85.8084 179.405 85.974 179.511 86.1315C179.617 86.289 179.711 86.4165 179.794 86.5142C179.863 86.5955 179.918 86.6606 179.96 86.7094C180.019 86.7471 180.084 86.8067 180.153 86.888C180.277 87.0344 180.397 87.2082 180.512 87.4093C180.613 87.5941 180.754 87.7923 180.933 88.0038C181.099 88.199 181.299 88.3858 181.533 88.5641C181.953 89.4179 181.844 90.0384 181.206 90.4257C180.312 90.9679 179.23 90.4906 177.961 88.9938C177.533 88.4894 177.139 87.9766 176.78 87.4554C176.407 86.9178 176.078 86.4154 175.792 85.9482C175.506 85.4809 175.269 85.0706 175.079 84.7172C174.894 84.3365 174.754 84.0401 174.656 83.8279C174.626 83.304 174.858 82.8927 175.35 82.594C175.824 82.3063 176.364 82.2256 176.968 82.3518Z" fill="#947C00"/>
<path d="M193.926 81.4183L194.065 81.6329C194.135 81.7402 194.263 81.9369 194.449 82.2231C194.643 82.4826 194.794 82.7729 194.903 83.0939C195.03 83.4063 195.072 83.7223 195.029 84.0422C194.974 84.3441 194.752 84.5824 194.363 84.7571C193.603 85.0977 192.975 85.0213 192.479 84.5281C192.428 84.4121 192.362 84.2915 192.281 84.1663C192.188 84.0232 192.089 83.8712 191.984 83.7103C191.938 83.6387 191.769 83.3794 191.478 82.9323C191.176 82.4674 190.831 81.9754 190.443 81.4563C190.074 80.9286 189.69 80.4541 189.291 80.0328C188.879 79.5936 188.536 79.3551 188.259 79.3172C187.626 79.232 187.134 79.2679 186.783 79.4251C186.316 79.6347 186.004 79.9479 185.848 80.3646C185.699 80.7547 185.762 81.3733 186.037 82.2205C186.18 82.4796 186.347 82.7745 186.537 83.1051C186.715 83.4178 186.913 83.7797 187.13 84.1906C187.327 84.4946 187.558 84.83 187.822 85.1968C188.074 85.5457 188.371 85.9439 188.712 86.3914C188.933 86.7312 188.973 87.0829 188.832 87.4463C188.68 87.7919 188.419 88.0477 188.049 88.2136C187.757 88.3446 187.477 88.3779 187.209 88.3134C186.941 88.249 186.682 88.1223 186.434 87.9335C186.205 87.736 185.983 87.5118 185.77 87.261C185.576 87.0015 185.392 86.7376 185.217 86.4694C185.089 86.2727 184.971 86.0716 184.863 85.8661C184.743 85.6428 184.632 85.4151 184.532 85.1831L183.09 82.5031L182.486 81.1107C182.308 80.9135 182.079 80.716 181.799 80.518C181.519 80.3201 181.333 80.1496 181.24 80.0065C181.042 79.7025 180.988 79.3685 181.079 79.0046C181.188 78.632 181.438 78.3583 181.827 78.1837C182.099 78.0614 182.339 78.0233 182.545 78.0695C182.739 78.0978 183.114 78.2298 183.67 78.4656C183.955 78.13 184.202 77.8919 184.412 77.7514C184.611 77.5929 184.866 77.4438 185.177 77.3041C186.19 76.85 187.221 76.6761 188.27 76.7826C189.328 76.8625 190.286 77.3684 191.143 78.3004C191.446 78.6497 191.698 78.9409 191.9 79.1738C192.121 79.3979 192.327 79.6175 192.517 79.8325C192.707 80.0475 192.909 80.2804 193.123 80.5312C193.324 80.7641 193.592 81.0598 193.926 81.4183Z" fill="#947C00"/>
<path d="M207.877 77.807C208.349 77.9378 208.658 78.1694 208.803 78.5019C208.879 78.6779 208.909 78.8781 208.892 79.1025C208.866 79.3074 208.805 79.5111 208.709 79.7137C208.604 79.8968 208.481 80.0631 208.338 80.2129C208.196 80.3626 208.033 80.4634 207.848 80.5153C207.658 80.5028 207.42 80.4599 207.135 80.3865C206.84 80.2935 206.542 80.1908 206.239 80.0782C205.928 79.9462 205.619 79.7916 205.311 79.6147C205.024 79.4319 204.778 79.2377 204.573 79.0319L204.575 79.5911C204.491 80.4048 204.165 81.2428 203.596 82.1052C202.646 82.5697 202.088 82.8251 201.924 82.8712C201.534 82.9809 201.036 83.0549 200.43 83.0934L198.237 82.4255C197.208 81.9684 196.442 81.1629 195.939 80.0091C195.76 79.5984 195.625 79.1313 195.535 78.6078C195.457 78.059 195.431 77.4957 195.456 76.918C195.501 76.3346 195.602 75.7464 195.758 75.1537C195.915 74.5609 196.154 73.9997 196.477 73.4701C196.979 73.0876 197.477 72.75 197.972 72.4573C198.458 72.1451 198.837 71.929 199.107 71.8091C199.318 71.2888 199.691 70.9536 200.225 70.8036C200.533 70.717 200.864 70.7887 201.218 71.0185C201.583 71.223 201.942 71.5173 202.294 71.9014C202.667 72.2797 203.019 72.7184 203.352 73.2176C203.676 73.6971 203.961 74.1658 204.207 74.6236L205.285 76.0658C205.622 76.5201 206 76.8857 206.421 77.1627C206.862 77.4339 207.347 77.6487 207.877 77.807ZM201.775 75.8667C201.726 75.8587 201.303 75.286 200.507 74.1486C200.405 74.1774 200.251 74.2207 200.045 74.2784C199.84 74.3361 199.619 74.464 199.383 74.6622C199.158 74.835 198.941 75.1044 198.732 75.4705C198.535 75.8113 198.408 76.2861 198.35 76.8949C198.252 77.7788 198.368 78.602 198.701 79.3647C199.331 79.9119 200.097 80.2675 200.999 80.4313C201.199 80.3091 201.354 80.1887 201.464 80.0701C201.594 79.9457 201.691 79.7978 201.754 79.6263C201.818 79.4547 201.858 79.2568 201.876 79.0324C201.905 78.7826 201.924 78.4811 201.931 78.1278C202.002 77.603 202.016 77.16 201.974 76.7987C201.944 76.4121 201.877 76.1014 201.775 75.8667Z" fill="#947C00"/>
<path d="M218.532 71.504C219.278 72.4099 219.749 73.267 219.947 74.0753C220.094 74.6762 220.106 75.306 219.983 75.9646L219.681 77.5461L218.948 78.7038C218.449 79.5199 217.9 80.0858 217.3 80.4017C216.695 80.6969 216.192 80.8714 215.79 80.9253C215.282 80.9934 214.726 80.9074 214.122 80.6675C213.903 80.9323 213.624 81.0874 213.286 81.1328C212.905 81.1838 212.415 81.0997 211.816 80.8805C211.786 80.6704 211.741 80.4411 211.68 80.1924C211.619 79.9437 211.554 79.6743 211.483 79.3842C211.442 79.2184 211.394 79.0643 211.337 78.9221C211.281 78.7799 211.214 78.5962 211.137 78.3711C211.055 78.1252 210.955 77.8069 210.838 77.4159C210.721 77.025 210.573 76.5098 210.395 75.8702C210.212 75.2098 210.043 74.6974 209.888 74.3329C209.729 73.9477 209.604 73.7075 209.516 73.6124C209.238 72.9219 208.968 72.2197 208.706 71.5057C208.444 70.7918 208.195 70.1296 207.959 69.5192C207.717 68.8881 207.494 68.3296 207.287 67.8435C207.081 67.3575 206.906 66.9958 206.76 66.7585C206.644 66.2818 206.661 65.8621 206.813 65.4993C206.965 65.1366 207.241 64.9282 207.643 64.8743C207.854 64.846 208.063 64.8501 208.268 64.8868C208.474 64.9234 208.673 65.0251 208.867 65.1917C209.082 65.3556 209.293 65.5947 209.501 65.9093C209.709 66.2239 209.91 66.6463 210.105 67.1766C210.295 67.6862 210.426 68.0432 210.498 68.2476C210.591 68.4492 210.673 68.6522 210.745 68.8566C210.838 69.0581 210.951 69.3426 211.084 69.7099C211.218 70.0773 211.441 70.6787 211.755 71.5142C212.085 71.2559 212.372 71.0462 212.616 70.885C212.877 70.7002 213.124 70.5493 213.357 70.4324C213.591 70.3155 213.832 70.2296 214.081 70.1749C214.35 70.1173 214.665 70.0644 215.024 70.0162C215.426 69.9623 215.801 69.9762 216.148 70.058C216.517 70.137 216.84 70.2541 217.119 70.4095C217.418 70.5619 217.68 70.7408 217.905 70.9461C218.146 71.1278 218.355 71.3138 218.532 71.504ZM217.208 75.4699C217.172 74.8754 217.132 74.485 217.086 74.2985C217.061 74.1948 216.994 74.054 216.885 73.876C216.771 73.6773 216.627 73.4932 216.455 73.3237C216.304 73.1513 216.126 73.004 215.921 72.8816C215.716 72.7592 215.498 72.7136 215.265 72.7448C214.906 72.7931 214.526 72.9831 214.127 73.3149C213.728 73.6467 213.328 73.9785 212.929 74.3103L213.924 77.5798C214.199 78.0781 214.537 78.3003 214.939 78.2464C215.15 78.218 215.389 78.1218 215.654 77.9578C215.92 77.7937 216.165 77.5896 216.389 77.3455C216.63 77.0779 216.831 76.7834 216.992 76.462C217.154 76.1407 217.226 75.81 217.208 75.4699Z" fill="#947C00"/>
<path d="M226.718 63.944C226.728 64.4758 226.661 65.084 226.515 65.7687C226.389 66.4316 226.304 66.9764 226.261 67.4031L226.299 67.7852C226.328 68.0824 226.339 68.4013 226.33 68.742C226.321 69.0828 226.311 69.4129 226.3 69.7324C226.287 70.0306 226.26 70.2973 226.22 70.5324C226.2 70.767 226.195 70.9268 226.203 71.0117C226.192 71.1184 226.207 71.3734 226.247 71.7767C226.287 72.18 226.341 72.7214 226.409 73.4007L226.447 73.7828C226.489 74.2074 226.505 74.5794 226.494 74.8989C226.483 75.2184 226.458 75.5063 226.42 75.7626L226.945 78.1436C227.054 78.375 227.377 78.718 227.914 79.1728C227.845 79.5575 227.603 79.9148 227.187 80.2444C226.768 80.5528 226.325 80.7129 225.856 80.7247C225.216 80.7407 224.696 80.4558 224.295 79.87C223.914 79.2624 223.653 78.2474 223.511 76.8251C223.488 76.5916 223.478 76.3897 223.483 76.2193C223.508 76.0484 223.509 75.8356 223.483 75.5809C223.433 75.0714 223.305 74.4362 223.101 73.6751C223.184 73.439 223.23 73.1399 223.236 72.7779C223.264 72.4155 223.273 72.0747 223.263 71.7558C223.25 71.4156 223.232 71.1287 223.209 70.8952C223.186 70.6617 223.176 70.5662 223.181 70.6086C223.183 70.6299 223.189 70.4807 223.2 70.1612C223.232 69.8412 223.259 69.4681 223.281 69.0419C223.301 68.5945 223.309 68.1368 223.305 67.6687C223.322 67.2001 223.317 66.8278 223.29 66.5518L223.264 66.2971L223.542 63.6087C223.773 63.1347 224.229 62.8891 224.912 62.872C225.658 62.8533 226.26 63.2106 226.718 63.944Z" fill="#947C00"/>
<path d="M236.15 66.1773C236.191 66.3503 236.211 66.5115 236.21 66.6608C236.205 67.3434 235.998 67.9084 235.59 68.3556C234.949 68.5766 234.309 68.6697 233.67 68.6348C233.267 68.3567 232.928 68.05 232.654 67.7149C232.401 67.3596 232.275 67.022 232.278 66.702C232.28 66.4247 232.605 65.7595 233.252 64.7064C233.528 64.7642 233.816 64.812 234.114 64.8496C234.433 64.8884 234.72 64.9574 234.975 65.0567C235.252 65.1572 235.485 65.298 235.675 65.4791C235.887 65.6401 236.045 65.8728 236.15 66.1773ZM235.087 71.4653L235.084 71.8813C235.083 71.9879 235.082 72.1053 235.081 72.2333C235.08 72.3613 235.058 72.4774 235.015 72.5818L234.748 74.0077L234.746 74.2957C234.745 74.4237 234.733 74.5938 234.71 74.806C234.687 75.0181 234.654 75.2297 234.609 75.4407C234.586 75.6529 234.564 75.8544 234.541 76.0452C234.518 76.236 234.506 76.3955 234.505 76.5234C234.505 76.6301 234.504 76.7154 234.503 76.7794C234.524 76.8446 234.534 76.9305 234.533 77.0372C234.532 77.2292 234.509 77.4413 234.465 77.6737C234.42 77.8847 234.397 78.1288 234.395 78.4062C234.393 78.6621 234.423 78.9306 234.485 79.2114C234.243 80.1585 233.75 80.6118 233.004 80.571C231.961 80.514 231.446 79.5041 231.461 77.5415C231.466 76.8802 231.503 76.2313 231.571 75.5948C231.64 74.937 231.72 74.3331 231.809 73.7831C231.898 73.2331 231.987 72.7578 232.075 72.3571C232.185 71.9363 232.273 71.6103 232.338 71.3791C232.662 70.9272 233.111 70.717 233.686 70.7485C234.24 70.7787 234.707 71.0177 235.087 71.4653Z" fill="#947C00"/>
<path d="M247.877 70.7891C248.085 71.013 248.156 71.3789 248.09 71.8866C247.969 72.8175 247.561 73.2326 246.864 73.132L246.737 73.1137C246.418 73.0891 246.044 73.0674 245.616 73.0487C245.191 73.0088 244.711 72.9825 244.175 72.9697C244.089 73.3021 243.987 73.7509 243.871 74.316C243.758 74.86 243.65 75.5233 243.549 76.3061C243.541 76.3696 243.532 76.4331 243.524 76.4965C243.537 76.563 243.538 76.6386 243.527 76.7232L243.338 78.183C243.294 78.5215 243.311 78.8042 243.389 79.031C243.491 79.2397 243.621 79.3986 243.779 79.5076L244.629 79.9214C245.295 80.2548 245.589 80.7282 245.509 81.3418C245.463 81.7014 245.274 81.9974 244.943 82.2297C244.633 82.4651 244.256 82.5508 243.812 82.4867C243.686 82.4684 243.468 82.4046 243.16 82.2954C242.875 82.1681 242.572 82.0165 242.251 81.8408C241.95 81.6681 241.665 81.4652 241.394 81.232C241.144 81.002 240.981 80.763 240.906 80.515C240.737 79.9948 240.613 79.4596 240.533 78.9094C240.457 78.3379 240.457 77.756 240.534 77.1637C240.619 76.5078 240.69 76.0439 240.746 75.7719C240.803 75.4999 240.856 75.2597 240.904 75.0512C240.953 74.8427 241.007 74.5918 241.066 74.2987C241.126 74.0056 241.2 73.5205 241.287 72.8435C240.881 72.8278 240.273 72.8694 239.464 72.968C239 72.9009 238.614 72.7266 238.306 72.4451C238.022 72.1454 237.907 71.7946 237.959 71.3927C237.997 71.0965 238.117 70.8336 238.319 70.6042C238.542 70.3778 238.951 70.2105 239.545 70.1025C239.744 70.0665 239.918 70.0486 240.069 70.0488C240.24 70.052 240.401 70.0537 240.552 70.0539C240.724 70.0572 240.904 70.0725 241.094 70.1C241.287 70.1063 241.524 70.1081 241.804 70.1055C241.893 69.5796 242.002 68.9918 242.129 68.3421C242.28 67.6742 242.456 67.0638 242.657 66.5109C242.878 65.961 243.141 65.514 243.443 65.1698C243.77 64.8075 244.155 64.6584 244.598 64.7224C245.359 64.8322 245.778 65.2484 245.856 65.971C245.854 65.9922 245.803 66.1357 245.704 66.4016C245.629 66.6493 245.539 66.9273 245.434 67.2355C245.33 67.5437 245.227 67.8413 245.125 68.1284C245.044 68.4184 244.999 68.6058 244.988 68.6904L244.691 70.2317C244.842 70.2319 244.98 70.2411 245.107 70.2594C245.236 70.2566 245.375 70.2658 245.523 70.2872L245.808 70.3284C245.956 70.3497 246.093 70.3696 246.219 70.3879C246.349 70.385 246.466 70.3912 246.572 70.4065C247.205 70.498 247.641 70.6255 247.877 70.7891Z" fill="#947C00"/>
<path d="M261.588 76.9592C261.434 77.4038 261.32 77.7154 261.245 77.8941C261.17 78.0728 261.047 78.261 260.878 78.4587C260.735 78.6415 260.5 78.9102 260.173 79.2647C259.846 79.6193 259.363 80.1975 258.726 80.9994C258.277 81.9173 257.584 82.7595 256.646 83.5258C256.02 84.441 255.437 85.0587 254.898 85.3792C254.781 85.5469 254.552 85.7951 254.211 86.1238C253.869 86.4524 253.501 86.7961 253.106 87.1547C252.725 87.5393 252.351 87.9034 251.982 88.2471C251.629 88.6166 251.367 88.9003 251.197 89.098C251.126 89.1894 250.982 89.3387 250.765 89.546C250.542 89.7738 250.288 89.9933 250.003 90.2047C249.739 90.4215 249.443 90.5967 249.114 90.7303C248.8 90.8898 248.519 90.9368 248.272 90.8713C247.901 90.773 247.586 90.5574 247.329 90.2245C247.086 89.9175 247.013 89.6004 247.11 89.273C247.158 89.1094 247.294 88.9137 247.517 88.6859C247.734 88.4786 247.99 88.2488 248.287 87.9966C248.578 87.7647 248.885 87.5152 249.209 87.2479C249.526 87.0011 249.807 86.7666 250.051 86.5443C250.161 86.397 250.347 86.1815 250.608 85.8979C250.87 85.6142 251.148 85.3128 251.443 84.9937C251.752 84.7005 252.037 84.4121 252.299 84.1284C252.587 83.8298 252.789 83.5965 252.905 83.4288C252.856 83.3715 252.772 83.2392 252.656 83.0318C252.545 82.804 252.414 82.5707 252.262 82.332C252.137 82.0782 251.999 81.832 251.847 81.5932C251.695 81.3545 251.549 81.1724 251.408 81.0468C251.278 80.6594 251.157 80.3518 251.047 80.124C250.936 79.8961 250.827 79.7017 250.719 79.5408C250.631 79.3852 250.533 79.227 250.425 79.066C250.317 78.905 250.204 78.6874 250.085 78.4132C249.986 78.1445 249.857 77.7905 249.698 77.3512C249.559 76.9174 249.405 76.3472 249.236 75.6406C249.233 75.5738 249.25 75.479 249.287 75.3562C249.408 74.947 249.661 74.617 250.046 74.3661C250.452 74.1207 250.82 74.0417 251.15 74.129C251.377 74.1891 251.602 74.3699 251.824 74.6714C252.052 74.9524 252.27 75.4183 252.478 76.069C252.689 76.7865 252.855 77.3158 252.976 77.6569C253.119 78.0034 253.235 78.2878 253.325 78.5102C253.441 78.7175 253.558 78.9249 253.674 79.1322C253.818 79.3246 254.003 79.6384 254.23 80.0736C254.441 80.2619 254.684 80.6459 254.957 81.2257L256.95 78.5438C257.334 78.0719 257.721 77.5898 258.111 77.0975C258.528 76.5901 258.853 76.0917 259.087 75.602C259.631 75.4153 260.13 75.382 260.584 75.5021C261.347 75.7042 261.681 76.1899 261.588 76.9592Z" fill="#947C00"/>
<path d="M134.48 76.7079C111.276 84.6071 72.6663 118.539 101.35 191.403C100.393 187.893 100.834 183.437 106.98 182.208H129.98C127.98 179.875 124.48 174.208 126.48 170.208L128.98 167.708C117.813 158.375 103.28 127.108 134.48 76.7079Z" fill="#27C400"/>
<path d="M102.48 194.208C100.647 196.041 98.5798 201.008 104.98 206.208C94.8131 204.041 74.7798 202.408 75.9798 213.208C74.6464 215.875 76.5795 221.608 94.9795 223.208C88.9796 225.375 77.6798 230.908 80.4798 235.708C83.9798 241.708 92.9798 247.208 103.48 245.208C98.8131 251.375 91.4798 265.008 99.4798 270.208C109.48 276.708 127.48 280.708 128.98 285.708C130.48 290.708 118.48 299.708 133.98 313.208C134.813 314.041 137.38 315.608 140.98 315.208V255.708C133.646 253.708 119.78 247.508 122.98 238.708C126.18 229.908 128.98 223.375 129.98 221.208C124.48 222.375 112.38 222.408 107.98 213.208C106.813 210.208 107.88 203.408 121.48 200.208C115.869 200.041 104.213 198.608 102.48 194.208Z" fill="#27C400"/>
</svg>
