<svg width="614" height="633" viewBox="0 0 614 633" fill="none" xmlns="http://www.w3.org/2000/svg">
<path d="M456.843 188.858L456.843 576.858L69.8433 573.013L356.843 129.858L456.843 188.858Z" fill="#FFFEDD"/>
<ellipse cx="263.843" cy="570.357" rx="192.5" ry="27.5" fill="#FFFA7D"/>
<path d="M260.343 547.269C261.843 546.858 272.843 542.858 273.843 524.858C264.343 529.858 264.343 538.358 260.343 547.269Z" fill="#2AD300"/>
<path d="M259.843 547.269C259.843 539.603 251.843 536.858 249.343 535.358C249.843 540.358 254.844 546.269 259.843 547.269Z" fill="#2AD300"/>
<path d="M259.843 569.269L259.342 558.858L260.343 547.269M260.343 547.269C261.843 546.858 272.843 542.858 273.843 524.858C264.343 529.858 264.343 538.358 260.343 547.269ZM260.343 547.269H259.843M259.843 547.269C259.843 539.603 251.843 536.858 249.343 535.358C249.843 540.358 254.844 546.269 259.843 547.269Z" stroke="#2AD300" stroke-width="3"/>
<ellipse cx="246.343" cy="568.858" rx="16" ry="2" fill="#68590A" fill-opacity="0.2"/>
<path d="M439.056 85.8646C409.082 80.9757 379.938 78.9695 346.584 116.966C313.229 154.962 320.253 210.329 356.425 249.104C380.849 275.286 411.906 276.685 438.835 267.679C465.764 258.674 474.836 255.116 502.352 220.822C522.128 196.175 522.115 159.618 506.439 130.854C493.674 107.432 469.029 90.7536 439.056 85.8646Z" fill="#FFD600" stroke="#FFF500" stroke-width="10.8775"/>
<path d="M430.093 117.997C430.654 118.598 431.551 119.415 432.576 120.357C440.558 126.622 430.77 101.23 435.509 94.3236C439.297 88.804 429.681 97.7691 421.676 98.3782C418.991 98.5825 416.433 112.119 414.299 114.11C408.093 119.9 401.433 124.969 394.608 129.773C398.279 132.21 401.789 136.273 403.394 138.572C406.229 136.714 408.43 135.102 409.739 133.88C416.625 127.457 415.783 137.739 416.144 141.239C416.794 147.536 418.963 153.328 420.4 159.107C421.433 163.267 419.223 168.526 421.355 172.698C421.518 173.018 421.711 173.333 421.926 173.643C423.233 175.064 424.588 176.507 425.618 177.593C426.034 177.994 426.432 178.388 426.793 178.774C427.985 180.051 427.169 179.227 425.618 177.593C424.34 176.358 422.901 175.048 421.926 173.643C420.469 172.059 419.073 170.502 418.255 169.498C410.872 160.446 410.161 148.71 403.619 138.901C403.549 138.796 403.474 138.686 403.394 138.572C398.981 141.464 393.032 144.949 386.518 148.478C386.76 149.234 386.978 149.976 387.153 150.698C390.391 164.027 397.208 177.911 410.133 184.201C416.081 187.096 427.048 197.507 413.765 189.204C403.501 182.788 393.282 175.802 382.803 169.813C380.625 168.569 377.848 167.619 375.389 167.534C370.972 167.381 367.763 170.108 363.923 172.369C360.669 174.284 352.42 176.613 348.902 175.118C344.839 173.391 345.526 169.478 347.594 166.017C348.57 164.383 349.855 162.85 351.093 161.695C361.039 152.416 372.159 144.988 383.262 137.524C382.854 134.271 383.451 131.22 386.368 128.787C388.62 126.909 391.666 127.819 394.608 129.773C401.433 124.969 408.093 119.9 414.299 114.11C416.433 112.119 418.991 98.5825 421.676 98.3782C429.681 97.7691 439.297 88.804 435.509 94.3236C430.77 101.23 440.558 126.622 432.576 120.357C431.887 119.817 431.067 119.04 430.093 117.997Z" fill="#FFD600"/>
<path d="M352.729 203.615C360.736 196.146 379.36 172.283 391.425 185.217C403.029 197.655 424.71 197.076 440.232 197.615C441.467 197.658 452.036 197.637 452.926 196.807C454.108 195.704 451.181 181.169 449.735 179.095C438.428 162.875 433.519 149.165 439.593 130.398C440.741 126.849 432.454 120.528 430.093 117.997C442.355 131.141 430.361 101.826 435.509 94.3236C439.297 88.804 429.681 97.7691 421.676 98.3782C418.991 98.5825 416.433 112.119 414.299 114.11C394.726 132.369 370.643 143.457 351.093 161.695C347.232 165.297 342.921 172.576 348.902 175.118C352.42 176.613 360.669 174.284 363.923 172.369C367.763 170.108 370.972 167.381 375.389 167.534C377.848 167.619 380.625 168.569 382.803 169.813C393.282 175.802 403.501 182.788 413.765 189.204C427.048 197.507 416.081 187.096 410.133 184.201C397.208 177.911 390.391 164.027 387.153 150.698C385.419 143.556 379.543 134.48 386.368 128.787C391.568 124.45 401.006 134.984 403.619 138.901C410.161 148.71 410.872 160.446 418.255 169.498C420.911 172.755 429.659 181.847 426.793 178.774C425.08 176.937 422.498 174.936 421.355 172.698C419.223 168.526 421.433 163.267 420.4 159.107C418.963 153.328 416.794 147.536 416.144 141.239C415.783 137.739 416.625 127.457 409.739 133.88C400.103 142.87 342.136 173.065 338.627 166.198C337.617 164.222 346.219 157.996 347.334 156.926C354.491 150.061 361.757 141.339 366.96 132.871C370.236 127.538 370.966 118.756 375.091 114.481C379.232 110.189 383.786 105.917 388.365 102.098C393.203 98.0623 400.242 98.5916 404.587 97.3091" stroke="#FFF500" stroke-width="21.755" stroke-linecap="round"/>
<path d="M498.375 179.35C497.265 182.605 496.693 184.57 497.338 183.888C498.33 182.839 498.597 181.23 498.375 179.35Z" fill="#FFD600"/>
<path d="M505.519 151.463C509.697 151.608 494.911 186.454 497.338 183.888C500.799 180.23 495.431 169.748 491.269 164.757C486.52 159.064 486.195 141.413 491.398 131.167" stroke="#FFF500" stroke-width="21.755" stroke-linecap="round"/>
<path d="M360.591 196.521C365.146 201.404 351.2 186.057 348.941 180.612C348.004 178.354 348.661 172.57 352.332 174.026C355.072 175.112 357.994 174.167 362.73 177.474C366.023 180.24 370.12 183.982 373.074 187.149" stroke="#68590A" stroke-width="6.79843" stroke-linecap="round"/>
<path d="M393.027 261.713C398.032 257.044 403.027 252.714 405.974 233.713C405.974 221.336 403.358 214.464 397.527 208.213" stroke="#68590A" stroke-width="6.79843" stroke-linecap="round"/>
<path d="M393.027 68.2124C377.361 72.8386 395.372 117.196 384.019 114.346C395.955 118.269 425.667 131.992 455.005 163.012C445.354 152.342 470.971 136.67 460.027 129.251C441.527 116.712 435.171 133.263 423.678 133.913C412.185 134.562 418.21 60.7759 393.027 68.2124Z" fill="#FFF500"/>
<path d="M358.123 93.5708C358.123 44.7123 335.027 70.7127 345.219 111.111C348.398 109.697 362.078 108.785 384.019 114.346C382.803 114.041 358.123 113.53 358.123 93.5708Z" fill="#FFF500"/>
<path d="M323.702 102.513C272.027 68.2119 326.886 132.862 317.469 129.251C298.572 125.956 299.135 131.213 309.47 149.11C317.029 162.202 307.972 157.48 296.034 161.644C284.096 165.807 305.912 177.221 312.456 182.739C318.999 188.256 323.417 188.004 316.445 201.481C309.474 214.958 320.746 216.068 328.396 219.779C336.046 223.489 347.256 228.523 349.231 247.6C351.206 266.677 363.172 264.04 378.667 268.18C380.876 268.77 382.621 269.431 384.019 270.16C350.106 250.355 323.702 204.213 321.027 182.739C320.736 134.811 330.243 115.011 345.219 111.111C343.874 111.333 334.83 109.899 323.702 102.513Z" fill="#FFF500"/>
<path d="M483.177 255.057C482.756 252.263 482.07 249.183 484.492 246.908C484.659 245.155 484.776 243.272 484.829 241.274C484.831 241.22 484.832 241.165 484.833 241.111C461.618 302.282 412.798 282.309 384.019 270.16C392.432 274.548 388.847 280.071 397.676 289.107C407.972 299.646 409.915 287.762 414.643 283.352C419.37 278.941 419.887 286.978 431.401 294.831C442.915 302.684 435.696 279.981 446.549 286.128C457.401 292.274 452.716 277.275 463.516 280.372C474.315 283.468 472.738 287.264 474.463 270.159C475.281 262.056 486.338 276.071 483.177 255.057Z" fill="#FFF500"/>
<path d="M479.227 180.489C480.291 161.677 467.13 175.503 456.06 164.136C479.829 191.774 485.312 221.788 484.833 241.111C484.832 241.165 484.831 241.22 484.829 241.274C484.776 243.272 484.659 245.155 484.492 246.908C486.194 245.31 489.429 244.11 495.368 243.684C509.762 242.653 487.146 228.884 490.963 222.999C496.993 213.701 476.874 204.276 478.416 192.091C478.749 189.455 478.163 199.302 479.227 180.489Z" fill="#FFF500"/>
<path d="M345.219 111.111C343.874 111.333 334.83 109.899 323.702 102.513C272.027 68.2119 326.886 132.862 317.469 129.251C298.572 125.956 299.135 131.213 309.47 149.11C317.029 162.202 307.972 157.48 296.034 161.644C284.096 165.807 305.912 177.221 312.456 182.739C318.999 188.256 323.417 188.004 316.445 201.481C309.474 214.958 320.746 216.068 328.396 219.779C336.046 223.489 347.256 228.523 349.231 247.6C351.206 266.677 363.172 264.04 378.667 268.18C380.876 268.77 382.621 269.431 384.019 270.16M345.219 111.111C335.027 70.7127 358.123 44.7123 358.123 93.5708C358.123 113.53 382.803 114.041 384.019 114.346M345.219 111.111C348.398 109.697 362.078 108.785 384.019 114.346M345.219 111.111C330.243 115.011 320.736 134.811 321.027 182.739C323.702 204.213 350.106 250.355 384.019 270.16M384.019 114.346C395.372 117.196 377.361 72.8386 393.027 68.2124C418.21 60.7759 412.185 134.562 423.678 133.913C435.171 133.263 441.527 116.712 460.027 129.251C470.971 136.67 445.354 152.342 455.005 163.012M384.019 114.346C395.955 118.269 425.667 131.992 455.005 163.012M455.005 163.012C455.339 163.381 455.69 163.756 456.06 164.136M455.005 163.012C455.357 163.384 455.709 163.759 456.06 164.136M456.06 164.136C467.13 175.503 480.291 161.677 479.227 180.489C478.163 199.302 478.749 189.455 478.416 192.091C476.874 204.276 496.993 213.701 490.963 222.999C487.146 228.884 509.762 242.653 495.368 243.684C489.429 244.11 486.194 245.31 484.492 246.908M456.06 164.136C479.829 191.774 485.312 221.788 484.833 241.111M456.06 164.136C479.896 191.851 485.343 221.957 484.829 241.274M484.492 246.908C482.07 249.183 482.756 252.263 483.177 255.057M484.492 246.908C484.19 250.079 483.725 252.824 483.177 255.057M484.492 246.908C484.659 245.155 484.776 243.272 484.829 241.274M483.177 255.057C486.338 276.071 475.281 262.056 474.463 270.159C472.738 287.264 474.315 283.468 463.516 280.372C452.716 277.275 457.401 292.274 446.549 286.128C435.696 279.981 442.915 302.684 431.401 294.831C419.887 286.978 419.37 278.941 414.643 283.352C409.915 287.762 407.972 299.646 397.676 289.107C388.847 280.071 392.432 274.548 384.019 270.16M384.019 270.16C412.798 282.309 461.618 302.282 484.833 241.111M484.833 241.111C484.832 241.165 484.831 241.22 484.829 241.274" stroke="#FFFA8D" stroke-width="10.1976"/>
<path d="M454.527 82.7117L466.027 89.2117L472.027 90.7117L476.527 93.7117L483.027 98.7117V102.212V271.712H479.527V281.712L474.527 287.712H467.527L461.027 284.712L457.027 290.212H454.527V82.7117Z" fill="black" fill-opacity="0.1"/>
</svg>
