<svg width="40" height="40" viewBox="0 0 40 40" fill="none" xmlns="http://www.w3.org/2000/svg">
<rect width="40" height="40" rx="8" fill="#EBF9F5"/>
<path d="M20 17C19.1077 16.9857 18.2363 17.2701 17.5242 17.808C16.8122 18.346 16.3005 19.1066 16.0706 19.9689C15.8407 20.8311 15.9057 21.7455 16.2553 22.5666C16.6049 23.3876 17.219 24.0682 18 24.5M20 11V13M14.6 26.3999L13.2 27.7999M12 21H10M14.3399 15.3402L12.9299 13.9302M28 12V22.54C28.7626 22.9803 29.3586 23.6599 29.6955 24.4734C30.0325 25.2869 30.0916 26.1888 29.8637 27.0394C29.6358 27.8899 29.1336 28.6415 28.435 29.1775C27.7365 29.7136 26.8805 30.0041 26 30.0041C25.1195 30.0041 24.2635 29.7136 23.565 29.1775C22.8664 28.6415 22.3642 27.8899 22.1363 27.0394C21.9084 26.1888 21.9675 25.2869 22.3045 24.4734C22.6415 23.6599 23.2374 22.9803 24 22.54V12C24 11.4696 24.2107 10.9609 24.5858 10.5858C24.9609 10.2107 25.4696 10 26 10C26.5304 10 27.0391 10.2107 27.4142 10.5858C27.7893 10.9609 28 11.4696 28 12Z" stroke="#00261C" stroke-width="2" stroke-linecap="round" stroke-linejoin="round"/>
</svg>
