<svg width="40" height="40" viewBox="0 0 40 40" fill="none" xmlns="http://www.w3.org/2000/svg">
<rect width="40" height="40" rx="8" fill="#EBF9F5"/>
<path d="M25.7 15.7001C25.9927 15.4183 26.3497 15.212 26.7401 15.0992C27.1304 14.9864 27.5424 14.9705 27.9403 15.0528C28.3383 15.1351 28.7101 15.3131 29.0237 15.5715C29.3373 15.8299 29.5832 16.1608 29.7401 16.5356C29.897 16.9105 29.9602 17.3179 29.9242 17.7226C29.8882 18.1274 29.754 18.5172 29.5334 18.8584C29.3128 19.1996 29.0123 19.4819 28.658 19.6809C28.3037 19.8798 27.9062 19.9894 27.5 20.0001H10M17.6 12.5998C17.8317 12.3635 18.1184 12.1884 18.4344 12.0902C18.7504 11.9919 19.0858 11.9736 19.4106 12.0369C19.7355 12.1002 20.0395 12.2431 20.2955 12.4528C20.5515 12.6625 20.7514 12.9325 20.8774 13.2385C21.0034 13.5445 21.0515 13.877 21.0174 14.2061C20.9833 14.5353 20.8681 14.8509 20.682 15.1245C20.4959 15.3982 20.2449 15.6214 19.9513 15.7742C19.6578 15.9269 19.3309 16.0045 19 15.9998H10M20.6 27.4002C20.8317 27.6365 21.1184 27.8116 21.4344 27.9098C21.7504 28.0081 22.0858 28.0264 22.4106 27.9631C22.7355 27.8998 23.0395 27.7569 23.2955 27.5472C23.5515 27.3375 23.7514 27.0675 23.8774 26.7615C24.0034 26.4555 24.0515 26.123 24.0174 25.7939C23.9833 25.4647 23.8681 25.1491 23.682 24.8755C23.4959 24.6018 23.2449 24.3786 22.9513 24.2258C22.6578 24.0731 22.3309 23.9955 22 24.0002H10" stroke="black" stroke-width="2" stroke-linecap="round" stroke-linejoin="round"/>
</svg>
